<svg width="503" height="501" viewBox="0 0 503 501" fill="none" xmlns="http://www.w3.org/2000/svg">
<path d="M420.364 395.355H458.761C459.926 395.355 460.945 394.388 460.945 393.227V392.985C460.945 391.824 459.926 390.857 458.664 390.857H423.083C401.531 390.857 379.978 390.857 358.474 390.857H325.466C324.301 390.857 323.282 391.824 323.282 392.985V393.227C323.282 394.388 324.253 395.355 325.466 395.355H372.309L359.397 418.961C350.222 435.794 341.048 452.579 331.825 469.413L316.632 497.178C316.098 498.145 316.534 499.403 317.554 499.984L317.748 500.08C318.767 500.612 320.078 500.322 320.563 499.403L377.406 395.355H415.268L472.11 499.403C472.595 500.322 473.906 500.661 474.925 500.08L475.12 499.984C476.139 499.403 476.576 498.145 476.042 497.178L460.848 469.413C451.674 452.579 442.5 435.794 433.277 418.961L420.364 395.355ZM460.8 376.4V348.275C460.8 326.824 460.8 305.423 460.8 284.022V258.463C460.8 254.456 457.54 251.207 453.519 251.207H374.299C370.278 251.207 367.018 254.456 367.018 258.463V376.483C367.018 380.49 370.278 383.738 374.299 383.738C374.301 383.738 374.304 383.738 374.307 383.738L453.526 383.655C457.545 383.651 460.8 380.404 460.8 376.4Z" fill="#D8DEED"/>
<g clip-path="url(#clip0_87_1571)">
<path d="M304.55 95.3179H185.278C179.901 95.3179 175.542 99.6709 175.542 105.041V235.812C175.542 241.182 179.901 245.535 185.278 245.535H304.55C309.927 245.535 314.286 241.182 314.286 235.812V105.041C314.286 99.6709 309.927 95.3179 304.55 95.3179Z" fill="#E1E5F0"/>
<path d="M196.075 194.414H293.831C295.223 194.414 296.351 195.541 296.351 196.931C296.351 198.321 295.223 199.448 293.831 199.448H196.075C194.683 199.448 193.554 198.321 193.554 196.931C193.554 195.541 194.683 194.414 196.075 194.414ZM196.075 210.774H293.831C295.223 210.774 296.351 211.9 296.351 213.29C296.351 214.68 295.223 215.807 293.831 215.807H196.075C194.683 215.807 193.554 214.68 193.554 213.29C193.554 211.9 194.683 210.774 196.075 210.774ZM209.318 202.594H280.587C281.979 202.594 283.108 203.721 283.108 205.111C283.108 206.501 281.979 207.628 280.587 207.628H209.318C207.926 207.628 206.798 206.501 206.798 205.111C206.798 203.721 207.926 202.594 209.318 202.594ZM215.625 218.953H274.281C275.673 218.953 276.801 220.08 276.801 221.47C276.801 222.86 275.673 223.987 274.281 223.987H215.625C214.233 223.987 213.105 222.86 213.105 221.47C213.105 220.08 214.233 218.953 215.625 218.953Z" fill="#F2F6FB"/>
<path d="M244.637 147.768C254.042 147.768 261.665 140.162 261.665 130.78C261.665 121.397 254.042 113.791 244.637 113.791C235.233 113.791 227.61 121.397 227.61 130.78C227.61 140.162 235.233 147.768 244.637 147.768Z" fill="#474BFF"/>
<path d="M244.631 130.61C242.913 130.61 241.521 129.239 241.521 127.549C241.521 125.858 242.913 124.488 244.631 124.488C246.349 124.488 247.741 125.858 247.741 127.549C247.741 129.239 246.349 130.61 244.631 130.61ZM244.631 132.14C247.744 132.14 250.268 134.624 250.268 137.688H238.994C238.994 134.624 241.518 132.14 244.631 132.14Z" fill="#F2F6FB"/>
<path d="M263.05 162.24H226.224C224.832 162.24 223.704 163.367 223.704 164.757C223.704 166.147 224.832 167.274 226.224 167.274H263.05C264.442 167.274 265.571 166.147 265.571 164.757C265.571 163.367 264.442 162.24 263.05 162.24Z" fill="#F2F6FB"/>
<path d="M270.353 154.06H218.922C217.53 154.06 216.402 155.187 216.402 156.577C216.402 157.967 217.53 159.094 218.922 159.094H270.353C271.745 159.094 272.873 157.967 272.873 156.577C272.873 155.187 271.745 154.06 270.353 154.06Z" fill="#F2F6FB"/>
</g>
<g clip-path="url(#clip1_87_1571)">
<path d="M276.605 497.771H353.979C355.196 497.771 356.17 496.801 356.17 495.588C356.17 494.376 355.196 493.406 353.979 493.406H276.605C275.387 493.406 274.413 494.376 274.413 495.588C274.413 496.801 275.387 497.771 276.605 497.771ZM419.034 497.771C420.251 497.771 421.225 496.932 421.225 495.924V495.252C421.225 494.245 420.202 493.406 419.034 493.406H369.123C367.905 493.406 366.931 494.245 366.931 495.252V495.924C366.931 496.932 367.954 497.771 369.123 497.771H419.034Z" fill="#011C7B"/>
<path d="M275.877 493.563C276.131 493.462 276.409 493.405 276.702 493.405H354.076C354.388 493.405 354.683 493.469 354.951 493.584C355.015 493.364 355.05 493.13 355.05 492.887L353.395 463.332L319.893 462.846C319.358 462.846 318.871 462.994 318.433 463.338C312.881 469.336 307.574 472.68 303.727 474.646C300.757 476.171 290.823 480.399 286.343 482.464C284.966 483.086 282.926 484.201 280.226 485.812C279.584 486.194 279.005 486.673 278.509 487.23C277.109 488.805 276.231 490.215 275.874 491.462C275.777 491.757 275.777 492.002 275.728 492.297C275.679 492.543 275.728 492.789 275.728 493.035V493.084C275.763 493.251 275.813 493.412 275.877 493.563ZM368.176 493.629C368.486 493.487 368.841 493.405 369.22 493.405H418.407L406.958 463.332L372.142 468.182L368.176 493.629Z" fill="#474961"/>
<path d="M356.66 378.462C358.064 379.158 359.375 379.807 360.593 380.412L360.845 384.249C361.137 389.287 361.478 393.712 361.867 397.612C362.159 400.679 365.909 435.422 367.272 448.172C367.564 451.063 369.658 453.517 372.531 454.306C376.865 455.532 379.64 456.233 390.889 456.628C391.619 456.671 392.349 456.628 393.031 456.584C403.939 455.708 409.392 454.13 410.61 453.604C412.168 452.947 412.996 452.641 413.823 451.896C416.745 449.355 416.55 445.324 416.599 443.834C416.845 434.341 417.507 408.778 417.708 386.785C418.003 386.786 418.298 386.787 418.595 386.788C421.366 386.788 424.032 385.624 426.489 383.587C429.625 380.967 440.653 372.305 441.337 354.079C441.813 341.4 439.596 331.769 434.688 325.185C434.688 325.137 428.578 315.532 424.866 315.532H370.197C366.398 315.662 349.436 316.099 319.309 316.846L319.327 316.962C319.159 316.958 318.99 316.955 318.822 316.951C306.503 316.725 296.52 326.51 296.812 338.459C296.812 338.549 296.812 338.594 296.812 338.684C297.592 375.748 306.697 428.549 307.33 446.405C307.379 447.081 307.574 448.569 308.596 450.147C311.761 454.972 319.163 453.89 336.449 454.296C351.155 454.656 357.095 455.738 360.114 451.771C361.77 449.606 361.721 447.126 361.672 445.999C360.469 423.377 358.716 400.542 356.66 378.462Z" fill="#474BFF"/>
<path opacity="0.176986" d="M356.764 378.369C358.169 379.064 359.48 379.714 360.697 380.318L358.465 346.333C358.416 344.362 358.173 332.444 367.863 324.865C374.923 319.388 383.493 319.038 389.191 318.819C397.956 318.468 404.773 320.746 406.087 321.185C407.743 321.754 408.571 322.061 409.399 322.455C418.845 327.012 418.115 348.918 418.017 352.905C417.92 357.944 417.871 365.786 417.871 374.899C417.871 378.606 417.85 382.562 417.813 386.64C418.072 386.641 418.333 386.642 418.595 386.643C421.366 386.643 424.032 385.479 426.489 383.441C429.625 380.822 440.653 372.16 441.337 353.934C441.813 341.255 439.596 331.623 434.688 325.04C434.688 324.991 428.578 315.387 424.866 315.387H370.197C366.495 315.513 349.888 316.01 320.374 316.878C323.972 316.957 327.541 317.037 331.148 317.116C342.104 317.387 351.21 325.458 352.378 336.009C353.925 349.617 355.411 363.829 356.764 378.369Z" fill="#444444"/>
<path d="M356.443 259.511C349.285 254.175 330.781 239.672 330.781 239.672C324.743 245.104 339.254 254.854 339.254 254.854" fill="#482D1F"/>
<path d="M323.406 237.61C327.038 231.566 325.996 223.615 320.544 218.725C314.348 213.168 304.804 213.666 299.225 219.838C293.647 226.009 294.147 235.517 300.343 241.074C305.667 245.85 313.465 246.153 319.093 242.227L336.388 257.739C336.788 258.098 337.403 258.066 337.763 257.668L340.696 254.423C341.056 254.025 341.023 253.412 340.624 253.053L323.406 237.61ZM318.042 236.715C314.264 240.896 307.798 241.234 303.601 237.469C299.404 233.705 299.065 227.264 302.844 223.083C306.623 218.903 313.089 218.565 317.286 222.329C321.483 226.094 321.821 232.535 318.042 236.715Z" fill="#474961"/>
<path d="M367.114 243.601C366.384 245.508 365.792 247.466 365.339 249.475C362.646 261.423 358.243 268.458 361.275 274.177C363.065 277.551 366.503 278.563 369.169 278.847L371.001 301.647C371.727 307.82 372.212 311.255 372.456 311.951C372.411 317.658 379.607 316.206 393.006 316.206C408.597 316.206 429.394 318.296 430.634 312.549C431.752 307.369 431.484 296.505 429.831 279.956C435.248 278.544 439.234 276.103 440.25 274.127C443.11 268.641 439.828 259.772 436.171 249.819C431.765 237.889 429.374 232.019 423.983 227.17C419.517 223.164 414.638 221.78 410.527 222.554C407.209 221.224 403.564 220.635 399.799 220.965L389.126 221.903C377.758 222.818 368.952 232.291 367.114 243.601Z" fill="#011C7B"/>
<path opacity="0.176986" d="M366.78 244.31C366.153 246.025 365.637 247.781 365.232 249.578C362.538 261.525 358.136 268.56 361.167 274.28C362.936 277.612 366.312 278.64 368.964 278.938L368.848 277.49L368.814 277.006L366.698 251.042L366.637 250.171C366.471 248.191 366.525 246.226 366.78 244.31Z" fill="#444444"/>
<path d="M404.395 221.168C403.552 218.351 402.34 213.694 400.759 207.198L400.619 204.464C400.717 203.931 400.807 203.913 401.294 203.768C402.56 203.428 403.241 202.609 404.118 201.639C405.724 199.796 406.163 197.08 405.384 194.606C404.41 192.229 401.878 190.434 399.54 190.628C398.664 190.725 397.836 191.065 397.057 191.55L397.008 191.598C396.765 191.841 396.424 191.89 396.083 191.938C395.255 191.938 394.574 191.356 394.525 190.531L394.087 177.871C394.087 177.047 393.454 176.464 392.626 176.464C390.824 176.464 389.071 176.367 387.27 175.979C387.026 175.979 386.831 175.931 386.636 175.931C384.884 175.737 375.486 175.155 370.421 182.091C369.983 182.77 369.545 183.449 369.204 184.128C368.328 185.875 367.938 187.815 368.084 189.852L368.62 198.68C368.717 199.554 368.815 200.427 369.009 201.348C371.347 212.262 376.313 219.829 380.501 220.072C382.644 220.12 384.786 219.878 386.88 219.247C387.14 219.117 386.975 219.219 389.902 218.04L390.499 221.25C384.685 222.193 381.45 224.036 381.095 224.217C382.131 225.355 382.276 225.739 383.17 226.459C393.172 234.511 409.407 223.909 411.456 222.551C408.959 221.911 406.604 221.463 404.395 221.168ZM361.68 288.007L360.899 293.581L322.234 300.851C321.093 300.654 319.989 300.546 318.925 300.515C315.264 300.364 312.111 301.071 309.976 301.627C304.637 301.375 299.349 301.071 294.061 300.819C289.739 299.807 280.078 298.291 279.773 304.358C279.773 304.358 283.942 305.47 289.586 306.936C290.907 307.279 292.309 307.642 293.758 308.018C301.243 310.592 311.036 315.9 316.675 317.701L374.444 315.693C373.571 314.626 372.921 313.417 372.533 312.054C372.289 311.358 371.804 307.923 371.078 301.75L370.379 293.054C380.93 299.03 390.727 304.03 399.772 308.054C405.254 310.493 411.954 312.405 417.329 314.234C429.856 316.775 432.222 312.281 433.652 310.807C435.317 309.092 440.863 304.222 438.365 276.259C433.827 279.657 422.982 282.965 412.161 280.036C409.364 279.278 406.865 278.563 404.664 277.89L404.839 279.577L346.998 255.393C346.859 255.285 346.708 255.19 346.546 255.109L329.844 247.203C328.578 246.621 327.02 247.154 326.387 248.415L325.802 249.531C325.209 250.759 325.685 252.157 326.79 252.846C325.614 252.6 324.449 253.152 323.952 254.265L323.368 255.381C322.87 256.41 323.125 257.559 323.871 258.31C323.234 258.502 322.664 258.933 322.313 259.57L321.671 260.654C320.97 261.929 321.475 263.461 322.706 264.157L331.425 268.856C342.078 275.976 352.163 282.36 361.68 288.007ZM319.656 454.028V462.847L353.395 463.332L353.187 454.624C349.454 454.868 344.158 454.481 336.459 454.293C329.293 454.124 323.826 454.212 319.656 454.028ZM373.097 454.459L372.142 468.183L406.958 463.332L405.603 454.932C402.718 455.509 398.583 456.135 393.041 456.581C392.359 456.625 391.629 456.668 390.898 456.625C380.138 456.247 377.131 455.589 373.097 454.459Z" fill="#BF865F"/>
<path d="M402.091 212.42C402.655 214.92 403.154 216.988 403.501 218.038C404.27 218.038 405.043 218.038 405.818 218.038C406.982 218.038 411.189 217.597 415.119 217.359C415.119 217.359 415.411 217.359 415.654 217.31C416.921 217.116 418.138 216.922 419.355 216.291C419.355 216.291 419.745 216.146 420.086 215.855C426.951 210.228 428.461 202.176 425.539 197.665C423.445 194.512 419.355 193.299 418.771 193.105C417.992 192.863 417.213 192.766 416.531 192.717C416.265 191.922 415.999 191.087 415.733 190.248C415.663 187.416 415.03 183.653 412.538 180.542C411.516 179.232 410.152 178.262 408.691 177.535C404.796 175.594 401.825 176.565 394.132 176.371C392.574 176.371 387.195 175.688 387.001 175.688C379.068 175.188 373.521 177.372 370.36 182.24C372.704 181.884 374.606 181.884 376.067 182.24C385.513 184.568 388.289 200.866 392.622 200.187C392.664 200.182 392.707 200.175 392.754 200.165L392.72 200.139L394.814 194.415C395.301 193.251 396.128 192.329 397.102 191.553C397.881 191.068 398.709 190.728 399.586 190.631C401.923 190.437 404.455 192.232 405.429 194.609C405.587 195.016 405.706 195.432 405.785 195.85C406.055 197.91 405.522 199.994 404.211 201.497C404.138 201.578 404.063 201.658 403.986 201.736C403.983 201.741 403.979 201.746 403.976 201.751C402.956 202.799 401.629 203.52 400.179 203.805C400.781 207.024 401.736 211.224 402.091 212.42ZM375.58 195.967C376.553 196.21 378.16 196.452 379.475 196.113C381.764 195.628 379.621 194.269 377.527 194.172C376.553 194.124 375.774 194.512 375.287 194.9C374.947 195.24 375.093 195.87 375.58 195.967ZM367.355 195.968C368.355 196.222 369.897 196.526 371.283 196.162C373.63 195.616 371.457 194.248 369.398 194.184C368.318 194.132 367.62 194.533 367.117 194.918C366.705 195.246 366.858 195.866 367.355 195.968Z" fill="#482D1F"/>
<path opacity="0.2" d="M362.523 288.165C362.285 288.026 362.046 287.887 361.807 287.747L360.99 293.486L322.333 300.709C321.189 300.512 320.085 300.404 319.019 300.373C315.358 300.221 312.205 300.929 310.07 301.485C304.731 301.232 299.443 300.929 294.155 300.676C289.833 299.665 280.172 298.148 279.867 304.215C279.867 304.215 284.036 305.327 289.68 306.794C291.001 307.136 292.403 307.5 293.852 307.875C301.337 310.449 311.13 315.758 316.769 317.558L374.537 315.55C373.665 314.484 373.015 313.274 372.627 311.911C372.383 311.215 371.898 307.78 371.172 301.607L370.517 293.457L370.471 293.272L370.502 293.266L370.473 292.912L362.523 288.165Z" fill="#8C2A00"/>
<path d="M257.925 286.448C257.483 287.937 258.306 289.471 259.801 289.911L326.711 310.391C328.206 310.831 329.746 310.011 330.187 308.522C330.629 307.033 329.806 305.5 328.311 305.059L261.401 284.579C259.955 284.141 258.367 284.959 257.925 286.448Z" fill="#474961"/>
<path d="M390.015 217.838L393.832 216.138L390.732 221.804L390.015 217.838Z" fill="#482D1F"/>
<path d="M370.905 201.885C371.343 201.303 371.197 199.993 371.051 199.12C371.002 198.489 370.418 198.101 369.882 198.101C369.542 198.15 369.103 198.344 369.006 199.023C368.665 200.624 370.321 202.855 370.905 201.885ZM378.939 201.933C379.426 201.351 379.232 199.993 379.086 199.169C379.037 198.538 378.453 198.15 377.917 198.15C377.576 198.198 377.138 198.392 377.04 199.072C376.7 200.672 378.306 202.904 378.939 201.933Z" fill="#482D1F"/>
<path d="M371.753 201.079L371.318 198.254C371.277 197.989 371.46 197.742 371.725 197.701C371.991 197.661 372.24 197.842 372.281 198.107L372.72 200.962L372.726 201.022L372.864 206.161C372.883 206.218 372.93 206.256 372.994 206.261C373.582 206.186 374.341 206.116 375.271 206.049C375.539 206.03 375.772 206.231 375.791 206.498C375.811 206.765 375.609 206.997 375.341 207.017C374.409 207.084 373.656 207.154 373.083 207.227L373.029 207.231C372.461 207.241 371.999 206.846 371.9 206.312L371.892 206.237L371.753 201.079Z" fill="#482D1F"/>
<path d="M375.677 210.956C376.018 210.907 376.894 210.713 377.089 210.18C377.089 210.083 377.186 209.937 377.138 209.84C376.992 209.597 375.482 209.597 375.482 209.597C373.486 209.646 372.999 209.549 372.853 209.791C372.804 209.937 372.804 210.131 373.145 210.568C373.583 211.392 375.19 211.101 375.677 210.956Z" fill="#482D1F"/>
<path d="M405.177 277.245L402.511 252.724C402.468 252.325 402.758 251.966 403.159 251.923C403.56 251.879 403.92 252.168 403.964 252.568L406.63 277.089C406.673 277.488 406.383 277.847 405.982 277.89C405.581 277.934 405.221 277.645 405.177 277.245Z" fill="#482D1F"/>
</g>
<path d="M33.228 390.747V390.837C33.228 391.997 34.2443 392.964 35.4058 392.964H71.9447L59.0709 416.547C49.8759 433.365 40.7292 450.135 31.5826 466.953L16.435 494.693C15.9027 495.659 16.3382 496.916 17.3545 497.496L17.5481 497.592C18.5644 498.172 19.8711 497.834 20.355 496.916L77.0254 392.964H114.773L171.444 496.916C171.928 497.834 173.234 498.124 174.251 497.592L174.444 497.496C175.461 496.916 175.896 495.659 175.364 494.693L160.216 466.953C151.021 450.135 141.875 433.365 132.728 416.547L119.854 392.964H168.298C169.508 392.964 170.476 391.997 170.476 390.837V390.596C170.476 389.436 169.46 388.469 168.298 388.469H135.39C113.951 388.469 92.4634 388.469 70.976 388.469H37.5009L33.4216 355.51C30.6147 333.086 27.8562 310.614 25.0493 288.142L20.4518 251.026C20.3066 249.722 19.1935 248.755 17.9837 248.9L17.7417 248.948C16.5802 249.093 15.7575 250.302 15.9027 251.51L33.1797 390.499C33.1922 390.584 33.2084 390.666 33.228 390.747Z" fill="#D8DEED"/>
<g clip-path="url(#clip2_87_1571)">
<path d="M188.276 493.406H120.73C119.497 493.406 118.511 494.376 118.511 495.588C118.511 496.801 119.497 497.771 120.73 497.771H199.072H254.854C256.071 497.771 257.045 496.801 257.045 495.588C257.045 494.376 256.071 493.406 254.854 493.406H188.276Z" fill="#A5A6F6"/>
<path d="M255.508 493.453C255.608 493.258 255.683 493.047 255.73 492.824V492.775C255.73 492.533 255.779 492.29 255.73 492.047C255.681 491.756 255.681 491.514 255.584 491.223C254.951 489.04 253.247 487.197 252.127 486.178C251.981 486.033 251.883 485.984 251.737 485.887C249.595 484.577 247.404 483.365 245.115 482.346C240.635 480.309 230.702 476.137 227.731 474.634C223.884 472.693 218.577 469.395 213.026 463.477C212.588 463.138 212.101 462.992 211.565 462.992L178.112 463.186C176.7 463.186 175.58 464.35 175.678 465.805L175.992 477.359C174.576 476.693 173.136 475.954 171.515 475.022C169.212 473.712 165.979 471.578 162.354 468.376C160.345 466.63 158.287 464.884 156.278 463.138L125.952 462.75L119.618 493.82C119.984 493.559 120.435 493.406 120.925 493.406H188.47H255.048C255.206 493.406 255.36 493.422 255.508 493.453Z" fill="#474961"/>
<path opacity="0.176986" d="M198.563 493.406H254.974C255.1 493.184 255.194 492.939 255.249 492.678V492.629C255.249 492.387 255.298 492.144 255.249 491.902C255.2 491.611 255.2 491.368 255.103 491.077C254.47 488.894 252.766 487.051 251.646 486.033C251.5 485.887 251.402 485.839 251.256 485.742C249.114 484.432 246.922 483.219 244.634 482.201C240.154 480.163 230.221 475.992 227.25 474.488C223.403 472.548 218.096 469.249 212.545 463.332C212.107 462.992 211.62 462.846 211.084 462.846L177.631 463.041C176.219 463.041 175.574 464.062 175.672 465.518L176 477.609C179.35 479.154 182.697 480.392 188.149 482.977C190.486 484.092 192.726 485.353 194.918 486.76C195.989 487.73 197.839 489.719 198.424 492.047C198.521 492.435 198.521 492.824 198.57 493.163C198.57 493.245 198.567 493.326 198.563 493.406H198.563Z" fill="#444444"/>
<path d="M182.416 469.747C182.582 469.766 182.752 469.775 182.923 469.775L214.543 469.438H217.099C219.611 469.438 221.734 467.508 221.864 464.649C222.167 458.882 222.557 451.291 223.033 442.517C224.333 420.385 225.026 413.336 225.806 396.282C225.936 393.423 226.065 390.859 226.152 388.444C226.499 376.959 227.408 366.214 229.184 352.165C230.18 344.377 230.657 339.547 230.7 335.456C230.744 331.66 229.747 327.914 227.841 324.809C226.888 323.281 225.806 321.95 224.506 320.816C221.171 317.908 216.709 315.443 213.157 315.69C203.951 315.733 194.745 315.738 185.539 315.771C183.611 315.316 181.459 315.091 179.086 315.096L174.469 315.144C174.495 315.089 155.057 314.986 116.155 314.837C104.104 305.413 90.7884 301.462 76.2087 302.983C70.3895 303.59 65.1169 305.244 60.3908 307.946C55.1735 310.888 50.6181 315.098 46.7245 320.577C44.3238 323.077 37.1165 334.492 38.5479 351.876C38.8249 355.078 39.425 362.208 43.303 368.999C47.3656 376.081 52.3515 381.271 60.7076 384.23C68.0942 386.849 76.7272 387.771 85.6834 386.752C98.3021 384.359 112.896 382.371 129.466 380.786C124.992 392.985 122.093 400.652 120.77 403.789C118.784 408.446 113.395 428.551 111.371 443.952C110.381 451.485 110.727 458.145 112.408 463.933C113.434 467.463 116.68 469.891 120.368 469.887L161.811 469.844L180.416 469.747H182.416Z" fill="#7879F1"/>
<path opacity="0.176986" d="M184.867 315.774C188.974 316.647 192.108 318.527 194.269 321.414C198.934 327.646 197.59 333.638 197.59 337.324V337.567C197.544 341.593 197.036 346.346 196.02 354.01C194.127 367.835 193.158 378.361 192.789 389.711C192.696 392.04 192.558 394.61 192.419 397.424C191.634 414.159 190.85 421.095 189.465 442.923C188.911 451.557 188.495 458.979 188.218 464.702C188.08 467.516 185.818 469.747 183.14 469.747H182.402C182.573 469.771 182.747 469.783 182.923 469.783L214.543 469.438H217.099C219.611 469.438 221.864 467.366 221.864 464.181C222.167 458.432 222.557 450.865 223.033 442.118C224.333 420.056 225.026 413.029 225.806 396.028C225.936 393.178 226.065 390.623 226.152 388.215C226.499 376.766 227.408 366.055 229.184 352.051C230.18 344.287 230.657 339.472 230.7 335.393C230.744 331.61 229.747 327.875 227.841 324.78C226.888 323.257 225.806 321.93 224.506 320.8C221.171 317.901 216.709 315.444 213.157 315.69C203.727 315.733 194.297 315.738 184.867 315.774Z" fill="#444444"/>
<path d="M109.366 226.407C113.603 229.7 117.024 234.765 117.666 236.623C122.983 252.028 129.387 251.418 129.898 254.755C130.663 259.748 124.796 260.355 124.796 260.355C122.071 260.615 119.999 260.814 118.581 260.95L118.244 274.73L118.212 275.216L117.645 299.358L117.518 304.071C117.532 304.459 117.495 304.8 117.46 305.189C117.426 305.627 117.391 306.017 117.358 306.455C117.251 307.575 117.045 308.65 116.742 309.728C116.611 310.169 116.529 310.609 116.35 311.052C75.8289 312.462 55.445 309.644 55.198 302.598L56.2077 260.546L50.0623 260.339C50.0623 260.339 43.383 259.891 44.1456 254.869C44.6554 251.513 51.9805 251.786 57.71 236.136C58.4966 233.987 63.3051 227.502 68.9871 224.164C69.1669 224.059 69.3476 223.956 69.529 223.857C73.4073 221.675 77.9078 220.474 82.6777 220.587L93.8942 220.877C99.773 220.993 105.13 223.047 109.366 226.407Z" fill="#A5A6F6"/>
<path opacity="0.176986" d="M114.64 231.739C116.248 233.783 117.368 235.667 117.707 236.652C123.025 252.057 129.387 251.418 129.898 254.755C130.663 259.748 124.865 260.34 124.865 260.34L118.74 260.93L119.066 247.597L119.084 246.723C119.237 241.169 117.58 235.989 114.64 231.739Z" fill="#444444"/>
<path d="M86.9274 200.603C86.8394 200.522 86.7524 200.437 86.6666 200.349C85.1244 198.73 84.2217 196.157 85.0726 193.67C85.8649 191.273 88.2247 189.332 90.5645 189.431C91.8822 189.471 95.42 190.278 95.3969 189.109L95.14 176.736C95.1246 175.957 95.7337 175.291 96.5187 175.276C98.2391 175.212 99.9263 174.999 101.741 174.508C101.94 174.48 102.139 174.452 102.337 174.425C103.981 174.159 113.207 173.031 118.495 179.513C118.976 180.049 119.4 180.677 119.813 181.4C120.764 183.055 121.248 184.952 121.238 186.896L121.204 195.544C121.161 196.414 121.118 197.285 120.977 198.145C119.3 208.906 114.823 216.508 110.76 216.959C110.26 217.053 107.648 217.217 104.541 216.504C104.258 216.427 104.484 216.545 100.432 215.128L99.7629 221.691C97.8295 221.188 95.803 220.902 93.7104 220.861L85.3448 220.646L86.4017 210.663L86.8598 206.337L86.9274 200.603ZM117.739 294.132L118.148 276.731L118.191 275.098L118.216 274.724L118.412 266.74L118.564 260.964L122.524 260.584L136.189 297.627C137.465 297.867 138.943 298.167 140.674 298.534C143.461 298.519 145.767 298.583 147.594 298.725C154.991 299.301 161.346 299.541 168.788 303.946C182.353 311.977 183.411 315.674 171.961 315.039L148.606 314.904C148.315 315.009 148.024 315.078 147.734 315.103C147.734 315.103 113.604 314.804 45.3436 314.205C42.598 314.181 40.0197 312.887 38.3662 310.704C37.5709 309.653 36.9934 307.732 36.6338 304.939C35.5188 299.046 38.7047 290.607 44.7582 274.213C46.6833 269.016 48.5065 264.29 50.2225 260.091L87.9536 261.513C85.0433 268.716 79.9089 285.847 78.4542 288.473C78.4508 288.475 78.4473 288.476 78.4439 288.478C89.3094 289.936 102.328 291.744 117.739 294.132Z" fill="#F2A98A"/>
<path d="M100.071 218.722L95.5467 213.007L100.448 215.126L100.071 218.722Z" fill="#482D1F"/>
<path d="M96.1719 192.988C95.9726 192.629 95.2091 191.371 93.816 190.397C93.6809 190.285 92.6231 189.638 91.3054 189.598C88.9656 189.499 86.6058 191.447 85.8135 193.851C84.9626 196.347 85.8169 198.924 87.3591 200.549C88.5499 201.803 89.9959 202.299 90.8805 202.513C90.8719 204.16 90.9062 205.95 90.9834 207.883C87.2071 207.636 83.8795 205.997 81.0007 202.964C79.8102 201.718 76.6492 198.265 75.6645 192.748C75.5514 192.047 75.3268 190.706 75.3071 189.046C67.8144 189.169 61.7548 185.835 59.5264 181.105C57.4503 176.651 58.8912 171.317 59.0961 170.562C61.1515 162.964 68.0725 163.051 68.6647 163.036C68.6647 163.036 78.642 159.583 86.5287 175.48C86.5337 175.491 86.5387 175.501 86.5437 175.511C88.8047 175.335 91.5471 175.494 95.7255 175.242C97.2522 175.158 99.4791 174.786 102.214 174.39C102.408 174.41 104.746 174.173 104.944 174.145C105.932 174.145 109.242 173.834 113.522 175.744C117.803 177.653 119.382 180.524 119.319 180.645C119.196 180.876 117.011 181.86 115.706 182.162C112.044 182.998 108.863 182.519 106.908 182.022C106.393 183.187 105.664 184.525 104.694 185.838C101.883 189.738 98.3405 191.757 96.1309 192.745C96.1444 192.826 96.1581 192.907 96.1719 192.988Z" fill="#482D1F"/>
<path d="M118.02 195.079C118.076 194.415 118.607 193.921 119.276 193.926C119.685 193.897 120.064 194.175 120.268 194.872C120.695 196.568 119.075 199.117 118.335 198.103C117.88 197.475 117.981 195.995 118.02 195.079ZM107.265 194.856C107.322 194.192 107.853 193.698 108.521 193.702C108.931 193.674 109.31 193.952 109.513 194.648C109.941 196.344 108.32 198.894 107.581 197.879C107.125 197.251 107.227 195.772 107.265 194.856Z" fill="#482D1F"/>
<path d="M115.521 195.597L116.288 200.259C116.331 200.851 115.918 201.428 115.35 201.468C115.016 201.518 114.8 201.533 113.935 201.577C113.547 201.597 113.282 201.612 112.969 201.634C112.701 201.653 112.469 201.451 112.45 201.184C112.431 200.917 112.633 200.685 112.902 200.666C113.221 200.644 113.492 200.628 113.885 200.608C114.716 200.566 114.918 200.552 115.246 200.504C115.267 200.501 115.325 200.421 115.321 200.371L114.56 195.754C114.517 195.49 114.697 195.24 114.962 195.197C115.227 195.154 115.478 195.333 115.521 195.597Z" fill="#482D1F"/>
<path d="M112.454 204.605C112.122 204.522 111.309 204.206 111.179 203.683C111.172 203.578 111.115 203.422 111.157 203.366C111.324 203.088 111.94 203.258 112.785 203.359C114.285 203.52 115.534 203.433 115.534 203.433C115.534 203.433 115.181 204.362 114.968 204.643C114.503 205.314 112.978 204.782 112.454 204.605Z" fill="#482D1F"/>
<path d="M99.9636 192.831C100.833 190.343 103.123 188.482 105.929 188.287C109.685 188.025 112.942 190.846 113.205 194.588C113.209 194.642 113.212 194.696 113.214 194.75C113.276 194.738 113.34 194.734 113.405 194.738L114.776 194.834C115.077 191.578 117.709 188.925 121.089 188.69C124.845 188.428 128.103 191.249 128.365 194.99C128.628 198.732 125.796 201.977 122.04 202.239C118.405 202.492 115.236 199.857 114.798 196.294L113.303 196.19C113.244 196.186 113.188 196.175 113.134 196.158C112.637 199.198 110.098 201.612 106.88 201.836C103.124 202.097 99.8666 199.277 99.604 195.535C99.5733 195.098 99.5848 194.668 99.635 194.249L96.0897 193.382C95.6979 193.286 95.4583 192.892 95.5545 192.502C95.6507 192.112 96.0463 191.873 96.438 191.969L99.9636 192.831ZM116.213 195.688C116.215 195.737 116.218 195.787 116.221 195.836C116.428 198.776 118.987 200.992 121.938 200.787C124.889 200.581 127.114 198.032 126.908 195.092C126.702 192.152 124.142 189.936 121.191 190.141C118.353 190.339 116.187 192.705 116.208 195.5C116.217 195.553 116.219 195.608 116.215 195.663C116.215 195.672 116.214 195.68 116.213 195.688ZM106.778 200.384C109.729 200.179 111.954 197.629 111.748 194.689C111.541 191.75 108.982 189.533 106.031 189.739C103.08 189.944 100.855 192.494 101.061 195.434C101.268 198.373 103.827 200.59 106.778 200.384Z" fill="#482D1F"/>
<path d="M72.9674 292.613C72.6133 292.805 72.1696 292.675 71.9764 292.323C71.7831 291.97 71.9135 291.528 72.2676 291.335L78.3543 288.026C78.7084 287.834 79.1521 287.964 79.3454 288.316C79.5386 288.669 79.4082 289.111 79.0541 289.304L72.9674 292.613ZM88.4329 262.033C88.2753 262.403 87.8466 262.575 87.4752 262.418C87.1039 262.261 86.9305 261.834 87.0881 261.464L93.6095 246.152C93.7671 245.782 94.1958 245.61 94.5672 245.766C94.9385 245.923 95.1118 246.351 94.9543 246.72L88.4329 262.033Z" fill="#482D1F"/>
<path opacity="0.2" d="M117.732 294.272L118.178 275.26L118.21 274.774L118.548 260.957L122.511 260.575L136.147 297.717L117.732 294.272Z" fill="#8C2A00"/>
<path d="M130.188 381.178L144.313 366.414C144.591 366.123 144.58 365.662 144.288 365.385C143.996 365.108 143.533 365.119 143.255 365.41L129.131 380.175C128.852 380.465 128.864 380.926 129.156 381.203C129.448 381.48 129.91 381.469 130.188 381.178Z" fill="#482D1F"/>
</g>
<path d="M329.858 314H44.4938C43.1165 314 42 315.791 42 318C42 320.209 43.1165 322 44.4938 322H329.858C331.235 322 332.352 320.209 332.352 318C332.352 315.791 331.235 314 329.858 314Z" fill="#D8DEED"/>
<g clip-path="url(#clip3_87_1571)">
<path d="M455.081 11.9147H292.899C289.063 11.9147 285.954 15.0535 285.954 18.9254V141.262C285.954 145.133 289.063 148.272 292.899 148.272H455.081C458.917 148.272 462.027 145.133 462.027 141.262V18.9254C462.027 15.0535 458.917 11.9147 455.081 11.9147Z" fill="#F2F6FB"/>
<path d="M298.109 57.7582H360.344C361.303 57.7582 362.081 58.5429 362.081 59.5108V62.6055C362.081 63.5734 361.303 64.3581 360.344 64.3581H298.109C297.15 64.3581 296.372 63.5734 296.372 62.6055V59.5108C296.372 58.5429 297.15 57.7582 298.109 57.7582ZM298.109 68.4831H368.558C369.517 68.4831 370.294 69.2678 370.294 70.2358V73.3304C370.294 74.2983 369.517 75.083 368.558 75.083H298.109C297.15 75.083 296.372 74.2983 296.372 73.3304V70.2358C296.372 69.2678 297.15 68.4831 298.109 68.4831ZM298.109 89.9329H376.771C377.73 89.9329 378.508 90.7176 378.508 91.6856V94.7802C378.508 95.7481 377.73 96.5328 376.771 96.5328H298.109C297.15 96.5328 296.372 95.7481 296.372 94.7802V91.6856C296.372 90.7176 297.15 89.9329 298.109 89.9329ZM298.109 100.658H352.131C353.09 100.658 353.867 101.443 353.867 102.41V105.505C353.867 106.473 353.09 107.258 352.131 107.258H298.109C297.15 107.258 296.372 106.473 296.372 105.505V102.41C296.372 101.443 297.15 100.658 298.109 100.658ZM298.109 111.383H368.558C369.517 111.383 370.294 112.167 370.294 113.135V116.23C370.294 117.198 369.517 117.983 368.558 117.983H298.109C297.15 117.983 296.372 117.198 296.372 116.23V113.135C296.372 112.167 297.15 111.383 298.109 111.383ZM298.109 122.108H376.771C377.73 122.108 378.508 122.892 378.508 123.86V126.955C378.508 127.923 377.73 128.708 376.771 128.708H298.109C297.15 128.708 296.372 127.923 296.372 126.955V123.86C296.372 122.892 297.15 122.108 298.109 122.108Z" fill="#E1E5F0"/>
<path d="M376.771 47.3186H298.109C297.15 47.3186 296.372 48.1033 296.372 49.0713V51.7069C296.372 52.6748 297.15 53.4595 298.109 53.4595H376.771C377.73 53.4595 378.508 52.6748 378.508 51.7069V49.0713C378.508 48.1033 377.73 47.3186 376.771 47.3186Z" fill="#D8DEED"/>
<path d="M399.713 57.7582H454.039C454.998 57.7582 455.776 58.5429 455.776 59.5108V62.6952C455.776 63.6632 454.998 64.4479 454.039 64.4479H399.713C398.754 64.4479 397.977 63.6632 397.977 62.6952V59.5108C397.977 58.5429 398.754 57.7582 399.713 57.7582ZM399.713 68.6289H437.525C438.484 68.6289 439.262 69.4136 439.262 70.3816V73.5659C439.262 74.5339 438.484 75.3186 437.525 75.3186H399.713C398.754 75.3186 397.977 74.5339 397.977 73.5659V70.3816C397.977 69.4136 398.754 68.6289 399.713 68.6289ZM399.713 79.4997H445.782C446.741 79.4997 447.519 80.2844 447.519 81.2523V84.4367C447.519 85.4047 446.741 86.1894 445.782 86.1894H399.713C398.754 86.1894 397.977 85.4047 397.977 84.4367V81.2523C397.977 80.2844 398.754 79.4997 399.713 79.4997ZM399.713 90.3704H429.268C430.227 90.3704 431.005 91.1551 431.005 92.1231V95.3074C431.005 96.2754 430.227 97.0601 429.268 97.0601H399.713C398.754 97.0601 397.977 96.2754 397.977 95.3074V92.1231C397.977 91.1551 398.754 90.3704 399.713 90.3704Z" fill="#E1E5F0"/>
<path d="M285.954 18.9269C285.954 15.0542 289.066 11.9147 292.897 11.9147H455.084C458.918 11.9147 462.027 15.0545 462.027 18.9269V27.3382H285.954V18.9269Z" fill="#E1E5F0"/>
</g>
<g clip-path="url(#clip4_87_1571)">
<path d="M189.688 0H2.27171C1.01708 0 0 1.02391 0 2.28698V145.985C0 147.248 1.01708 148.272 2.27171 148.272H189.688C190.943 148.272 191.96 147.248 191.96 145.985V2.28698C191.96 1.02391 190.943 0 189.688 0Z" fill="#F2F6FB"/>
<path d="M42.5479 76.4533C51.9593 76.4533 59.5887 68.8098 59.5887 59.3812C59.5887 49.9525 51.9593 42.3091 42.5479 42.3091C33.1366 42.3091 25.5071 49.9525 25.5071 59.3812C25.5071 68.8098 33.1366 76.4533 42.5479 76.4533Z" fill="#D8DEED"/>
<path d="M42.5387 59.1383C40.096 59.1383 38.1157 57.1813 38.1157 54.7671C38.1157 52.3529 40.096 50.3958 42.5387 50.3958C44.9814 50.3958 46.9617 52.3529 46.9617 54.7671C46.9617 57.1813 44.9814 59.1383 42.5387 59.1383ZM42.5387 61.3239C46.9662 61.3239 50.5554 64.8711 50.5554 69.2468H34.522C34.522 64.8711 38.1112 61.3239 42.5387 61.3239Z" fill="#F2F6FB"/>
<path d="M27.4648 80.946H57.631C59.2075 80.946 60.4856 82.2326 60.4856 83.8197V85.2605C60.4856 86.8476 59.2075 88.1342 57.631 88.1342H27.4648C25.8883 88.1342 24.6102 86.8476 24.6102 85.2605V83.8197C24.6102 82.2326 25.8883 80.946 27.4648 80.946ZM31.9492 92.6269H53.1466C54.7231 92.6269 56.0012 93.9135 56.0012 95.5006V96.9414C56.0012 98.5285 54.7231 99.8151 53.1466 99.8151H31.9492C30.3727 99.8151 29.0946 98.5285 29.0946 96.9414V95.5006C29.0946 93.9135 30.3727 92.6269 31.9492 92.6269Z" fill="#E1E5F0"/>
<path d="M30.8576 111.721H54.2382C55.53 111.721 56.6547 111.987 57.5802 112.485C58.5057 112.983 59.232 113.715 59.727 114.646C60.222 115.578 60.4856 116.71 60.4856 118.011C60.4856 119.312 60.222 120.444 59.727 121.376C59.232 122.308 58.5057 123.039 57.5802 123.537C56.6547 124.036 55.53 124.301 54.2382 124.301H30.8576C29.5658 124.301 28.4411 124.036 27.5156 123.537C26.5901 123.039 25.8638 122.308 25.3688 121.376C24.8738 120.444 24.6102 119.312 24.6102 118.011C24.6102 116.71 24.8738 115.578 25.3688 114.646C25.8638 113.715 26.5901 112.983 27.5156 112.485C28.4411 111.987 29.5658 111.721 30.8576 111.721ZM84.2429 111.721H107.623C108.915 111.721 110.04 111.987 110.965 112.485C111.891 112.983 112.617 113.715 113.112 114.646C113.607 115.578 113.871 116.71 113.871 118.011C113.871 119.312 113.607 120.444 113.112 121.376C112.617 122.308 111.891 123.039 110.965 123.537C110.04 124.036 108.915 124.301 107.623 124.301H84.2429C82.951 124.301 81.8264 124.036 80.9008 123.537C79.9753 123.039 79.249 122.308 78.754 121.376C78.259 120.444 77.9955 119.312 77.9955 118.011C77.9955 116.71 78.259 115.578 78.754 114.646C79.249 113.715 79.9753 112.983 80.9008 112.485C81.8264 111.987 82.951 111.721 84.2429 111.721ZM138.007 111.721H161.387C162.679 111.721 163.804 111.987 164.729 112.485C165.655 112.983 166.381 113.715 166.876 114.646C167.371 115.578 167.635 116.71 167.635 118.011C167.635 119.312 167.371 120.444 166.876 121.376C166.381 122.308 165.655 123.039 164.729 123.537C163.804 124.036 162.679 124.301 161.387 124.301H138.007C136.715 124.301 135.59 124.036 134.665 123.537C133.739 123.039 133.013 122.308 132.518 121.376C132.023 120.444 131.759 119.312 131.759 118.011C131.759 116.71 132.023 115.578 132.518 114.646C133.013 113.715 133.739 112.983 134.665 112.485C135.59 111.987 136.715 111.721 138.007 111.721Z" fill="#474BFF"/>
<path d="M95.9331 76.4533C105.345 76.4533 112.974 68.8098 112.974 59.3812C112.974 49.9525 105.345 42.3091 95.9331 42.3091C86.5218 42.3091 78.8923 49.9525 78.8923 59.3812C78.8923 68.8098 86.5218 76.4533 95.9331 76.4533Z" fill="#D8DEED"/>
<path d="M95.9239 59.1383C93.4812 59.1383 91.5009 57.1813 91.5009 54.7671C91.5009 52.3529 93.4812 50.3958 95.9239 50.3958C98.3667 50.3958 100.347 52.3529 100.347 54.7671C100.347 57.1813 98.3667 59.1383 95.9239 59.1383ZM95.9239 61.3239C100.351 61.3239 103.941 64.8711 103.941 69.2468H87.9072C87.9072 64.8711 91.4964 61.3239 95.9239 61.3239Z" fill="#F2F6FB"/>
<path d="M80.85 80.946H111.016C112.593 80.946 113.871 82.2326 113.871 83.8197V85.2605C113.871 86.8476 112.593 88.1342 111.016 88.1342H80.85C79.2735 88.1342 77.9954 86.8476 77.9954 85.2605V83.8197C77.9954 82.2326 79.2735 80.946 80.85 80.946ZM80.85 92.6269H111.016C112.593 92.6269 113.871 93.9135 113.871 95.5006V96.9414C113.871 98.5285 112.593 99.8151 111.016 99.8151H80.85C79.2735 99.8151 77.9954 98.5285 77.9954 96.9414V95.5006C77.9954 93.9135 79.2735 92.6269 80.85 92.6269Z" fill="#E1E5F0"/>
<path d="M149.697 76.4533C159.108 76.4533 166.738 68.8098 166.738 59.3812C166.738 49.9525 159.108 42.3091 149.697 42.3091C140.286 42.3091 132.656 49.9525 132.656 59.3812C132.656 68.8098 140.286 76.4533 149.697 76.4533Z" fill="#D8DEED"/>
<path d="M149.688 59.1383C147.245 59.1383 145.265 57.1813 145.265 54.7671C145.265 52.3529 147.245 50.3958 149.688 50.3958C152.131 50.3958 154.111 52.3529 154.111 54.7671C154.111 57.1813 152.131 59.1383 149.688 59.1383ZM149.688 61.3239C154.115 61.3239 157.704 64.8711 157.704 69.2468H141.671C141.671 64.8711 145.26 61.3239 149.688 61.3239Z" fill="#F2F6FB"/>
<path d="M139.098 80.946H160.296C161.872 80.946 163.15 82.2326 163.15 83.8197V85.2605C163.15 86.8476 161.872 88.1342 160.296 88.1342H139.098C137.522 88.1342 136.244 86.8476 136.244 85.2605V83.8197C136.244 82.2326 137.522 80.946 139.098 80.946ZM134.614 92.6269H164.78C166.357 92.6269 167.635 93.9135 167.635 95.5006V96.9414C167.635 98.5285 166.357 99.8151 164.78 99.8151H134.614C133.037 99.8151 131.759 98.5285 131.759 96.9414V95.5006C131.759 93.9135 133.037 92.6269 134.614 92.6269Z" fill="#E1E5F0"/>
<path d="M0 7.62493C0 3.4138 3.39284 0 7.56937 0H184.39C188.571 0 191.96 3.41411 191.96 7.62493V16.7712H0V7.62493Z" fill="#D8DEED"/>
<path d="M11.1693 12.1972C13.1558 12.1972 14.7661 10.576 14.7661 8.57615C14.7661 6.57631 13.1558 4.95511 11.1693 4.95511C9.18276 4.95511 7.57239 6.57631 7.57239 8.57615C7.57239 10.576 9.18276 12.1972 11.1693 12.1972Z" fill="#FF5645"/>
<path d="M22.9064 12.1972C24.8929 12.1972 26.5033 10.576 26.5033 8.57615C26.5033 6.57631 24.8929 4.95511 22.9064 4.95511C20.9199 4.95511 19.3096 6.57631 19.3096 8.57615C19.3096 10.576 20.9199 12.1972 22.9064 12.1972Z" fill="#FFCB3D"/>
<path d="M35.0222 12.1972C37.0087 12.1972 38.6191 10.576 38.6191 8.57615C38.6191 6.57631 37.0087 4.95511 35.0222 4.95511C33.0357 4.95511 31.4254 6.57631 31.4254 8.57615C31.4254 10.576 33.0357 12.1972 35.0222 12.1972Z" fill="#3ABF7C"/>
</g>
<defs>
<clipPath id="clip0_87_1571">
<rect width="259.477" height="148.272" fill="white" transform="translate(115.176 95.3179)"/>
</clipPath>
<clipPath id="clip1_87_1571">
<rect width="254.181" height="366.709" fill="white" transform="translate(222.408 131.062)"/>
</clipPath>
<clipPath id="clip2_87_1571">
<rect width="254.181" height="366.709" fill="white" transform="translate(19.8579 131.062)"/>
</clipPath>
<clipPath id="clip3_87_1571">
<rect width="176.073" height="136.358" fill="white" transform="translate(285.954 11.9147)"/>
</clipPath>
<clipPath id="clip4_87_1571">
<rect width="191.96" height="148.272" fill="white"/>
</clipPath>
</defs>
</svg>
