<svg width="507" height="378" viewBox="0 0 507 378" fill="none" xmlns="http://www.w3.org/2000/svg">
<path d="M317.529 298.638H346.533C347.413 298.638 348.183 297.908 348.183 297.031V296.848C348.183 295.971 347.413 295.24 346.46 295.24H319.583C303.303 295.24 287.023 295.24 270.78 295.24H245.846C244.966 295.24 244.196 295.971 244.196 296.848V297.031C244.196 297.908 244.93 298.638 245.846 298.638H281.23L271.476 316.469C264.546 329.184 257.616 341.863 250.65 354.579L239.173 375.552C238.77 376.283 239.1 377.233 239.87 377.671L240.016 377.744C240.786 378.146 241.776 377.927 242.143 377.233L285.08 298.638H313.68L356.616 377.233C356.983 377.927 357.973 378.183 358.743 377.744L358.89 377.671C359.66 377.233 359.99 376.283 359.586 375.552L348.11 354.579C341.18 341.863 334.25 329.184 327.283 316.469L317.529 298.638ZM348.073 284.32V263.075C348.073 246.872 348.073 230.707 348.073 214.541V195.234C348.073 192.207 345.611 189.754 342.573 189.754H282.733C279.695 189.754 277.233 192.207 277.233 195.234V284.383C277.233 287.409 279.695 289.863 282.733 289.863C282.735 289.863 282.737 289.863 282.739 289.863L342.579 289.8C345.614 289.797 348.073 287.344 348.073 284.32Z" fill="#D8DEED"/>
<g clip-path="url(#clip0_72_1286)">
<path d="M230.047 72H139.953C135.891 72 132.599 75.2881 132.599 79.3443V178.125C132.599 182.181 135.891 185.469 139.953 185.469H230.047C234.109 185.469 237.402 182.181 237.402 178.125V79.3443C237.402 75.2881 234.109 72 230.047 72Z" fill="#E1E5F0"/>
<path d="M148.108 146.854H221.95C223.002 146.854 223.854 147.705 223.854 148.755C223.854 149.805 223.002 150.656 221.95 150.656H148.108C147.057 150.656 146.205 149.805 146.205 148.755C146.205 147.705 147.057 146.854 148.108 146.854ZM148.108 159.211H221.95C223.002 159.211 223.854 160.063 223.854 161.112C223.854 162.162 223.002 163.014 221.95 163.014H148.108C147.057 163.014 146.205 162.162 146.205 161.112C146.205 160.063 147.057 159.211 148.108 159.211ZM158.112 153.033H211.946C212.998 153.033 213.85 153.884 213.85 154.934C213.85 155.984 212.998 156.835 211.946 156.835H158.112C157.061 156.835 156.208 155.984 156.208 154.934C156.208 153.884 157.061 153.033 158.112 153.033ZM162.876 165.39H207.183C208.234 165.39 209.086 166.241 209.086 167.291C209.086 168.341 208.234 169.192 207.183 169.192H162.876C161.825 169.192 160.972 168.341 160.972 167.291C160.972 166.241 161.825 165.39 162.876 165.39Z" fill="#F2F6FB"/>
<path d="M184.791 111.619C191.895 111.619 197.653 105.874 197.653 98.7867C197.653 91.6995 191.895 85.9541 184.791 85.9541C177.687 85.9541 171.929 91.6995 171.929 98.7867C171.929 105.874 177.687 111.619 184.791 111.619Z" fill="#474BFF"/>
<path d="M184.786 98.6583C183.489 98.6583 182.437 97.6231 182.437 96.3461C182.437 95.0691 183.489 94.0339 184.786 94.0339C186.084 94.0339 187.135 95.0691 187.135 96.3461C187.135 97.6231 186.084 98.6583 184.786 98.6583ZM184.786 99.8144C187.138 99.8144 189.044 101.691 189.044 104.005H180.528C180.528 101.691 182.435 99.8144 184.786 99.8144Z" fill="#F2F6FB"/>
<path d="M198.7 122.551H170.883C169.831 122.551 168.979 123.402 168.979 124.452C168.979 125.502 169.831 126.353 170.883 126.353H198.7C199.751 126.353 200.603 125.502 200.603 124.452C200.603 123.402 199.751 122.551 198.7 122.551Z" fill="#F2F6FB"/>
<path d="M204.216 116.372H165.367C164.315 116.372 163.463 117.223 163.463 118.273C163.463 119.323 164.315 120.174 165.367 120.174H204.216C205.267 120.174 206.119 119.323 206.119 118.273C206.119 117.223 205.267 116.372 204.216 116.372Z" fill="#F2F6FB"/>
</g>
<g clip-path="url(#clip1_72_1286)">
<path d="M208.938 376H267.384C268.303 376 269.039 375.267 269.039 374.351C269.039 373.435 268.303 372.702 267.384 372.702H208.938C208.018 372.702 207.283 373.435 207.283 374.351C207.283 375.267 208.018 376 208.938 376ZM316.524 376C317.444 376 318.179 375.366 318.179 374.605V374.098C318.179 373.337 317.407 372.702 316.524 372.702H278.823C277.903 372.702 277.168 373.337 277.168 374.098V374.605C277.168 375.366 277.94 376 278.823 376H316.524Z" fill="#011C7B"/>
<path d="M208.388 372.822C208.58 372.745 208.791 372.702 209.011 372.702H267.457C267.693 372.702 267.916 372.75 268.118 372.837C268.167 372.671 268.193 372.494 268.193 372.311L266.943 349.986L241.637 349.619C241.232 349.619 240.864 349.731 240.533 349.991C236.34 354.521 232.331 357.047 229.425 358.533C227.182 359.684 219.678 362.878 216.294 364.438C215.254 364.907 213.713 365.75 211.673 366.966C211.188 367.255 210.751 367.617 210.377 368.038C209.319 369.227 208.656 370.292 208.386 371.234C208.313 371.457 208.313 371.643 208.276 371.865C208.239 372.051 208.276 372.237 208.276 372.423V372.46C208.302 372.586 208.34 372.707 208.388 372.822ZM278.108 372.872C278.342 372.764 278.61 372.702 278.897 372.702H316.051L307.403 349.986L281.104 353.65L278.108 372.872Z" fill="#474961"/>
<path d="M269.409 285.878C270.47 286.403 271.46 286.894 272.38 287.351L272.57 290.249C272.791 294.055 273.048 297.397 273.343 300.343C273.563 302.66 276.395 328.904 277.425 338.534C277.646 340.719 279.228 342.572 281.398 343.168C284.671 344.094 286.768 344.624 295.264 344.922C295.816 344.955 296.368 344.922 296.883 344.888C305.122 344.227 309.241 343.035 310.161 342.638C311.338 342.142 311.963 341.91 312.588 341.347C314.795 339.428 314.648 336.383 314.685 335.258C314.871 328.087 315.371 308.778 315.523 292.165C315.745 292.166 315.969 292.167 316.193 292.167C318.286 292.167 320.3 291.288 322.156 289.749C324.525 287.77 332.855 281.227 333.371 267.46C333.731 257.882 332.056 250.607 328.349 245.634C328.349 245.598 323.733 238.343 320.93 238.343H279.634C276.765 238.44 263.952 238.771 241.195 239.335L241.209 239.423C241.082 239.42 240.955 239.417 240.828 239.414C231.522 239.244 223.982 246.635 224.202 255.661C224.202 255.729 224.202 255.763 224.202 255.831C224.791 283.828 231.669 323.712 232.147 337.2C232.184 337.711 232.331 338.834 233.103 340.027C235.494 343.671 241.085 342.854 254.143 343.16C265.251 343.433 269.738 344.25 272.018 341.253C273.269 339.618 273.232 337.745 273.195 336.893C272.286 319.805 270.962 302.556 269.409 285.878Z" fill="#474BFF"/>
<path opacity="0.176986" d="M269.488 285.807C270.549 286.333 271.539 286.824 272.459 287.28L270.773 261.609C270.736 260.12 270.552 251.118 277.871 245.392C283.205 241.256 289.678 240.991 293.982 240.825C300.602 240.561 305.752 242.281 306.745 242.612C307.996 243.043 308.621 243.274 309.246 243.572C316.382 247.014 315.83 263.561 315.756 266.573C315.683 270.379 315.646 276.303 315.646 283.187C315.646 285.987 315.63 288.975 315.602 292.056C315.798 292.056 315.995 292.057 316.193 292.057C318.286 292.057 320.3 291.178 322.156 289.639C324.525 287.661 332.855 281.117 333.371 267.35C333.731 257.773 332.056 250.497 328.349 245.524C328.349 245.488 323.733 238.233 320.93 238.233H279.634C276.839 238.328 264.294 238.704 242 239.359C244.718 239.419 247.413 239.479 250.138 239.539C258.414 239.744 265.292 245.84 266.175 253.81C267.343 264.089 268.465 274.825 269.488 285.807Z" fill="#444444"/>
<path d="M269.245 196.026C263.838 191.995 249.861 181.04 249.861 181.04C245.3 185.144 256.261 192.508 256.261 192.508" fill="#482D1F"/>
<path d="M244.29 179.483C247.033 174.918 246.247 168.912 242.128 165.217C237.448 161.02 230.239 161.396 226.025 166.058C221.811 170.72 222.189 177.902 226.869 182.099C230.891 185.707 236.781 185.936 241.032 182.97L254.096 194.688C254.398 194.959 254.863 194.934 255.135 194.634L257.35 192.183C257.622 191.882 257.598 191.419 257.296 191.148L244.29 179.483ZM240.239 178.807C237.384 181.965 232.5 182.22 229.33 179.377C226.16 176.533 225.904 171.668 228.758 168.51C231.613 165.352 236.497 165.097 239.667 167.94C242.837 170.784 243.093 175.649 240.239 178.807Z" fill="#474961"/>
<path d="M277.306 184.008C276.754 185.449 276.307 186.928 275.965 188.445C273.931 197.47 270.605 202.784 272.895 207.104C274.247 209.653 276.844 210.417 278.858 210.632L280.242 227.854C280.79 232.517 281.157 235.112 281.341 235.637C281.307 239.948 286.743 238.851 296.864 238.851C308.641 238.851 324.35 240.431 325.287 236.089C326.131 232.177 325.928 223.97 324.68 211.47C328.772 210.403 331.783 208.559 332.55 207.067C334.71 202.922 332.232 196.223 329.469 188.705C326.141 179.693 324.335 175.26 320.262 171.597C316.889 168.571 313.204 167.526 310.099 168.11C307.592 167.105 304.839 166.66 301.995 166.91L293.933 167.618C285.346 168.309 278.694 175.465 277.306 184.008Z" fill="#011C7B"/>
<path opacity="0.176986" d="M277.053 184.543C276.58 185.839 276.19 187.165 275.884 188.523C273.849 197.547 270.524 202.862 272.814 207.182C274.15 209.699 276.7 210.476 278.703 210.701L278.615 209.607L278.59 209.241L276.992 189.629L276.946 188.971C276.82 187.475 276.861 185.991 277.053 184.543Z" fill="#444444"/>
<path d="M305.467 167.063C304.83 164.935 303.915 161.417 302.72 156.51L302.615 154.446C302.688 154.042 302.756 154.029 303.124 153.92C304.081 153.663 304.595 153.045 305.257 152.312C306.471 150.919 306.802 148.868 306.213 146.999C305.478 145.204 303.565 143.848 301.799 143.994C301.137 144.068 300.512 144.324 299.924 144.691L299.887 144.727C299.703 144.91 299.445 144.947 299.188 144.984C298.563 144.984 298.048 144.544 298.011 143.921L297.68 134.358C297.68 133.735 297.202 133.296 296.576 133.296C295.216 133.296 293.891 133.222 292.531 132.929C292.347 132.929 292.199 132.892 292.052 132.892C290.728 132.746 283.629 132.306 279.804 137.546C279.473 138.059 279.142 138.572 278.885 139.085C278.222 140.404 277.928 141.869 278.039 143.408L278.443 150.077C278.517 150.736 278.59 151.396 278.737 152.092C280.503 160.336 284.255 166.052 287.418 166.235C289.036 166.272 290.655 166.089 292.236 165.612C292.433 165.514 292.308 165.591 294.519 164.701L294.97 167.125C290.578 167.838 288.135 169.23 287.867 169.366C288.649 170.226 288.758 170.516 289.434 171.06C296.989 177.142 309.253 169.134 310.8 168.108C308.914 167.624 307.135 167.286 305.467 167.063ZM273.201 217.551L272.611 221.762L243.405 227.253C242.543 227.104 241.709 227.023 240.905 226.999C238.14 226.885 235.759 227.419 234.145 227.84C230.113 227.649 226.118 227.419 222.124 227.229C218.859 226.465 211.562 225.319 211.331 229.902C211.331 229.902 214.481 230.742 218.744 231.849C219.741 232.108 220.8 232.383 221.895 232.667C227.549 234.611 234.946 238.621 239.206 239.981L282.842 238.464C282.183 237.658 281.692 236.745 281.399 235.715C281.215 235.189 280.848 232.595 280.3 227.932L279.772 221.364C287.742 225.877 295.143 229.654 301.975 232.694C306.115 234.536 311.176 235.981 315.237 237.362C324.699 239.281 326.486 235.887 327.567 234.774C328.824 233.478 333.013 229.799 331.126 208.677C327.698 211.244 319.507 213.743 311.333 211.53C309.22 210.958 307.332 210.417 305.669 209.909L305.802 211.183L262.111 192.915C262.006 192.834 261.892 192.762 261.769 192.701L249.153 186.729C248.197 186.289 247.02 186.692 246.542 187.645L246.1 188.488C245.652 189.415 246.012 190.471 246.846 190.992C245.958 190.806 245.078 191.223 244.703 192.064L244.261 192.907C243.885 193.684 244.078 194.552 244.641 195.119C244.16 195.264 243.729 195.59 243.465 196.071L242.98 196.889C242.45 197.852 242.831 199.01 243.761 199.535L250.348 203.085C258.394 208.463 266.012 213.285 273.201 217.551ZM241.457 342.958V349.619L266.943 349.986L266.786 343.408C263.966 343.592 259.965 343.3 254.15 343.158C248.737 343.031 244.608 343.097 241.457 342.958ZM281.825 343.284L281.104 353.65L307.402 349.986L306.379 343.641C304.2 344.077 301.077 344.55 296.89 344.886C296.375 344.919 295.823 344.952 295.272 344.919C287.144 344.634 284.873 344.137 281.825 343.284Z" fill="#BF865F"/>
<path d="M303.726 160.456C304.152 162.343 304.529 163.906 304.791 164.699C305.372 164.699 305.956 164.699 306.542 164.699C307.421 164.699 310.599 164.366 313.567 164.186C313.567 164.186 313.788 164.186 313.972 164.149C314.928 164.002 315.848 163.856 316.767 163.379C316.767 163.379 317.061 163.27 317.319 163.05C322.505 158.799 323.645 152.717 321.438 149.31C319.857 146.928 316.767 146.012 316.326 145.865C315.737 145.682 315.149 145.609 314.634 145.572C314.433 144.972 314.232 144.341 314.031 143.707C313.978 141.568 313.5 138.726 311.618 136.376C310.845 135.386 309.815 134.654 308.712 134.104C305.769 132.638 303.526 133.371 297.714 133.225C296.537 133.225 292.475 132.709 292.327 132.709C286.335 132.331 282.146 133.981 279.758 137.658C281.528 137.389 282.965 137.389 284.068 137.658C291.204 139.417 293.3 151.728 296.574 151.215C296.605 151.211 296.638 151.206 296.673 151.198L296.648 151.178L298.229 146.855C298.597 145.975 299.222 145.279 299.958 144.693C300.546 144.327 301.172 144.07 301.834 143.997C303.599 143.85 305.512 145.206 306.248 147.001C306.367 147.309 306.457 147.623 306.516 147.939C306.721 149.495 306.318 151.069 305.328 152.204C305.273 152.266 305.216 152.326 305.158 152.385C305.155 152.389 305.153 152.392 305.15 152.396C304.379 153.188 303.378 153.732 302.282 153.948C302.737 156.379 303.458 159.552 303.726 160.456ZM283.7 148.027C284.436 148.21 285.65 148.394 286.643 148.137C288.372 147.771 286.753 146.745 285.172 146.672C284.436 146.635 283.848 146.928 283.48 147.221C283.222 147.478 283.333 147.954 283.7 148.027ZM277.488 148.028C278.243 148.22 279.408 148.449 280.455 148.174C282.228 147.762 280.586 146.728 279.031 146.68C278.215 146.641 277.688 146.944 277.308 147.235C276.997 147.482 277.112 147.951 277.488 148.028Z" fill="#482D1F"/>
<path opacity="0.2" d="M273.838 217.67C273.658 217.566 273.478 217.46 273.297 217.355L272.68 221.69L243.48 227.146C242.616 226.997 241.781 226.915 240.976 226.892C238.211 226.777 235.83 227.312 234.216 227.732C230.184 227.541 226.189 227.312 222.195 227.121C218.93 226.357 211.633 225.211 211.402 229.794C211.402 229.794 214.552 230.634 218.815 231.742C219.812 232.001 220.871 232.275 221.966 232.559C227.62 234.503 235.017 238.513 239.277 239.873L282.913 238.356C282.254 237.551 281.763 236.637 281.47 235.608C281.286 235.082 280.919 232.487 280.371 227.824L279.876 221.668L279.842 221.528L279.865 221.523L279.843 221.256L273.838 217.67Z" fill="#8C2A00"/>
<path d="M194.828 216.374C194.494 217.499 195.116 218.657 196.245 218.989L246.787 234.459C247.916 234.792 249.079 234.172 249.413 233.048C249.747 231.923 249.125 230.764 247.995 230.432L197.454 214.962C196.361 214.631 195.162 215.249 194.828 216.374Z" fill="#474961"/>
<path d="M294.605 164.548L297.488 163.263L295.146 167.544L294.605 164.548Z" fill="#482D1F"/>
<path d="M280.169 152.497C280.5 152.058 280.39 151.068 280.28 150.409C280.243 149.933 279.802 149.639 279.397 149.639C279.139 149.676 278.808 149.823 278.735 150.336C278.477 151.545 279.728 153.23 280.169 152.497ZM286.238 152.534C286.606 152.094 286.459 151.068 286.349 150.445C286.312 149.969 285.871 149.676 285.466 149.676C285.208 149.713 284.877 149.859 284.804 150.372C284.546 151.581 285.76 153.267 286.238 152.534Z" fill="#482D1F"/>
<path d="M280.81 151.888L280.481 149.755C280.45 149.555 280.588 149.368 280.789 149.337C280.99 149.306 281.178 149.444 281.208 149.644L281.54 151.8L281.545 151.846L281.649 155.727C281.664 155.771 281.699 155.799 281.747 155.803C282.192 155.746 282.765 155.693 283.467 155.643C283.67 155.628 283.846 155.78 283.86 155.982C283.875 156.184 283.723 156.359 283.52 156.374C282.816 156.424 282.247 156.477 281.815 156.533L281.774 156.536C281.344 156.543 280.996 156.245 280.921 155.841L280.915 155.785L280.81 151.888Z" fill="#482D1F"/>
<path d="M283.774 159.349C284.031 159.313 284.693 159.166 284.841 158.763C284.841 158.69 284.914 158.58 284.877 158.506C284.767 158.323 283.627 158.323 283.627 158.323C282.119 158.36 281.751 158.287 281.641 158.47C281.604 158.58 281.604 158.726 281.861 159.056C282.192 159.679 283.406 159.459 283.774 159.349Z" fill="#482D1F"/>
<path d="M306.058 209.422L304.044 190.9C304.011 190.598 304.23 190.327 304.533 190.294C304.836 190.261 305.108 190.479 305.141 190.781L307.155 209.304C307.187 209.605 306.968 209.877 306.666 209.909C306.363 209.942 306.09 209.724 306.058 209.422Z" fill="#482D1F"/>
</g>
<path d="M25.0994 295.157V295.226C25.0994 296.102 25.8671 296.832 26.7444 296.832H54.3447L44.6203 314.646C37.6746 327.35 30.7656 340.017 23.8565 352.721L12.4145 373.675C12.0124 374.405 12.3414 375.354 13.1091 375.792L13.2553 375.865C14.023 376.303 15.01 376.047 15.3756 375.354L58.1825 296.832H86.6961L129.503 375.354C129.869 376.047 130.856 376.266 131.623 375.865L131.77 375.792C132.537 375.354 132.866 374.405 132.464 373.675L121.022 352.721C114.076 340.017 107.167 327.35 100.258 314.646L90.5339 296.832H127.127C128.041 296.832 128.772 296.102 128.772 295.226V295.043C128.772 294.167 128.004 293.437 127.127 293.437H102.269C86.0746 293.437 69.8438 293.437 53.613 293.437H28.327L25.2457 268.541C23.1254 251.602 21.0417 234.628 18.9215 217.653L15.4487 189.617C15.339 188.631 14.4982 187.901 13.5843 188.011L13.4015 188.047C12.5242 188.157 11.9027 189.07 12.0124 189.982L25.0629 294.97C25.0723 295.034 25.0846 295.096 25.0994 295.157Z" fill="#D8DEED"/>
<g clip-path="url(#clip2_72_1286)">
<path d="M142.217 372.703H91.1954C90.2644 372.703 89.5195 373.435 89.5195 374.351C89.5195 375.267 90.2644 376 91.1954 376H150.372H192.508C193.428 376 194.163 375.267 194.163 374.351C194.163 373.435 193.428 372.703 192.508 372.703H142.217Z" fill="#A5A6F6"/>
<path d="M193.003 372.738C193.078 372.591 193.135 372.432 193.17 372.263V372.226C193.17 372.043 193.207 371.86 193.17 371.677C193.133 371.457 193.133 371.274 193.06 371.054C192.582 369.405 191.294 368.013 190.448 367.243C190.338 367.133 190.264 367.097 190.154 367.023C188.536 366.034 186.88 365.118 185.152 364.349C181.768 362.81 174.264 359.659 172.021 358.523C169.115 357.057 165.106 354.566 160.913 350.096C160.582 349.839 160.214 349.729 159.809 349.729L134.54 349.876C133.474 349.876 132.628 350.755 132.701 351.854L132.939 360.582C131.869 360.078 130.781 359.52 129.557 358.816C127.818 357.827 125.375 356.214 122.637 353.796C121.119 352.477 119.565 351.158 118.048 349.839L95.1401 349.546L90.3557 373.015C90.6319 372.818 90.9725 372.703 91.3425 372.703H142.364H192.655C192.774 372.703 192.891 372.715 193.003 372.738Z" fill="#474961"/>
<path opacity="0.176986" d="M149.988 372.702H192.599C192.694 372.535 192.765 372.35 192.807 372.153V372.116C192.807 371.933 192.844 371.75 192.807 371.567C192.77 371.347 192.77 371.164 192.696 370.944C192.218 369.295 190.931 367.903 190.085 367.133C189.975 367.023 189.901 366.987 189.791 366.913C188.172 365.924 186.517 365.008 184.788 364.239C181.404 362.7 173.901 359.549 171.657 358.413C168.752 356.947 164.742 354.456 160.549 349.986C160.218 349.729 159.85 349.619 159.446 349.619L134.177 349.766C133.11 349.766 132.623 350.538 132.697 351.637L132.945 360.77C135.475 361.937 138.004 362.873 142.122 364.825C143.887 365.668 145.579 366.62 147.234 367.683C148.044 368.416 149.441 369.918 149.883 371.677C149.956 371.97 149.956 372.263 149.993 372.519C149.993 372.581 149.991 372.642 149.988 372.702Z" fill="#444444"/>
<path d="M137.791 354.832C137.917 354.846 138.045 354.853 138.174 354.853L162.059 354.598H163.989C165.887 354.598 167.49 353.14 167.589 350.981C167.818 346.625 168.112 340.891 168.472 334.263C169.454 317.545 169.977 312.221 170.566 299.338C170.664 297.179 170.762 295.243 170.828 293.418C171.09 284.743 171.777 276.626 173.118 266.014C173.871 260.132 174.231 256.483 174.263 253.392C174.296 250.525 173.543 247.696 172.104 245.35C171.384 244.196 170.566 243.19 169.584 242.334C167.065 240.137 163.695 238.276 161.012 238.462C154.058 238.494 147.104 238.498 140.15 238.524C138.693 238.179 137.068 238.009 135.275 238.013L131.788 238.05C131.808 238.008 117.125 237.931 87.7394 237.817C78.6365 230.699 68.5785 227.714 57.5655 228.863C53.1699 229.322 49.1871 230.571 45.6172 232.612C41.6762 234.834 38.2352 238.015 35.2941 242.153C33.4807 244.042 28.0365 252.664 29.1178 265.796C29.327 268.214 29.7803 273.6 32.7096 278.73C35.7784 284.079 39.5446 288 45.8565 290.235C51.4361 292.213 57.9572 292.91 64.7224 292.14C74.2542 290.333 85.2783 288.83 97.7947 287.633C94.4148 296.848 92.225 302.64 91.2253 305.009C89.7258 308.527 85.6551 323.713 84.1261 335.347C83.3783 341.037 83.6394 346.068 84.9094 350.44C85.6839 353.106 88.136 354.94 90.9223 354.937L122.227 354.905L136.28 354.832H137.791Z" fill="#7879F1"/>
<path opacity="0.176986" d="M139.643 238.525C142.745 239.185 145.112 240.605 146.744 242.786C150.268 247.493 149.253 252.019 149.253 254.804V254.987C149.218 258.028 148.834 261.619 148.067 267.408C146.637 277.851 145.905 285.802 145.626 294.375C145.556 296.134 145.452 298.076 145.347 300.201C144.754 312.842 144.162 318.082 143.115 334.57C142.697 341.092 142.383 346.698 142.174 351.021C142.069 353.146 140.36 354.832 138.338 354.832H137.78C137.91 354.85 138.041 354.859 138.174 354.859L162.059 354.598H163.989C165.887 354.598 167.589 353.033 167.589 350.627C167.818 346.284 168.112 340.569 168.472 333.962C169.454 317.297 169.977 311.989 170.566 299.147C170.664 296.994 170.762 295.064 170.828 293.245C171.09 284.597 171.777 276.506 173.118 265.928C173.871 260.063 174.231 256.426 174.263 253.345C174.296 250.487 173.544 247.667 172.104 245.328C171.384 244.178 170.566 243.176 169.584 242.322C167.065 240.132 163.695 238.276 161.012 238.462C153.889 238.495 146.766 238.498 139.643 238.525Z" fill="#444444"/>
<path d="M82.6118 171.021C85.8117 173.508 88.3963 177.334 88.8807 178.737C92.8971 190.374 97.7346 189.913 98.1208 192.434C98.6985 196.205 94.2665 196.664 94.2665 196.664C92.2083 196.86 90.6435 197.01 89.5721 197.113L89.3173 207.522L89.2934 207.889L88.8653 226.125L88.7693 229.685C88.7796 229.978 88.7518 230.236 88.7253 230.53C88.7001 230.861 88.6736 231.155 88.6484 231.486C88.5676 232.332 88.4121 233.144 88.183 233.958C88.0843 234.292 88.0223 234.624 87.8868 234.959C57.2787 236.023 41.8813 233.895 41.6948 228.573L42.4575 196.808L37.8154 196.652C37.8154 196.652 32.7701 196.313 33.3462 192.52C33.7312 189.984 39.2644 190.191 43.5922 178.369C44.1864 176.746 47.8186 171.847 52.1106 169.326C52.2464 169.246 52.3829 169.169 52.5199 169.094C55.4495 167.446 58.849 166.539 62.452 166.624L70.9246 166.843C75.3652 166.931 79.4117 168.482 82.6118 171.021Z" fill="#A5A6F6"/>
<path opacity="0.176986" d="M86.5949 175.048C87.8096 176.592 88.6556 178.016 88.9122 178.759C92.9286 190.396 97.7346 189.913 98.1208 192.434C98.6985 196.205 94.3192 196.652 94.3192 196.652L89.6922 197.098L89.9387 187.027L89.9523 186.367C90.0673 182.171 88.8157 178.258 86.5949 175.048Z" fill="#444444"/>
<path d="M65.6621 151.529C65.5956 151.468 65.5299 151.404 65.4651 151.337C64.3001 150.114 63.6183 148.171 64.261 146.292C64.8595 144.482 66.642 143.015 68.4094 143.09C69.4048 143.12 72.0771 143.729 72.0596 142.846L71.8656 133.5C71.854 132.912 72.314 132.409 72.907 132.398C74.2065 132.35 75.481 132.189 76.8517 131.818C77.0019 131.797 77.1521 131.776 77.3022 131.755C78.544 131.554 85.5132 130.702 89.5069 135.598C89.8708 136.003 90.1905 136.477 90.5025 137.024C91.2208 138.274 91.5868 139.707 91.5793 141.175L91.5534 147.708C91.5208 148.365 91.4882 149.022 91.3824 149.672C90.1149 157.801 86.7332 163.543 83.6644 163.884C83.2871 163.954 81.3138 164.079 78.9668 163.54C78.7529 163.482 78.9236 163.571 75.8632 162.501L75.3576 167.458C73.8972 167.078 72.3664 166.862 70.7857 166.831L64.4666 166.669L65.265 159.128L65.611 155.86L65.6621 151.529ZM88.9358 222.177L89.2454 209.034L89.2779 207.8L89.2964 207.517L89.4445 201.487L89.5596 197.123L92.5504 196.837L102.872 224.817C103.837 224.999 104.953 225.226 106.261 225.503C108.365 225.492 110.108 225.54 111.487 225.647C117.075 226.082 121.876 226.264 127.497 229.591C137.743 235.657 138.542 238.45 129.893 237.97L112.252 237.868C112.032 237.948 111.812 237.999 111.593 238.019C111.593 238.019 85.8126 237.792 34.251 237.34C32.1771 237.322 30.2295 236.345 28.9806 234.695C28.3798 233.902 27.9436 232.451 27.6719 230.341C26.8297 225.89 29.2363 219.515 33.8088 207.131C35.263 203.206 36.6402 199.636 37.9364 196.464L66.4373 197.539C64.2389 202.979 60.3606 215.92 59.2617 217.903C59.2591 217.904 59.2565 217.906 59.2539 217.907C67.4613 219.008 77.2951 220.374 88.9358 222.177Z" fill="#F2A98A"/>
<path d="M75.5904 165.215L72.1728 160.898L75.8753 162.499L75.5904 165.215Z" fill="#482D1F"/>
<path d="M72.645 145.777C72.4945 145.506 71.9178 144.555 70.8655 143.82C70.7635 143.735 69.9644 143.246 68.9691 143.216C67.2017 143.141 65.4191 144.613 64.8207 146.429C64.178 148.314 64.8232 150.261 65.9882 151.488C66.8877 152.436 67.9799 152.81 68.6481 152.971C68.6416 154.216 68.6675 155.568 68.7259 157.028C65.8733 156.842 63.3598 155.603 61.1852 153.313C60.286 152.371 57.8983 149.763 57.1545 145.596C57.069 145.066 56.8994 144.053 56.8845 142.799C51.2247 142.892 46.6475 140.374 44.9643 136.801C43.3961 133.436 44.4844 129.407 44.6392 128.837C46.1918 123.097 51.4197 123.163 51.867 123.152C51.867 123.152 59.4036 120.544 65.3609 132.552C65.3647 132.56 65.3685 132.568 65.3723 132.575C67.0801 132.442 69.1516 132.562 72.3078 132.372C73.461 132.309 75.1432 132.028 77.2089 131.728C77.3552 131.744 79.1213 131.565 79.2715 131.544C80.0176 131.544 82.518 131.309 85.7511 132.751C88.9842 134.193 90.1775 136.362 90.1294 136.453C90.037 136.628 88.3863 137.371 87.4006 137.6C84.6341 138.231 82.2314 137.869 80.7547 137.493C80.3659 138.374 79.8154 139.384 79.0821 140.376C76.959 143.322 74.2832 144.847 72.6141 145.593C72.6243 145.655 72.6346 145.716 72.645 145.777Z" fill="#482D1F"/>
<path d="M89.1483 147.356C89.1908 146.855 89.5918 146.482 90.0969 146.485C90.4061 146.464 90.6926 146.674 90.8461 147.2C91.169 148.481 89.945 150.407 89.3863 149.641C89.0423 149.166 89.1192 148.049 89.1483 147.356ZM81.0248 147.188C81.0672 146.686 81.4682 146.313 81.9733 146.316C82.2825 146.295 82.5691 146.505 82.7225 147.031C83.0455 148.312 81.8214 150.238 81.2628 149.472C80.9188 148.997 80.9957 147.88 81.0248 147.188Z" fill="#482D1F"/>
<path d="M87.2609 147.748L87.8399 151.269C87.8729 151.717 87.5604 152.153 87.1313 152.183C86.879 152.22 86.7164 152.231 86.0624 152.265C85.7699 152.28 85.5697 152.291 85.3334 152.308C85.1308 152.322 84.955 152.17 84.9408 151.968C84.9267 151.766 85.0794 151.591 85.2821 151.577C85.5237 151.56 85.7281 151.548 86.0246 151.533C86.6524 151.501 86.8051 151.49 87.0528 151.454C87.0692 151.452 87.1127 151.392 87.11 151.354L86.5349 147.866C86.5021 147.667 86.638 147.478 86.8385 147.445C87.0389 147.413 87.2281 147.548 87.2609 147.748Z" fill="#482D1F"/>
<path d="M84.9437 154.552C84.6933 154.489 84.0793 154.251 83.9813 153.856C83.9757 153.776 83.9323 153.658 83.9645 153.616C84.0903 153.406 84.5561 153.535 85.1939 153.611C86.3268 153.733 87.2708 153.667 87.2708 153.667C87.2708 153.667 87.0039 154.369 86.8431 154.581C86.4921 155.087 85.3396 154.685 84.9437 154.552Z" fill="#482D1F"/>
<path d="M75.5092 145.658C76.1661 143.779 77.8959 142.373 80.0152 142.226C82.8522 142.028 85.3129 144.159 85.5113 146.985C85.5141 147.026 85.5165 147.067 85.5184 147.108C85.5647 147.099 85.613 147.095 85.6623 147.099L86.6979 147.171C86.925 144.712 88.9131 142.708 91.4667 142.53C94.3037 142.332 96.7644 144.463 96.9628 147.289C97.1611 150.115 95.0221 152.567 92.1851 152.764C89.4389 152.956 87.0453 150.965 86.7149 148.274L85.5853 148.195C85.5409 148.192 85.4981 148.184 85.4574 148.171C85.0824 150.467 83.1641 152.291 80.7336 152.46C77.8966 152.658 75.4359 150.527 75.2375 147.701C75.2144 147.371 75.2231 147.046 75.261 146.729L72.5829 146.074C72.287 146.002 72.106 145.704 72.1787 145.409C72.2514 145.115 72.5502 144.934 72.8461 145.007L75.5092 145.658ZM87.7834 147.816C87.785 147.854 87.7871 147.891 87.7898 147.928C87.9456 150.149 89.879 151.823 92.1081 151.668C94.3372 151.513 96.0179 149.587 95.862 147.366C95.7061 145.146 93.7727 143.471 91.5437 143.627C89.4001 143.776 87.7637 145.563 87.7799 147.674C87.7861 147.714 87.788 147.756 87.7851 147.798C87.7846 147.804 87.7841 147.81 87.7834 147.816ZM80.6566 151.364C82.8857 151.208 84.5664 149.282 84.4105 147.062C84.2546 144.841 82.3213 143.167 80.0922 143.322C77.8631 143.478 76.1824 145.404 76.3383 147.624C76.4942 149.845 78.4275 151.519 80.6566 151.364Z" fill="#482D1F"/>
<path d="M55.1172 221.03C54.8497 221.176 54.5145 221.078 54.3686 220.811C54.2226 220.545 54.3211 220.211 54.5885 220.065L59.1862 217.566C59.4537 217.42 59.7889 217.518 59.9348 217.785C60.0808 218.051 59.9823 218.385 59.7149 218.531L55.1172 221.03ZM66.7993 197.931C66.6803 198.211 66.3564 198.341 66.0759 198.222C65.7954 198.104 65.6644 197.781 65.7835 197.502L70.7095 185.935C70.8285 185.656 71.1524 185.526 71.4329 185.644C71.7134 185.763 71.8443 186.085 71.7253 186.365L66.7993 197.931Z" fill="#482D1F"/>
<path opacity="0.2" d="M88.931 222.283L89.2681 207.923L89.292 207.555L89.5475 197.118L92.5405 196.83L102.841 224.885L88.931 222.283Z" fill="#8C2A00"/>
<path d="M98.3399 287.93L109.009 276.777C109.219 276.557 109.211 276.209 108.99 276C108.77 275.79 108.42 275.799 108.21 276.019L97.541 287.171C97.3308 287.391 97.3393 287.739 97.5598 287.948C97.7804 288.158 98.1297 288.149 98.3399 287.93Z" fill="#482D1F"/>
</g>
<path d="M328.6 237H34.5696C33.1504 237 32 238.343 32 240C32 241.657 33.1504 243 34.5696 243H328.6C330.019 243 331.169 241.657 331.169 240C331.169 238.343 330.019 237 328.6 237Z" fill="#D8DEED"/>
<path d="M343.753 9H221.247C218.349 9 216 11.3709 216 14.2956V106.704C216 109.629 218.349 112 221.247 112H343.753C346.651 112 349 109.629 349 106.704V14.2956C349 11.3709 346.651 9 343.753 9Z" fill="#F2F6FB"/>
<path d="M225.181 43.6287H272.192C272.917 43.6287 273.504 44.2214 273.504 44.9526V47.2901C273.504 48.0213 272.917 48.614 272.192 48.614H225.181C224.457 48.614 223.87 48.0213 223.87 47.2901V44.9526C223.87 44.2214 224.457 43.6287 225.181 43.6287ZM225.181 51.7299H278.396C279.121 51.7299 279.708 52.3226 279.708 53.0538V55.3914C279.708 56.1226 279.121 56.7153 278.396 56.7153H225.181C224.457 56.7153 223.87 56.1226 223.87 55.3914V53.0538C223.87 52.3226 224.457 51.7299 225.181 51.7299ZM225.181 67.9324H284.601C285.325 67.9324 285.912 68.5251 285.912 69.2563V71.5939C285.912 72.325 285.325 72.9178 284.601 72.9178H225.181C224.457 72.9178 223.87 72.325 223.87 71.5939V69.2563C223.87 68.5251 224.457 67.9324 225.181 67.9324ZM225.181 76.0336H265.988C266.712 76.0336 267.3 76.6264 267.3 77.3575V79.6951C267.3 80.4263 266.712 81.019 265.988 81.019H225.181C224.457 81.019 223.87 80.4263 223.87 79.6951V77.3575C223.87 76.6264 224.457 76.0336 225.181 76.0336ZM225.181 84.1349H278.396C279.121 84.1349 279.708 84.7276 279.708 85.4588V87.7964C279.708 88.5275 279.121 89.1203 278.396 89.1203H225.181C224.457 89.1203 223.87 88.5275 223.87 87.7964V85.4588C223.87 84.7276 224.457 84.1349 225.181 84.1349ZM225.181 92.2361H284.601C285.325 92.2361 285.912 92.8289 285.912 93.56V95.8976C285.912 96.6288 285.325 97.2215 284.601 97.2215H225.181C224.457 97.2215 223.87 96.6288 223.87 95.8976V93.56C223.87 92.8289 224.457 92.2361 225.181 92.2361Z" fill="#E1E5F0"/>
<path d="M284.601 35.7429H225.181C224.457 35.7429 223.87 36.3357 223.87 37.0668V39.0577C223.87 39.7888 224.457 40.3816 225.181 40.3816H284.601C285.325 40.3816 285.912 39.7888 285.912 39.0577V37.0668C285.912 36.3357 285.325 35.7429 284.601 35.7429Z" fill="#D8DEED"/>
<path d="M301.93 43.6287H342.966C343.691 43.6287 344.278 44.2214 344.278 44.9526V47.3579C344.278 48.0891 343.691 48.6818 342.966 48.6818H301.93C301.206 48.6818 300.619 48.0891 300.619 47.3579V44.9526C300.619 44.2214 301.206 43.6287 301.93 43.6287ZM301.93 51.8401H330.492C331.217 51.8401 331.804 52.4328 331.804 53.164V55.5693C331.804 56.3005 331.217 56.8932 330.492 56.8932H301.93C301.206 56.8932 300.619 56.3005 300.619 55.5693V53.164C300.619 52.4328 301.206 51.8401 301.93 51.8401ZM301.93 60.0515H336.729C337.454 60.0515 338.041 60.6442 338.041 61.3754V63.7807C338.041 64.5119 337.454 65.1046 336.729 65.1046H301.93C301.206 65.1046 300.619 64.5119 300.619 63.7807V61.3754C300.619 60.6442 301.206 60.0515 301.93 60.0515ZM301.93 68.2629H324.255C324.98 68.2629 325.567 68.8556 325.567 69.5868V71.9921C325.567 72.7233 324.98 73.316 324.255 73.316H301.93C301.206 73.316 300.619 72.7233 300.619 71.9921V69.5868C300.619 68.8556 301.206 68.2629 301.93 68.2629Z" fill="#E1E5F0"/>
<path d="M216 14.2968C216 11.3715 218.351 9 221.244 9H343.756C346.652 9 349 11.3717 349 14.2968V20.6504H216V14.2968Z" fill="#E1E5F0"/>
<path d="M143.284 0H1.71598C0.768269 0 0 0.773431 0 1.72751V110.272C0 111.227 0.768269 112 1.71598 112H143.284C144.232 112 145 111.227 145 110.272V1.72751C145 0.773431 144.232 0 143.284 0Z" fill="#F2F6FB"/>
<path d="M32.1393 57.7504C39.2483 57.7504 45.0113 51.9768 45.0113 44.8547C45.0113 37.7326 39.2483 31.959 32.1393 31.959C25.0303 31.959 19.2672 37.7326 19.2672 44.8547C19.2672 51.9768 25.0303 57.7504 32.1393 57.7504Z" fill="#D8DEED"/>
<path d="M32.1323 44.6712C30.2871 44.6712 28.7913 43.1929 28.7913 41.3693C28.7913 39.5457 30.2871 38.0674 32.1323 38.0674C33.9775 38.0674 35.4733 39.5457 35.4733 41.3693C35.4733 43.1929 33.9775 44.6712 32.1323 44.6712ZM32.1323 46.3221C35.4767 46.3221 38.1878 49.0015 38.1878 52.3068H26.0768C26.0768 49.0015 28.7879 46.3221 32.1323 46.3221Z" fill="#F2F6FB"/>
<path d="M20.746 61.144H43.5326C44.7234 61.144 45.6888 62.1159 45.6888 63.3148V64.4031C45.6888 65.602 44.7234 66.5738 43.5326 66.5738H20.746C19.5551 66.5738 18.5898 65.602 18.5898 64.4031V63.3148C18.5898 62.1159 19.5551 61.144 20.746 61.144ZM24.1334 69.9674H40.1452C41.336 69.9674 42.3014 70.9393 42.3014 72.1382V73.2265C42.3014 74.4253 41.336 75.3972 40.1452 75.3972H24.1334C22.9425 75.3972 21.9771 74.4253 21.9771 73.2265V72.1382C21.9771 70.9393 22.9425 69.9674 24.1334 69.9674Z" fill="#E1E5F0"/>
<path d="M23.3088 84.3909H40.9697C41.9456 84.3909 42.7951 84.5913 43.4942 84.9677C44.1933 85.3441 44.7419 85.8965 45.1158 86.6002C45.4897 87.304 45.6888 88.1593 45.6888 89.1417C45.6888 90.1246 45.4897 90.9798 45.1158 91.6836C44.7419 92.3874 44.1933 92.9397 43.4942 93.3161C42.7951 93.6925 41.9456 93.893 40.9697 93.893H23.3088C22.333 93.893 21.4835 93.6925 20.7844 93.3161C20.0853 92.9397 19.5366 92.3874 19.1627 91.6836C18.7889 90.9798 18.5898 90.1246 18.5898 89.1422C18.5898 88.1593 18.7889 87.304 19.1627 86.6002C19.5366 85.8965 20.0853 85.3441 20.7844 84.9677C21.4835 84.5913 22.333 84.3909 23.3088 84.3909ZM63.6343 84.3909H81.2952C82.271 84.3909 83.1205 84.5913 83.8196 84.9677C84.5187 85.3441 85.0674 85.8965 85.4413 86.6002C85.8151 87.304 86.0143 88.1593 86.0143 89.1417C86.0143 90.1246 85.8151 90.9798 85.4413 91.6836C85.0674 92.3874 84.5187 92.9397 83.8196 93.3161C83.1205 93.6925 82.271 93.893 81.2952 93.893H63.6343C62.6584 93.893 61.8089 93.6925 61.1098 93.3161C60.4107 92.9397 59.8621 92.3874 59.4882 91.6836C59.1143 90.9798 58.9152 90.1246 58.9152 89.1422C58.9152 88.1593 59.1143 87.304 59.4882 86.6002C59.8621 85.8965 60.4107 85.3441 61.1098 84.9677C61.8089 84.5913 62.6584 84.3909 63.6343 84.3909ZM104.246 84.3909H121.907C122.882 84.3909 123.732 84.5913 124.431 84.9677C125.13 85.3441 125.679 85.8965 126.053 86.6002C126.427 87.304 126.626 88.1593 126.626 89.1417C126.626 90.1246 126.427 90.9798 126.053 91.6836C125.679 92.3874 125.13 92.9397 124.431 93.3161C123.732 93.6925 122.882 93.893 121.907 93.893H104.246C103.27 93.893 102.42 93.6925 101.721 93.3161C101.022 92.9397 100.474 92.3874 100.1 91.6836C99.7257 90.9798 99.5266 90.1246 99.5266 89.1422C99.5266 88.1593 99.7257 87.304 100.1 86.6002C100.474 85.8965 101.022 85.3441 101.721 84.9677C102.42 84.5913 103.27 84.3909 104.246 84.3909Z" fill="#474BFF"/>
<path d="M72.4647 57.7504C79.5738 57.7504 85.3368 51.9768 85.3368 44.8547C85.3368 37.7326 79.5738 31.959 72.4647 31.959C65.3557 31.959 59.5927 37.7326 59.5927 44.8547C59.5927 51.9768 65.3557 57.7504 72.4647 57.7504Z" fill="#D8DEED"/>
<path d="M72.4578 44.6712C70.6126 44.6712 69.1168 43.1929 69.1168 41.3693C69.1168 39.5457 70.6126 38.0674 72.4578 38.0674C74.3029 38.0674 75.7987 39.5457 75.7987 41.3693C75.7987 43.1929 74.3029 44.6712 72.4578 44.6712ZM72.4578 46.3221C75.8021 46.3221 78.5133 49.0015 78.5133 52.3068H66.4022C66.4022 49.0015 69.1134 46.3221 72.4578 46.3221Z" fill="#F2F6FB"/>
<path d="M61.0714 61.144H83.858C85.0489 61.144 86.0142 62.1159 86.0142 63.3148V64.4031C86.0142 65.602 85.0489 66.5738 83.858 66.5738H61.0714C59.8806 66.5738 58.9152 65.602 58.9152 64.4031V63.3148C58.9152 62.1159 59.8806 61.144 61.0714 61.144ZM61.0714 69.9674H83.858C85.0489 69.9674 86.0142 70.9393 86.0142 72.1382V73.2265C86.0142 74.4253 85.0489 75.3972 83.858 75.3972H61.0714C59.8806 75.3972 58.9152 74.4253 58.9152 73.2265V72.1382C58.9152 70.9393 59.8806 69.9674 61.0714 69.9674Z" fill="#E1E5F0"/>
<path d="M113.076 57.7504C120.185 57.7504 125.948 51.9768 125.948 44.8547C125.948 37.7326 120.185 31.959 113.076 31.959C105.967 31.959 100.204 37.7326 100.204 44.8547C100.204 51.9768 105.967 57.7504 113.076 57.7504Z" fill="#D8DEED"/>
<path d="M113.069 44.6712C111.224 44.6712 109.728 43.1929 109.728 41.3693C109.728 39.5457 111.224 38.0674 113.069 38.0674C114.914 38.0674 116.41 39.5457 116.41 41.3693C116.41 43.1929 114.914 44.6712 113.069 44.6712ZM113.069 46.3221C116.414 46.3221 119.125 49.0015 119.125 52.3068H107.014C107.014 49.0015 109.725 46.3221 113.069 46.3221Z" fill="#F2F6FB"/>
<path d="M105.07 61.144H121.082C122.273 61.144 123.238 62.1159 123.238 63.3148V64.4031C123.238 65.602 122.273 66.5738 121.082 66.5738H105.07C103.879 66.5738 102.914 65.602 102.914 64.4031V63.3148C102.914 62.1159 103.879 61.144 105.07 61.144ZM101.683 69.9674H124.469C125.66 69.9674 126.626 70.9393 126.626 72.1382V73.2265C126.626 74.4253 125.66 75.3972 124.469 75.3972H101.683C100.492 75.3972 99.5266 74.4253 99.5266 73.2265V72.1382C99.5266 70.9393 100.492 69.9674 101.683 69.9674Z" fill="#E1E5F0"/>
<path d="M0 5.75962C0 2.57867 2.56284 0 5.71765 0H139.282C142.44 0 145 2.57891 145 5.75962V12.6684H0V5.75962Z" fill="#D8DEED"/>
<path d="M8.43687 9.21336C9.93741 9.21336 11.1538 7.98876 11.1538 6.47814C11.1538 4.96752 9.93741 3.74292 8.43687 3.74292C6.93634 3.74292 5.71991 4.96752 5.71991 6.47814C5.71991 7.98876 6.93634 9.21336 8.43687 9.21336Z" fill="#FF5645"/>
<path d="M17.3027 9.21336C18.8033 9.21336 20.0197 7.98876 20.0197 6.47814C20.0197 4.96752 18.8033 3.74292 17.3027 3.74292C15.8022 3.74292 14.5858 4.96752 14.5858 6.47814C14.5858 7.98876 15.8022 9.21336 17.3027 9.21336Z" fill="#FFCB3D"/>
<path d="M26.4546 9.21336C27.9552 9.21336 29.1716 7.98876 29.1716 6.47814C29.1716 4.96752 27.9552 3.74292 26.4546 3.74292C24.9541 3.74292 23.7377 4.96752 23.7377 6.47814C23.7377 7.98876 24.9541 9.21336 26.4546 9.21336Z" fill="#3ABF7C"/>
<defs>
<clipPath id="clip0_72_1286">
<rect width="196" height="112" fill="white" transform="translate(87 72)"/>
</clipPath>
<clipPath id="clip1_72_1286">
<rect width="192" height="277" fill="white" transform="translate(168 99)"/>
</clipPath>
<clipPath id="clip2_72_1286">
<rect width="192" height="277" fill="white" transform="translate(15 99)"/>
</clipPath>
</defs>
</svg>
