<svg width="275" height="245" viewBox="0 0 275 245" fill="none" xmlns="http://www.w3.org/2000/svg">
<path d="M94.2369 177.567H98.7995C101.152 178.294 102.636 179.836 103.251 182.192C103.866 184.549 102.382 186.809 98.7995 188.974L98.7627 188.966L98.7659 188.974H42.4046C38.8219 186.809 37.338 184.549 37.953 182.192C38.5681 179.836 40.052 178.294 42.4046 177.567H94.2369Z" fill="#5171E1"/>
<path d="M235.567 171.461H262.105C262.91 171.461 263.614 170.791 263.614 169.985V169.818C263.614 169.012 262.91 168.341 262.037 168.341H237.446C222.551 168.341 207.655 168.341 192.794 168.341H169.981C169.175 168.341 168.471 169.012 168.471 169.818V169.985C168.471 170.791 169.142 171.461 169.981 171.461H202.355L193.431 187.833C187.09 199.508 180.75 211.149 174.375 222.824L163.875 242.081C163.506 242.752 163.808 243.624 164.512 244.027L164.646 244.094C165.351 244.463 166.257 244.262 166.592 243.624L205.877 171.461H232.045L271.33 243.624C271.666 244.262 272.572 244.496 273.276 244.094L273.41 244.027C274.115 243.624 274.417 242.752 274.048 242.081L263.547 222.824C257.206 211.149 250.866 199.508 244.492 187.833L235.567 171.461ZM263.514 158.315V138.808C263.514 123.932 263.514 109.089 263.514 94.2462V76.5196C263.514 73.7403 261.261 71.4873 258.481 71.4873H203.73C200.951 71.4873 198.698 73.7403 198.698 76.5196V158.372C198.698 161.152 200.951 163.405 203.73 163.405C203.732 163.405 203.734 163.405 203.736 163.405L258.487 163.347C261.264 163.344 263.514 161.092 263.514 158.315Z" fill="#D8DEED"/>
<g clip-path="url(#clip0_617_4212)">
<path d="M100.646 149.57C103.058 150.768 103.881 151.954 104.009 152.992C104.198 154.737 103.79 156.14 102.817 158.446C100.935 163.059 99.3351 167.735 98.0489 172.535C97.6722 172.454 97.2964 172.368 96.9216 172.279C97.7076 175.275 97.68 177.567 97.68 177.567C62.4316 177.567 45.1014 177.567 45.6893 177.567C46.5711 177.567 52.9452 160.308 75.4375 158.553C76.0837 158.502 76.7111 158.47 77.3203 158.454C77.4579 157.882 77.6942 157.365 78.1232 156.584C77.1808 154.274 76.4552 148.86 76.209 146.605C76.209 146.513 76.2406 146.42 76.2723 146.327C76.3988 146.08 76.7467 145.957 77.0313 146.08L84.1512 149.57C85.3671 149.125 86.6533 148.721 88.01 148.316C89.2948 147.923 90.5796 147.589 91.7878 147.281L94.3367 140.658C94.4308 140.405 94.7442 140.246 94.9949 140.373C95.089 140.405 95.1516 140.468 95.2143 140.563C96.5335 142.425 99.7746 147.17 100.646 149.57Z" fill="#FFCB3D"/>
<path d="M44.338 175.441C44.0726 173.762 44.7806 172.74 46.4621 172.376C53.3971 171.992 59.5677 172.507 64.9741 173.92C70.3805 175.333 73.5292 176.567 74.4202 177.622H46.4621C45.2751 177.622 44.338 176.66 44.338 175.441ZM99.4159 164.082C100.224 163.145 102.712 159.116 102.712 159.116C102.712 159.116 99.9757 167.424 98.3275 172.578C98.4208 172.14 97.1148 175.639 96.9593 174.733V174.702C96.7416 173.671 95.902 172.921 94.8447 172.859C93.8496 172.796 92.7924 172.765 91.6729 172.765C90.2424 172.765 88.7809 172.859 87.3505 173.046L85.267 166.706C87.2883 167.736 89.5894 168.111 91.8284 167.924C92.6058 167.861 93.3521 167.705 94.0984 167.486C96.1508 166.893 97.9855 165.675 99.4159 164.082ZM91.9353 156.415C92.3766 156.91 93.0954 157.08 93.7187 156.799C94.2858 156.469 94.5865 155.83 94.4665 155.181C94.4159 154.908 94.5965 154.646 94.8698 154.595C95.1431 154.544 95.4056 154.725 95.4561 154.998C95.6561 156.08 95.1459 157.148 94.1973 157.684L94.1625 157.702C93.3192 158.096 92.3679 157.987 91.6468 157.492C91.4217 158.033 90.9729 158.495 90.3685 158.768C89.1533 159.23 87.7912 158.775 87.1784 157.702C87.0406 157.46 87.1245 157.153 87.3659 157.015C87.6072 156.877 87.9146 156.961 88.0524 157.203C88.4147 157.837 89.2505 158.116 89.9821 157.839C90.5361 157.588 90.8528 157.075 90.7957 156.572C90.794 156.569 90.7922 156.566 90.7906 156.563C90.6449 156.309 90.6158 155.993 90.6449 155.708C90.674 155.486 90.7906 155.296 90.9362 155.201C91.2275 154.98 91.6645 155.106 91.8393 155.423C91.9936 155.728 92.006 156.098 91.9353 156.415ZM83.4368 156.429C83.7904 157.094 83.4662 158.044 83.1126 158.107C82.8473 158.139 82.5232 157.791 82.4053 157.569C82.2579 157.316 82.2284 156.999 82.2579 156.714C82.2874 156.493 82.4053 156.303 82.5526 156.208C82.8473 155.986 83.2599 156.113 83.4368 156.429ZM98.5452 151.062C98.8725 151.726 98.5749 152.613 98.2178 152.739C97.95 152.771 97.6226 152.423 97.5036 152.201C97.3548 151.948 97.325 151.631 97.3548 151.347C97.3846 151.125 97.5036 150.935 97.6524 150.84C97.95 150.618 98.3666 150.745 98.5452 151.062Z" fill="#DE6903"/>
</g>
<path d="M77.2532 110.136L80.4794 97.1182H56.261C53.7449 97.1182 51.6645 95.2059 51.6645 92.8911V56.0214C51.6313 53.673 53.6778 51.7607 56.2274 51.7607H129.933C132.449 51.7607 134.529 53.673 134.529 55.9878V92.8911C134.529 95.2059 132.449 97.1182 129.933 97.1182H100.419L99.0871 110.136H107.825C109.167 110.136 110.207 111.209 110.207 112.518C110.207 113.86 109.134 114.9 107.825 114.9H70.4188C69.0769 114.9 68.0369 113.826 68.0369 112.518C67.9698 111.209 69.0769 110.136 70.4188 110.136H77.2532Z" fill="#474961"/>
<path fill-rule="evenodd" clip-rule="evenodd" d="M101.419 87.6304L101.518 110.169H99.1128L101.419 87.6304Z" fill="white"/>
<g clip-path="url(#clip1_617_4212)">
<path d="M136.786 110.379C140.435 106.814 147.884 104.02 160.193 111.062C162.07 112.101 161.385 115.367 159.304 115.362L137.859 115.217C136.247 115.228 135.569 111.579 136.786 110.379Z" fill="#474961"/>
</g>
<path d="M36.9033 188.98C36.9587 188.976 37.0147 188.974 37.0711 188.974H103.832C105.129 188.974 106.181 190.025 106.181 191.322C106.181 192.619 105.129 193.671 103.832 193.671H37.0711C37.0147 193.671 36.9587 193.669 36.9033 193.665V240.135C36.9033 241.432 35.8519 242.484 34.5549 242.484C33.258 242.484 32.2065 241.432 32.2065 240.135L32.2065 117.684C32.2065 116.554 33.0048 115.61 34.0682 115.386C34.369 115.246 34.7044 115.167 35.0582 115.167H234.671C235.968 115.167 237.019 116.219 237.019 117.516C237.019 118.813 235.968 119.864 234.671 119.864H36.9033V188.98Z" fill="#D8DEED"/>
<g clip-path="url(#clip2_617_4212)">
<path d="M203.151 239.119L185.861 239.119C185.066 239.119 184.422 239.764 184.422 240.56C184.422 241.355 185.066 242 185.861 242L203.777 242C204.104 242 204.405 241.891 204.647 241.708L204.652 241.709L236.489 217.837C237.073 217.399 237.216 216.537 236.746 215.984L236.652 215.823C236.371 215.466 235.926 215.266 235.478 215.29C235.222 215.285 234.996 215.378 234.77 215.534L203.151 239.119ZM120.277 239.119C119.482 239.119 118.837 239.764 118.837 240.56C118.837 241.355 119.482 242 120.277 242L171.465 242C172.26 242 172.905 241.355 172.905 240.56C172.905 239.764 172.26 239.119 171.465 239.119L120.277 239.119Z" fill="#C7D1F5"/>
<path d="M119.823 239.391C119.973 239.338 120.135 239.309 120.303 239.309L171.491 239.309C171.632 239.309 171.768 239.329 171.896 239.367L172.276 219.192L148.217 219.192C145.261 221.125 143.338 222.522 142.449 223.381C141.114 224.671 139.686 225.862 138.132 226.892C134.377 229.355 132.426 229.321 126.715 232.007C125.167 232.716 123.681 233.522 122.226 234.426C120.77 235.329 120.272 236.344 119.862 237.874C119.793 238.129 119.789 238.385 119.753 238.608C119.747 238.952 119.773 239.202 119.823 239.391ZM235.454 215.48L223.928 199.081L204.416 213.371L203.807 215.281C201.431 223.094 200.143 227.213 199.943 227.636C199.704 228.131 199.457 228.589 199.197 229.034C197.446 229.712 195.458 230.37 192.415 231.827C190.867 232.536 189.381 233.342 187.925 234.245C186.47 235.148 185.972 236.164 185.561 237.694C185.493 237.949 185.488 238.205 185.452 238.428C185.447 238.755 185.496 239.061 185.579 239.342C185.679 239.32 185.782 239.309 185.888 239.309L203.178 239.309L234.796 215.723C235.008 215.577 235.218 215.487 235.454 215.48Z" fill="#474961"/>
<path d="M172.502 192.411C178.709 194.988 186.461 193.187 195.759 187.006C212.276 176.025 210.729 171.965 209.289 169.885C209.289 169.853 209.032 169.472 209.032 169.44C209.544 169.44 208.96 169.024 212.607 168.992C216.254 168.96 235.898 168.544 243.416 157.692C246.415 153.363 246.647 148.569 246.871 146.424C247.703 138.08 244.513 130.193 237.303 122.764C185.093 122.81 158.945 122.811 158.86 122.769C158.732 122.705 148.753 122.444 142.301 126.975C136.112 131.322 130.601 140.534 136.978 156.606L137.911 178.855C138.228 186.388 144.067 192.523 151.571 193.207C154.917 193.512 158.588 193.664 162.583 193.664C164.754 193.664 167.762 193.313 171.609 192.609C171.911 192.554 172.209 192.488 172.502 192.411Z" fill="#5171E1"/>
<path opacity="0.176986" d="M172.677 192.319C171.488 191.837 170.356 191.197 169.279 190.396C149.628 172.003 139.173 161.391 137.913 158.558C137.586 157.822 137.283 157.1 137.003 156.391L137.943 178.801C138.259 186.334 144.099 192.469 151.603 193.153C154.949 193.458 158.62 193.61 162.615 193.61C164.786 193.61 167.794 193.259 171.641 192.555C171.992 192.491 172.338 192.412 172.677 192.319H172.677Z" fill="#444444"/>
<path d="M194.521 148.088C196.1 150.477 197.762 152.798 201.798 158.323C205.848 163.866 207.516 166.194 209.11 168.607C209.305 168.902 209.224 169.299 208.929 169.494C208.634 169.689 208.237 169.608 208.042 169.313C206.464 166.924 204.801 164.603 200.765 159.078C196.715 153.535 195.048 151.207 193.454 148.794C193.259 148.499 193.34 148.102 193.635 147.907C193.929 147.712 194.326 147.793 194.521 148.088Z" fill="#482D1F"/>
<path d="M237.123 78.9448C236.725 77.9126 236.169 76.8215 235.455 75.6712C231.964 69.1694 229.358 66.7041 226.089 65.6212C222.87 64.5547 219.225 64.0215 215.154 64.0215C205.847 64.0215 199.314 72.6505 199.615 82.4082L203.031 123.207C218.021 124.215 230.145 124.013 239.403 122.601C248.661 121.189 252.32 118.482 250.38 114.479L241.226 88.0294C239.705 84.473 238.355 81.475 237.123 78.9448L237.123 78.9448Z" fill="#C7D1F5"/>
<path d="M207.605 177.513C205.504 179.888 201.88 182.936 195.853 186.894C192.144 189.33 188.681 191.077 185.464 192.137L204.381 213.389L223.927 199.081L207.605 177.513ZM172.963 192.387C172.835 192.339 172.708 192.288 172.581 192.236C172.286 192.313 171.986 192.379 171.683 192.434C167.836 193.128 164.828 193.476 162.657 193.476C158.659 193.476 154.986 193.325 151.638 193.024C149.812 192.859 148.084 192.372 146.51 191.62L148.217 219.192H172.275L172.963 192.387ZM220.908 52.343C222.045 51.455 222.848 49.9441 222.616 48.2243C222.408 46.5663 221.338 44.7132 219.878 44.217C218.393 43.7121 216.353 44.7735 216.495 44.0177L218.181 35.9971C218.265 35.4908 217.953 34.9917 217.455 34.8765C216.325 34.6485 215.215 34.622 214.095 34.0676C213.97 34.0388 213.853 33.9788 213.728 33.95C212.697 33.5805 206.954 31.4325 202.751 34.9951C202.391 35.2734 202.041 35.6524 201.683 36.0627C200.839 37.0175 200.302 38.2075 200.076 39.4695L199.038 45.1102C198.97 45.686 198.872 46.2546 198.867 46.8449C198.648 54.0547 200.602 59.5325 203.177 60.3245C203.482 60.4277 205.158 60.8477 207.244 60.7711C207.446 60.752 207.268 60.8095 210.131 60.3539C210.666 60.2776 211.148 60.2029 211.584 60.1309L211.773 64.5513C212.797 64.3212 213.873 64.1851 214.997 64.1529C217.152 64.1529 219.196 64.2926 221.128 64.572L220.908 52.343ZM201.709 106.762C201.852 106.858 201.995 106.954 202.139 107.049C205.889 109.541 207.717 110.281 209.298 110.383C216.078 110.827 219.204 105.053 224.52 97.7326C226.228 95.3809 227.677 93.3263 228.866 91.569C228.861 91.5692 228.856 91.5695 228.851 91.5697C225.441 90.9036 221.993 88.4029 218.505 84.0679C216.75 81.8854 215.377 79.6778 214.387 77.4451C210.174 84.0391 207.945 87.4872 207.699 87.7894C201.683 84.8872 178.35 71.1727 167.444 63.2857C166.874 62.6512 162.086 58.4485 153.082 50.6778C150.569 53.5383 155.325 58.541 157.513 60.5969C158.036 61.452 154.747 65.9082 155.27 66.7633C154.937 69.7046 165.962 78.0772 169.454 81.2064C170.528 82.1627 171.165 82.7471 172.687 84.0062C180.964 90.9793 188.05 97.1217 196.773 103.351L194.614 108.956L172.4 111.252C166.335 110.092 162.059 109.619 159.574 109.833C155.323 110.199 144.613 114.065 148.112 116.554C150.444 118.213 155.547 120.316 163.42 122.86C187.092 123.316 200.296 123.445 203.033 123.25L201.709 106.762V106.762Z" fill="#F2A98A"/>
<path d="M213.814 47.976L214.238 47.1946C214.238 47.1946 214.824 46.2427 215.981 45.5972C216.085 45.5472 216.817 45.1652 217.681 45.2221C219.22 45.3092 220.635 46.7365 220.987 48.3699C221.393 50.0757 220.65 51.6844 219.544 52.6603C218.851 53.272 218.078 53.5423 217.494 53.668C218.414 54.6982 219.545 55.921 220.885 57.3364L220.982 62.8686C224.229 63.4354 226.825 62.8381 228.769 61.0768C231.923 58.2193 230.621 54.866 228.938 53.2195C228.554 52.8435 227.888 52.2436 227.064 51.5562C227.676 50.7296 228.261 49.7323 228.715 48.5492C229.113 47.3927 230.571 43.4916 228.682 39.8685C228.03 38.568 227.124 37.8002 226.738 37.481C224.611 35.7413 222.628 35.9403 217.911 34.7522C216.921 34.4906 215.463 34.121 213.76 33.5306C213.628 33.533 213.511 33.473 213.386 33.4442C212.355 33.0746 206.715 31.4761 202.735 34.9259C202.72 34.9883 202.113 35.3409 202.123 35.4417C202.123 35.4417 202.922 40.7381 212.326 41.9578C212.326 41.9578 213.001 45.3845 213.814 47.976ZM198.812 42.8441C199.387 43.0645 200.368 43.3714 201.311 43.2446C202.781 43.0991 201.533 42.0481 200.236 41.8379C199.604 41.7361 199.068 41.9494 198.733 42.14C198.467 42.3125 198.513 42.7149 198.812 42.8441ZM204.492 44.1899C205.098 44.4169 206.079 44.7238 207.053 44.6037C208.517 44.4895 207.275 43.4072 205.979 43.197C205.315 43.0885 204.779 43.3018 204.444 43.4924C204.147 43.6583 204.192 44.0607 204.492 44.1899Z" fill="#DE6903"/>
<path d="M211.652 62.7594L215.262 59.177L211.52 59.9891L211.652 62.7594Z" fill="#482D1F"/>
<path d="M200.68 45.8094C200.724 45.4225 200.496 45.0574 200.127 44.9515C199.881 44.8809 199.63 44.9422 199.415 45.3465C198.917 46.2694 199.465 47.9584 200.023 47.5192C200.437 47.2382 200.591 46.3502 200.68 45.8094ZM205.853 47.0432C205.898 46.6563 205.67 46.2912 205.301 46.1853C205.054 46.1147 204.804 46.176 204.588 46.5803C204.091 47.5032 204.638 49.1922 205.197 48.753C205.61 48.472 205.796 47.5928 205.853 47.0432Z" fill="#482D1F"/>
<path d="M202.806 53.5694C203.039 53.5534 203.611 53.4786 203.778 53.1542C203.791 53.0916 203.842 53.0043 203.824 52.935C203.739 52.7205 203.312 52.7279 202.736 52.6708C201.714 52.5517 200.921 52.2848 200.921 52.2848C200.921 52.2848 201.038 52.9642 201.161 53.1541C201.368 53.7216 202.442 53.5901 202.806 53.5694Z" fill="#482D1F"/>
<path d="M201.38 47.1641L201.391 47.1189L201.384 47.1411L201.38 47.1641ZM200.304 50.3894L200.295 50.4238C200.222 50.7656 200.388 51.1326 200.717 51.2619C200.778 51.2812 200.813 51.2911 200.847 51.3008C201.173 51.3928 201.41 51.4465 202.263 51.6279C202.436 51.6646 202.606 51.5542 202.642 51.3813C202.679 51.2084 202.569 51.0384 202.396 51.0016C201.558 50.8235 201.328 50.7713 201.02 50.6846C200.988 50.6756 200.956 50.6664 200.924 50.6569C200.931 50.6584 200.913 50.6165 200.918 50.5694L201.998 47.321L202.01 47.2759L202.34 45.4152C202.371 45.2411 202.255 45.075 202.081 45.0441C201.907 45.0132 201.741 45.1293 201.71 45.3034L201.384 47.1411L200.304 50.3894Z" fill="#482D1F"/>
<path opacity="0.2" d="M201.645 106.432C199.966 105.321 198.356 104.217 196.797 103.115L194.613 108.824L172.399 111.12C166.336 109.962 162.06 109.489 159.572 109.701C155.318 110.063 144.608 113.96 148.11 116.422C150.445 118.064 155.571 120.171 163.488 122.743C189.901 123.285 203.082 123.398 203.031 123.082C203.028 123.061 203.024 123.021 203.021 122.961C203.01 122.961 202.999 122.96 202.987 122.959L201.645 106.432Z" fill="#8C2A00"/>
<path d="M228.509 91.2402C230.454 88.8933 232.068 86.8392 233.351 85.0787C233.507 84.8644 233.807 84.8173 234.021 84.9735C234.235 85.1297 234.282 85.4301 234.126 85.6444C232.831 87.4226 231.204 89.4919 229.247 91.8532C229.078 92.0573 228.776 92.0856 228.572 91.9163C228.368 91.747 228.339 91.4443 228.509 91.2402Z" fill="#482D1F"/>
</g>
<defs>
<clipPath id="clip0_617_4212">
<rect width="148.955" height="151.303" fill="white" transform="translate(0 26.5996)"/>
</clipPath>
<clipPath id="clip1_617_4212">
<rect width="34.5548" height="27.8452" fill="white" transform="translate(131.51 87.3223)"/>
</clipPath>
<clipPath id="clip2_617_4212">
<rect width="167" height="242" fill="white" transform="translate(107)"/>
</clipPath>
</defs>
</svg>
