<svg width="19" height="19" viewBox="0 0 19 19" fill="none" xmlns="http://www.w3.org/2000/svg">
<path d="M13.377 13.5728C13.124 12.8048 12.9947 12.0014 12.994 11.1928V9.19483C13.0124 7.92882 12.5606 6.70097 11.726 5.74883C10.8943 4.79519 9.73985 4.18202 8.484 4.02683C7.79 3.95483 7.084 4.02683 6.414 4.25383C5.744 4.46883 5.134 4.82783 4.62 5.30683C4.10344 5.77348 3.69171 6.34437 3.412 6.98183C3.1309 7.61905 2.98418 8.30737 2.981 9.00383V11.2038C2.97953 12.0091 2.85026 12.8091 2.598 13.5738L2 15.3428L2.479 16.0008H5.984C5.984 16.5268 6.199 17.0408 6.57 17.4128C6.94 17.7828 7.455 17.9988 7.982 17.9988C8.508 17.9988 9.022 17.7838 9.393 17.4128C9.764 17.0418 9.98 16.5268 9.98 16.0008H13.485L13.963 15.3428L13.377 13.5728ZM8.687 16.7198C8.59499 16.8137 8.48534 16.8884 8.36435 16.9397C8.24336 16.991 8.11342 17.0179 7.982 17.0188C7.85034 17.0179 7.72017 16.9909 7.59899 16.9394C7.47782 16.888 7.36804 16.813 7.276 16.7188C7.18197 16.6269 7.10706 16.5173 7.05557 16.3963C7.00409 16.2753 6.97704 16.1453 6.976 16.0138H8.975C8.97917 16.145 8.95578 16.2757 8.90634 16.3973C8.85691 16.5189 8.78253 16.6287 8.688 16.7198H8.687ZM3.172 15.0098L3.543 13.8958C3.83231 13.028 3.98185 12.1196 3.986 11.2048V9.00383C3.986 8.44083 4.106 7.89083 4.333 7.38783C4.56 6.87383 4.883 6.41883 5.302 6.04783C5.721 5.66583 6.212 5.37783 6.738 5.21083C7.276 5.03083 7.838 4.97083 8.388 5.03083C9.39601 5.16338 10.3202 5.6616 10.985 6.43083C11.65 7.20102 12.0075 8.18945 11.989 9.20683V11.2168C11.989 12.1258 12.133 13.0348 12.432 13.9078L12.803 15.0208H3.173V15.0088L3.172 15.0098Z" fill="#979797"/>
<circle cx="16" cy="3" r="3" fill="#D51A52"/>
</svg>
