<svg width="22" height="22" viewBox="0 0 22 22" fill="none" xmlns="http://www.w3.org/2000/svg">
<path d="M10.029 8.93736C10.1561 9.06572 10.3073 9.16761 10.474 9.23715C10.6407 9.30669 10.8195 9.3425 11.0001 9.3425C11.1807 9.3425 11.3595 9.30669 11.5262 9.23715C11.6929 9.16761 11.8441 9.06572 11.9712 8.93736L14.4376 6.47095C14.6927 6.21209 14.8356 5.86327 14.8356 5.49986C14.8356 5.13645 14.6927 4.78763 14.4376 4.52877L11.9712 2.06236C11.8441 1.934 11.6929 1.83211 11.5262 1.76257C11.3595 1.69303 11.1807 1.65723 11.0001 1.65723C10.8195 1.65723 10.6407 1.69303 10.474 1.76257C10.3073 1.83211 10.1561 1.934 10.029 2.06236L7.56259 4.52877C7.30753 4.78763 7.16455 5.13645 7.16455 5.49986C7.16455 5.86327 7.30753 6.21209 7.56259 6.47095L10.029 8.93736ZM11.0001 3.03345L13.4665 5.49986L11.0001 7.96627L8.53369 5.49986L11.0001 3.03345ZM19.9376 10.0288L17.4712 7.56236C17.3441 7.434 17.1929 7.33211 17.0262 7.26257C16.8595 7.19303 16.6807 7.15723 16.5001 7.15723C16.3195 7.15723 16.1407 7.19303 15.974 7.26257C15.8073 7.33211 15.6561 7.434 15.529 7.56236L13.0626 10.0288C12.8075 10.2876 12.6645 10.6364 12.6645 10.9999C12.6645 11.3633 12.8075 11.7121 13.0626 11.971L15.529 14.4374C15.6561 14.5657 15.8073 14.6676 15.974 14.7372C16.1407 14.8067 16.3195 14.8425 16.5001 14.8425C16.6807 14.8425 16.8595 14.8067 17.0262 14.7372C17.1929 14.6676 17.3441 14.5657 17.4712 14.4374L19.9376 11.971C20.1927 11.7121 20.3356 11.3633 20.3356 10.9999C20.3356 10.6364 20.1927 10.2876 19.9376 10.0288ZM16.5001 13.4663L14.0337 10.9999L16.5001 8.53345L18.9665 10.9999L16.5001 13.4663ZM8.93759 10.0288L6.47119 7.56236C6.34413 7.434 6.19289 7.33211 6.0262 7.26257C5.85952 7.19303 5.6807 7.15723 5.50009 7.15723C5.31949 7.15723 5.14067 7.19303 4.97399 7.26257C4.8073 7.33211 4.65606 7.434 4.529 7.56236L2.06259 10.0288C1.80753 10.2876 1.66455 10.6364 1.66455 10.9999C1.66455 11.3633 1.80753 11.7121 2.06259 11.971L4.529 14.4374C4.65606 14.5657 4.8073 14.6676 4.97399 14.7372C5.14067 14.8067 5.31949 14.8425 5.50009 14.8425C5.6807 14.8425 5.85952 14.8067 6.0262 14.7372C6.19289 14.6676 6.34413 14.5657 6.47119 14.4374L8.93759 11.971C9.19266 11.7121 9.33564 11.3633 9.33564 10.9999C9.33564 10.6364 9.19266 10.2876 8.93759 10.0288ZM5.50009 13.4663L3.03369 10.9999L5.50009 8.53345L7.9665 10.9999L5.50009 13.4663ZM11.9712 13.0624C11.8441 12.934 11.6929 12.8321 11.5262 12.7626C11.3595 12.693 11.1807 12.6572 11.0001 12.6572C10.8195 12.6572 10.6407 12.693 10.474 12.7626C10.3073 12.8321 10.1561 12.934 10.029 13.0624L7.56259 15.5288C7.30753 15.7876 7.16455 16.1364 7.16455 16.4999C7.16455 16.8633 7.30753 17.2121 7.56259 17.471L10.029 19.9374C10.1561 20.0657 10.3073 20.1676 10.474 20.2372C10.6407 20.3067 10.8195 20.3425 11.0001 20.3425C11.1807 20.3425 11.3595 20.3067 11.5262 20.2372C11.6929 20.1676 11.8441 20.0657 11.9712 19.9374L14.4376 17.471C14.6927 17.2121 14.8356 16.8633 14.8356 16.4999C14.8356 16.1364 14.6927 15.7876 14.4376 15.5288L11.9712 13.0624ZM11.0001 18.9663L8.53369 16.4999L11.0001 14.0335L13.4665 16.4999L11.0001 18.9663Z" fill="black"/>
</svg>
