<svg width="31" height="31" viewBox="0 0 31 31" fill="none" xmlns="http://www.w3.org/2000/svg">
<path d="M9.30005 3.1001C8.47788 3.1001 7.68938 3.4267 7.10802 4.00807C6.52665 4.58943 6.20005 5.37793 6.20005 6.2001V17.0501H7.75005V6.2001C7.75005 5.78901 7.91335 5.39476 8.20403 5.10408C8.49471 4.8134 8.88896 4.6501 9.30005 4.6501H20.15C20.5611 4.6501 20.9554 4.8134 21.2461 5.10408C21.5367 5.39476 21.7 5.78901 21.7 6.2001V23.2501H17.05V24.8001H23.25C24.4833 24.8001 25.6661 24.3102 26.5381 23.4381C27.4101 22.5661 27.9 21.3834 27.9 20.1501V17.0501H23.25V6.2001C23.25 5.37793 22.9234 4.58943 22.3421 4.00807C21.7607 3.4267 20.9722 3.1001 20.15 3.1001H9.30005ZM26.35 20.1501C26.35 20.9723 26.0234 21.7608 25.4421 22.3421C24.8607 22.9235 24.0722 23.2501 23.25 23.2501V18.6001H26.35V20.1501ZM11.625 7.7501C11.4195 7.7501 11.2224 7.83175 11.077 7.97709C10.9317 8.12243 10.85 8.31955 10.85 8.5251C10.85 8.73064 10.9317 8.92776 11.077 9.0731C11.2224 9.21845 11.4195 9.3001 11.625 9.3001H17.825C18.0306 9.3001 18.2277 9.21845 18.3731 9.0731C18.5184 8.92776 18.6 8.73064 18.6 8.5251C18.6 8.31955 18.5184 8.12243 18.3731 7.97709C18.2277 7.83175 18.0306 7.7501 17.825 7.7501H11.625ZM10.85 11.6251C10.85 11.4196 10.9317 11.2224 11.077 11.0771C11.2224 10.9317 11.4195 10.8501 11.625 10.8501H17.825C18.0306 10.8501 18.2277 10.9317 18.3731 11.0771C18.5184 11.2224 18.6 11.4196 18.6 11.6251C18.6 11.8306 18.5184 12.0278 18.3731 12.1731C18.2277 12.3184 18.0306 12.4001 17.825 12.4001H11.625C11.4195 12.4001 11.2224 12.3184 11.077 12.1731C10.9317 12.0278 10.85 11.8306 10.85 11.6251ZM13.175 18.6001C13.7917 18.6001 14.383 18.8451 14.8191 19.2811C15.2551 19.7171 15.5 20.3085 15.5 20.9251V25.5751C15.5 26.1917 15.2551 26.7831 14.8191 27.2191C14.383 27.6551 13.7917 27.9001 13.175 27.9001H3.87505C3.25842 27.9001 2.66705 27.6551 2.23103 27.2191C1.795 26.7831 1.55005 26.1917 1.55005 25.5751V20.9251C1.55005 20.3085 1.795 19.7171 2.23103 19.2811C2.66705 18.8451 3.25842 18.6001 3.87505 18.6001H13.175ZM13.95 25.5751V24.0251C13.3334 24.0251 12.742 24.2701 12.306 24.7061C11.87 25.1421 11.625 25.7335 11.625 26.3501H13.175C13.175 26.1446 13.2567 25.9474 13.402 25.8021C13.5474 25.6567 13.7445 25.5751 13.95 25.5751ZM13.95 20.9251C13.7445 20.9251 13.5474 20.8434 13.402 20.6981C13.2567 20.5528 13.175 20.3556 13.175 20.1501H11.625C11.625 20.7667 11.87 21.3581 12.306 21.7941C12.742 22.2301 13.3334 22.4751 13.95 22.4751V20.9251ZM3.87505 20.1501C3.87505 20.3556 3.7934 20.5528 3.64806 20.6981C3.50272 20.8434 3.30559 20.9251 3.10005 20.9251V22.4751C3.71668 22.4751 4.30805 22.2301 4.74407 21.7941C5.18009 21.3581 5.42505 20.7667 5.42505 20.1501H3.87505ZM3.10005 25.5751C3.30559 25.5751 3.50272 25.6567 3.64806 25.8021C3.7934 25.9474 3.87505 26.1446 3.87505 26.3501H5.42505C5.42505 25.7335 5.18009 25.1421 4.74407 24.7061C4.30805 24.2701 3.71668 24.0251 3.10005 24.0251V25.5751ZM8.52505 20.9251C7.90842 20.9251 7.31705 21.1701 6.88103 21.6061C6.445 22.0421 6.20005 22.6335 6.20005 23.2501C6.20005 23.8667 6.445 24.4581 6.88103 24.8941C7.31705 25.3301 7.90842 25.5751 8.52505 25.5751C9.14168 25.5751 9.73305 25.3301 10.1691 24.8941C10.6051 24.4581 10.85 23.8667 10.85 23.2501C10.85 22.6335 10.6051 22.0421 10.1691 21.6061C9.73305 21.1701 9.14168 20.9251 8.52505 20.9251Z" fill="#979797"/>
</svg>
