<svg width="108" height="106" viewBox="0 0 108 106" fill="none" xmlns="http://www.w3.org/2000/svg">
<g clip-path="url(#clip0_1209_6969)">
<path d="M68.5627 23.8391H39.4614C38.7983 23.8399 38.1625 24.1051 37.6936 24.5766C37.2246 25.0481 36.9608 25.6874 36.96 26.3542V91.3871L36.6265 91.4894L29.4875 93.6876C29.1492 93.7913 28.7837 93.7558 28.4714 93.5889C28.159 93.422 27.9254 93.1373 27.8216 92.7972L6.58629 23.0527C6.48295 22.7125 6.51817 22.3449 6.68421 22.0308C6.85026 21.7167 7.13354 21.4818 7.4718 21.3776L18.473 17.9905L50.3659 8.17483L61.367 4.78778C61.5345 4.73597 61.7104 4.71787 61.8848 4.73451C62.0592 4.75114 62.2286 4.80219 62.3833 4.88474C62.5381 4.96728 62.6751 5.07969 62.7866 5.21555C62.8981 5.3514 62.9818 5.50803 63.033 5.67646L68.461 23.5037L68.5627 23.8391Z" fill="#F2F2F2"/>
<path d="M74.9131 23.5043L68.3711 2.01837C68.2622 1.66037 68.0843 1.32745 67.8475 1.03862C67.6106 0.749797 67.3195 0.510732 66.9907 0.335085C66.6619 0.159438 66.3019 0.0506506 65.9313 0.0149443C65.5607 -0.020762 65.1867 0.0173122 64.8308 0.126987L49.3638 4.88729L17.4726 14.7047L2.00554 19.4667C1.28702 19.6885 0.685402 20.1879 0.332727 20.8553C-0.0199479 21.5227 -0.094861 22.3036 0.124434 23.0264L22.4837 96.4565C22.6618 97.04 23.0213 97.5508 23.5093 97.9138C23.9973 98.2768 24.5882 98.473 25.1952 98.4736C25.4762 98.4738 25.7556 98.4314 26.024 98.3479L36.6266 95.0849L36.9601 94.981V94.6305L36.6266 94.7328L25.9256 98.0276C25.2914 98.222 24.6064 98.1555 24.0209 97.8428C23.4353 97.53 22.9971 96.9965 22.8022 96.3593L0.444682 22.9275C0.348143 22.6117 0.314497 22.2799 0.345668 21.9511C0.37684 21.6223 0.472215 21.3028 0.626339 21.0111C0.780462 20.7194 0.990305 20.4611 1.24385 20.251C1.49739 20.041 1.78965 19.8833 2.1039 19.7869L17.5709 15.0249L49.4622 5.20923L64.9292 0.44725C65.1676 0.37411 65.4154 0.336817 65.6646 0.336584C66.1994 0.337791 66.7198 0.51116 67.1495 0.831297C67.5792 1.15143 67.8957 1.60152 68.0526 2.11562L74.5646 23.5043L74.668 23.8396H75.0149L74.9131 23.5043Z" fill="#3F3D56"/>
<path d="M20.4583 21.4322C20.1369 21.4319 19.8241 21.3282 19.5656 21.136C19.3072 20.9439 19.1168 20.6735 19.0223 20.3646L16.8744 13.3102C16.8167 13.1207 16.7966 12.9217 16.8154 12.7244C16.8342 12.5271 16.8915 12.3355 16.984 12.1605C17.0765 11.9855 17.2023 11.8305 17.3544 11.7044C17.5064 11.5783 17.6817 11.4835 17.8701 11.4255L47.2098 2.3939C47.5904 2.27712 48.0015 2.31694 48.353 2.50464C48.7044 2.69233 48.9674 3.01256 49.0843 3.39504L51.2322 10.4495C51.3483 10.8322 51.3086 11.2456 51.122 11.5989C50.9353 11.9523 50.6169 12.2167 50.2365 12.3343L20.8968 21.3659C20.7547 21.4098 20.607 21.4321 20.4583 21.4322Z" fill="#6C63FF"/>
<path d="M31.71 7.53709C33.5519 7.53709 35.0452 6.03568 35.0452 4.18359C35.0452 2.33149 33.5519 0.830078 31.71 0.830078C29.868 0.830078 28.3748 2.33149 28.3748 4.18359C28.3748 6.03568 29.868 7.53709 31.71 7.53709Z" fill="#6C63FF"/>
<path d="M31.7101 6.30764C32.8765 6.30764 33.8221 5.35689 33.8221 4.18409C33.8221 3.01129 32.8765 2.06055 31.7101 2.06055C30.5437 2.06055 29.5981 3.01129 29.5981 4.18409C29.5981 5.35689 30.5437 6.30764 31.7101 6.30764Z" fill="white"/>
<path d="M100.496 97.6164H44.1308C43.755 97.616 43.3947 97.4657 43.129 97.1985C42.8633 96.9313 42.7138 96.5691 42.7134 96.1912V28.2827C42.7138 27.9048 42.8633 27.5425 43.129 27.2753C43.3947 27.0081 43.755 26.8578 44.1308 26.8574H100.496C100.872 26.8579 101.232 27.0082 101.498 27.2753C101.763 27.5425 101.913 27.9048 101.913 28.2827V96.1912C101.913 96.5691 101.763 96.9313 101.498 97.1985C101.232 97.4657 100.872 97.616 100.496 97.6164Z" fill="#E6E6E6"/>
<path d="M74.5647 23.5039H39.4616C38.7101 23.505 37.9896 23.8056 37.4582 24.34C36.9268 24.8743 36.6278 25.5987 36.6267 26.3544V94.7324L36.9602 94.6301V26.3544C36.961 25.6876 37.2248 25.0483 37.6938 24.5768C38.1627 24.1053 38.7985 23.8401 39.4616 23.8393H74.6681L74.5647 23.5039ZM105.165 23.5039H39.4616C38.7101 23.505 37.9896 23.8056 37.4582 24.34C36.9268 24.8743 36.6278 25.5987 36.6267 26.3544V103.15C36.6278 103.905 36.9268 104.63 37.4582 105.164C37.9896 105.698 38.7101 105.999 39.4616 106H105.165C105.917 105.999 106.637 105.698 107.169 105.164C107.7 104.63 107.999 103.905 108 103.15V26.3544C107.999 25.5987 107.7 24.8743 107.169 24.34C106.637 23.8056 105.917 23.505 105.165 23.5039ZM107.667 103.15C107.666 103.817 107.402 104.456 106.933 104.927C106.464 105.399 105.828 105.664 105.165 105.665H39.4616C38.7985 105.664 38.1627 105.399 37.6938 104.927C37.2248 104.456 36.961 103.817 36.9602 103.15V26.3544C36.961 25.6876 37.2248 25.0483 37.6938 24.5768C38.1627 24.1053 38.7985 23.8401 39.4616 23.8393H105.165C105.828 23.8401 106.464 24.1053 106.933 24.5768C107.402 25.0483 107.666 25.6876 107.667 26.3544V103.15Z" fill="#3F3D56"/>
<path d="M87.6552 30.8822H56.9713C56.5734 30.8818 56.1919 30.7226 55.9105 30.4397C55.6292 30.1568 55.4709 29.7732 55.4705 29.3731V21.9954C55.4709 21.5953 55.6292 21.2117 55.9105 20.9288C56.1919 20.6459 56.5734 20.4868 56.9713 20.4863H87.6552C88.0531 20.4868 88.4346 20.6459 88.716 20.9288C88.9973 21.2117 89.1556 21.5953 89.156 21.9954V29.3731C89.1556 29.7732 88.9973 30.1568 88.716 30.4397C88.4346 30.7226 88.0531 30.8818 87.6552 30.8822Z" fill="#6C63FF"/>
<path d="M72.3132 20.9883C74.1552 20.9883 75.6484 19.4868 75.6484 17.6348C75.6484 15.7827 74.1552 14.2812 72.3132 14.2812C70.4712 14.2812 68.978 15.7827 68.978 17.6348C68.978 19.4868 70.4712 20.9883 72.3132 20.9883Z" fill="#6C63FF"/>
<path d="M72.3132 19.677C73.4351 19.677 74.3446 18.7625 74.3446 17.6344C74.3446 16.5063 73.4351 15.5918 72.3132 15.5918C71.1913 15.5918 70.2817 16.5063 70.2817 17.6344C70.2817 18.7625 71.1913 19.677 72.3132 19.677Z" fill="white"/>
</g>
<defs>
<clipPath id="clip0_1209_6969">
<rect width="108" height="106" fill="white"/>
</clipPath>
</defs>
</svg>
