<svg width="20" height="20" viewBox="0 0 20 20" fill="none" xmlns="http://www.w3.org/2000/svg">
<path d="M8.4375 1.875C4.81313 1.875 1.875 4.81313 1.875 8.4375C1.875 12.0619 4.81313 15 8.4375 15C10.025 15 11.48 14.4369 12.615 13.4987L17.0581 17.9425C17.1754 18.0597 17.3344 18.1255 17.5002 18.1254C17.666 18.1254 17.825 18.0595 17.9422 17.9422C18.0594 17.8249 18.1252 17.6659 18.1251 17.5001C18.1251 17.3343 18.0592 17.1753 17.9419 17.0581L13.4987 12.6144C14.4711 11.4398 15.0021 9.96229 15 8.4375C15 4.81313 12.0619 1.875 8.4375 1.875ZM3.125 8.4375C3.125 7.02854 3.68471 5.67728 4.681 4.681C5.67728 3.68471 7.02854 3.125 8.4375 3.125C9.84646 3.125 11.1977 3.68471 12.194 4.681C13.1903 5.67728 13.75 7.02854 13.75 8.4375C13.75 9.84646 13.1903 11.1977 12.194 12.194C11.1977 13.1903 9.84646 13.75 8.4375 13.75C7.02854 13.75 5.67728 13.1903 4.681 12.194C3.68471 11.1977 3.125 9.84646 3.125 8.4375Z" fill="#979797"/>
</svg>
