<svg width="21" height="15" viewBox="0 0 21 15" fill="none" xmlns="http://www.w3.org/2000/svg">
<path d="M20.4942 1.76344C19.767 2.0625 18.9921 2.26073 18.1842 2.35698C19.0153 1.89177 19.6497 1.16073 19.9479 0.279583C19.173 0.712708 18.3174 1.01865 17.4057 1.18937C16.6699 0.454896 15.6212 0 14.4772 0C12.2577 0 10.4708 1.68896 10.4708 3.75948C10.4708 4.0574 10.4977 4.34385 10.5637 4.61656C7.23066 4.46417 4.28144 2.96656 2.30022 0.685208C1.95433 1.24781 1.75144 1.89177 1.75144 2.585C1.75144 3.88667 2.46644 5.04052 3.53222 5.70854C2.8881 5.69708 2.25622 5.52177 1.72088 5.24562C1.72088 5.25708 1.72088 5.27198 1.72088 5.28687C1.72088 7.11333 3.11055 8.63042 4.93288 8.9799C4.60655 9.06354 4.25088 9.10365 3.88177 9.10365C3.6251 9.10365 3.36599 9.0899 3.12277 9.03948C3.64222 10.5279 5.11621 11.6222 6.86888 11.6577C5.50488 12.658 3.77299 13.2607 1.8981 13.2607C1.56933 13.2607 1.25399 13.247 0.93866 13.2092C2.71455 14.2828 4.81922 14.8958 7.08888 14.8958C14.4662 14.8958 18.4995 9.16667 18.4995 4.20062C18.4995 4.03448 18.4934 3.87406 18.4849 3.71479C19.2805 3.18542 19.9491 2.52427 20.4942 1.76344Z" fill="#1E2833"/>
</svg>
