<svg width="16" height="16" viewBox="0 0 16 16" fill="none" xmlns="http://www.w3.org/2000/svg">
<path d="M1.91982 4.74682C1.59316 5.07348 1.59316 5.60015 1.91982 5.92682L7.52649 11.5335C7.58817 11.5953 7.66143 11.6443 7.74208 11.6778C7.82272 11.7112 7.90918 11.7284 7.99649 11.7284C8.0838 11.7284 8.17026 11.7112 8.25091 11.6778C8.33156 11.6443 8.40482 11.5953 8.46649 11.5335L14.0798 5.92015C14.3998 5.60015 14.3998 5.06682 14.0798 4.74682C14.0024 4.66921 13.9105 4.60764 13.8092 4.56563C13.708 4.52362 13.5994 4.50199 13.4898 4.50199C13.3802 4.50199 13.2717 4.52362 13.1704 4.56563C13.0692 4.60764 12.9772 4.66921 12.8998 4.74682L7.99982 9.64015L3.09982 4.74015C2.77316 4.42015 2.24649 4.42015 1.91982 4.74682Z" fill="#1E2833"/>
</svg>
