<svg width="21" height="21" viewBox="0 0 21 21" fill="none" xmlns="http://www.w3.org/2000/svg">
<path fill-rule="evenodd" clip-rule="evenodd" d="M3.29345 0.533203H3.21678C2.86565 0.533203 2.56358 0.533203 2.29678 0.59607C1.88376 0.694763 1.50612 0.905874 1.20571 1.20601C0.905298 1.50615 0.693846 1.8836 0.594781 2.29654C0.533447 2.56334 0.533447 2.86387 0.533447 3.21654V7.04987C0.533447 7.401 0.533447 7.70307 0.596314 7.96987C0.695007 8.38289 0.906118 8.76053 1.20626 9.06094C1.5064 9.36135 1.88385 9.57281 2.29678 9.67187C2.56358 9.7332 2.86411 9.7332 3.21678 9.7332H7.05011C7.40125 9.7332 7.70331 9.7332 7.97011 9.67034C8.38314 9.57164 8.76078 9.36053 9.06119 9.06039C9.3616 8.76025 9.57305 8.38281 9.67211 7.96987C9.73345 7.70307 9.73345 7.40254 9.73345 7.04987V3.21654C9.73345 2.8654 9.73345 2.56334 9.67058 2.29654C9.57189 1.88351 9.36078 1.50587 9.06064 1.20546C8.7605 0.905053 8.38305 0.693601 7.97011 0.594536C7.70331 0.533203 7.40278 0.533203 7.05011 0.533203H3.29345ZM2.65405 2.088C2.71998 2.07267 2.82271 2.06654 3.29345 2.06654H6.97345C7.44571 2.06654 7.54691 2.07114 7.61285 2.088C7.75059 2.12094 7.87651 2.19139 7.97665 2.29153C8.0768 2.39167 8.14724 2.5176 8.18018 2.65534C8.19551 2.71974 8.20011 2.82094 8.20011 3.2932V6.9732C8.20011 7.44547 8.19551 7.54667 8.17865 7.6126C8.14571 7.75034 8.07526 7.87627 7.97512 7.97641C7.87498 8.07655 7.74905 8.147 7.61131 8.17994C7.54845 8.19374 7.44725 8.19987 6.97345 8.19987H3.29345C2.82118 8.19987 2.71998 8.19527 2.65405 8.1784C2.51631 8.14547 2.39038 8.07502 2.29024 7.97488C2.1901 7.87473 2.11965 7.74881 2.08671 7.61107C2.07291 7.5482 2.06678 7.447 2.06678 6.9732V3.2932C2.06678 2.82094 2.07138 2.71974 2.08825 2.6538C2.12119 2.51606 2.19163 2.39014 2.29177 2.29C2.39192 2.18986 2.51784 2.11941 2.65558 2.08647L2.65405 2.088ZM14.0268 0.533203H13.9501C13.599 0.533203 13.2969 0.533203 13.0301 0.59607C12.6171 0.694763 12.2395 0.905874 11.939 1.20601C11.6386 1.50615 11.4272 1.8836 11.3281 2.29654C11.2668 2.56334 11.2668 2.86387 11.2668 3.21654V7.04987C11.2668 7.401 11.2668 7.70307 11.3296 7.96987C11.4283 8.38289 11.6395 8.76053 11.9396 9.06094C12.2397 9.36135 12.6172 9.57281 13.0301 9.67187C13.2969 9.7332 13.5974 9.7332 13.9501 9.7332H17.7834C18.1346 9.7332 18.4366 9.7332 18.7034 9.67034C19.1165 9.57164 19.4941 9.36053 19.7945 9.06039C20.0949 8.76025 20.3064 8.38281 20.4054 7.96987C20.4668 7.70307 20.4668 7.40254 20.4668 7.04987V3.21654C20.4668 2.8654 20.4668 2.56334 20.4039 2.29654C20.3052 1.88351 20.0941 1.50587 19.794 1.20546C19.4938 0.905053 19.1164 0.693601 18.7034 0.594536C18.4366 0.533203 18.1361 0.533203 17.7834 0.533203H14.0268ZM13.3874 2.088C13.4533 2.07267 13.556 2.06654 14.0268 2.06654H17.7068C18.179 2.06654 18.2802 2.07114 18.3462 2.088C18.4839 2.12094 18.6098 2.19139 18.71 2.29153C18.8101 2.39167 18.8806 2.5176 18.9135 2.65534C18.9288 2.71974 18.9334 2.82094 18.9334 3.2932V6.9732C18.9334 7.44547 18.9273 7.54667 18.912 7.6126C18.879 7.75034 18.8086 7.87627 18.7085 7.97641C18.6083 8.07655 18.4824 8.147 18.3446 8.17994C18.2802 8.19527 18.179 8.19987 17.7068 8.19987H14.0268C13.5545 8.19987 13.4533 8.19527 13.3874 8.1784C13.2496 8.14547 13.1237 8.07502 13.0236 7.97488C12.9234 7.87473 12.853 7.74881 12.82 7.61107C12.8062 7.5482 12.8001 7.447 12.8001 6.9732V3.2932C12.8001 2.82094 12.8047 2.71974 12.8216 2.6538C12.8545 2.51606 12.925 2.39014 13.0251 2.29C13.1253 2.18986 13.2512 2.11941 13.3889 2.08647L13.3874 2.088ZM3.21678 11.2665H7.05011C7.40125 11.2665 7.70331 11.2665 7.97011 11.3294C8.38314 11.4281 8.76078 11.6392 9.06119 11.9393C9.3616 12.2395 9.57305 12.6169 9.67211 13.0299C9.73345 13.2967 9.73345 13.5972 9.73345 13.9499V17.7832C9.73345 18.1343 9.73345 18.4364 9.67058 18.7032C9.57189 19.1162 9.36078 19.4939 9.06064 19.7943C8.7605 20.0947 8.38305 20.3061 7.97011 20.4052C7.70331 20.4665 7.40278 20.4665 7.05011 20.4665H3.21678C2.86565 20.4665 2.56358 20.4665 2.29678 20.4037C1.88376 20.305 1.50612 20.0939 1.20571 19.7937C0.905298 19.4936 0.693846 19.1161 0.594781 18.7032C0.533447 18.4364 0.533447 18.1359 0.533447 17.7832V13.9499C0.533447 13.5987 0.533447 13.2967 0.596314 13.0299C0.695007 12.6168 0.906118 12.2392 1.20626 11.9388C1.5064 11.6384 1.88385 11.4269 2.29678 11.3279C2.56358 11.2665 2.86411 11.2665 3.21678 11.2665ZM3.29345 12.7999C2.82118 12.7999 2.71998 12.8045 2.65405 12.8213C2.51631 12.8543 2.39038 12.9247 2.29024 13.0249C2.1901 13.125 2.11965 13.2509 2.08671 13.3887C2.07291 13.4515 2.06678 13.5527 2.06678 14.0265V17.7065C2.06678 18.1788 2.07138 18.28 2.08825 18.3459C2.12119 18.4837 2.19163 18.6096 2.29177 18.7097C2.39192 18.8099 2.51784 18.8803 2.65558 18.9133C2.71998 18.9286 2.82118 18.9332 3.29345 18.9332H6.97345C7.44571 18.9332 7.54691 18.9271 7.61285 18.9117C7.75059 18.8788 7.87651 18.8084 7.97665 18.7082C8.0768 18.6081 8.14724 18.4821 8.18018 18.3444C8.19551 18.28 8.20011 18.1788 8.20011 17.7065V14.0265C8.20011 13.5543 8.19551 13.4531 8.17865 13.3871C8.14571 13.2494 8.07526 13.1235 7.97512 13.0233C7.87498 12.9232 7.74905 12.8527 7.61131 12.8198C7.54845 12.806 7.44725 12.7999 6.97345 12.7999H3.29345ZM14.0268 11.2665H13.9501C13.599 11.2665 13.2969 11.2665 13.0301 11.3294C12.6171 11.4281 12.2395 11.6392 11.939 11.9393C11.6386 12.2395 11.4272 12.6169 11.3281 13.0299C11.2668 13.2967 11.2668 13.5972 11.2668 13.9499V17.7832C11.2668 18.1343 11.2668 18.4364 11.3296 18.7032C11.4283 19.1162 11.6395 19.4939 11.9396 19.7943C12.2397 20.0947 12.6172 20.3061 13.0301 20.4052C13.2969 20.4681 13.599 20.4681 13.9501 20.4681H17.7834C18.1346 20.4681 18.4366 20.4681 18.7034 20.4052C19.1162 20.3063 19.4935 20.095 19.7936 19.7949C20.0938 19.4948 20.305 19.1175 20.4039 18.7047C20.4668 18.4379 20.4668 18.1359 20.4668 17.7847V13.9499C20.4668 13.5987 20.4668 13.2967 20.4039 13.0299C20.3052 12.6168 20.0941 12.2392 19.794 11.9388C19.4938 11.6384 19.1164 11.4269 18.7034 11.3279C18.4366 11.2665 18.1361 11.2665 17.7834 11.2665H14.0268ZM13.3874 12.8213C13.4533 12.806 13.556 12.7999 14.0268 12.7999H17.7068C18.179 12.7999 18.2802 12.8045 18.3462 12.8213C18.4839 12.8543 18.6098 12.9247 18.71 13.0249C18.8101 13.125 18.8806 13.2509 18.9135 13.3887C18.9288 13.4531 18.9334 13.5543 18.9334 14.0265V17.7065C18.9334 18.1788 18.9273 18.28 18.912 18.3459C18.879 18.4837 18.8086 18.6096 18.7085 18.7097C18.6083 18.8099 18.4824 18.8803 18.3446 18.9133C18.2802 18.9286 18.179 18.9332 17.7068 18.9332H14.0268C13.5545 18.9332 13.4533 18.9271 13.3874 18.9117C13.2496 18.8788 13.1237 18.8084 13.0236 18.7082C12.9234 18.6081 12.853 18.4821 12.82 18.3444C12.8062 18.2815 12.8001 18.1803 12.8001 17.7065V14.0265C12.8001 13.5543 12.8047 13.4531 12.8216 13.3871C12.8545 13.2494 12.925 13.1235 13.0251 13.0233C13.1253 12.9232 13.2512 12.8527 13.3889 12.8198L13.3874 12.8213Z" fill="#C4C4C4"/>
</svg>
