<svg width="27" height="27" viewBox="0 0 27 27" fill="none" xmlns="http://www.w3.org/2000/svg">
<path d="M25.3725 17.5723C25.3803 17.3947 25.3334 17.2189 25.2381 17.0687C25.1429 16.9186 25.004 16.8012 24.84 16.7323L23.58 16.3573C23.5125 16.1773 23.445 15.9973 23.3625 15.8248L23.9475 14.7448C24.0354 14.5794 24.0675 14.3901 24.0391 14.205C24.0107 14.0199 23.9234 13.8488 23.79 13.7173L22.725 12.6598C22.5926 12.5277 22.4212 12.4418 22.2361 12.4147C22.051 12.3877 21.8622 12.4211 21.6975 12.5098L20.61 13.0798C20.4244 12.9899 20.2341 12.9098 20.04 12.8398L19.68 11.6548C19.6199 11.4831 19.507 11.3347 19.3575 11.231C19.208 11.1272 19.0295 11.0735 18.8475 11.0773H17.3475C17.1612 11.0772 16.9797 11.1369 16.8299 11.2476C16.68 11.3583 16.5696 11.5142 16.515 11.6923L16.1625 12.8473C15.9659 12.9169 15.7731 12.9971 15.585 13.0873L14.52 12.5173C14.3562 12.4304 14.1689 12.398 13.9854 12.425C13.8019 12.452 13.6319 12.5369 13.5 12.6673L12.4125 13.7173C12.2775 13.8494 12.1891 14.0218 12.1607 14.2085C12.1323 14.3952 12.1654 14.5861 12.255 14.7523L12.81 15.7498C12.7229 15.9306 12.6453 16.1159 12.5775 16.3048L11.3925 16.6573C11.2124 16.7095 11.0541 16.8191 10.9418 16.9693C10.8294 17.1195 10.7691 17.3023 10.77 17.4898V18.9898C10.7708 19.1761 10.8318 19.3572 10.944 19.5059C11.0562 19.6546 11.2136 19.763 11.3925 19.8148L12.585 20.1673C12.6531 20.3513 12.7307 20.5315 12.8175 20.7073L12.2325 21.8023C12.1447 21.9677 12.1126 22.1571 12.141 22.3422C12.1693 22.5273 12.2567 22.6983 12.39 22.8298L13.455 23.8798C13.5865 24.0132 13.7576 24.1005 13.9427 24.1289C14.1278 24.1573 14.3171 24.1252 14.4825 24.0373L15.5925 23.4523C15.765 23.5348 15.945 23.6023 16.1325 23.6698L16.5 24.8848C16.556 25.0616 16.6669 25.2158 16.8166 25.3251C16.9664 25.4344 17.1471 25.493 17.3325 25.4923H18.8325C19.0189 25.4925 19.2003 25.4328 19.3502 25.3221C19.5001 25.2114 19.6104 25.0555 19.665 24.8773L20.0175 23.6923C20.1975 23.6323 20.37 23.5573 20.5425 23.4748L21.6675 24.0673C21.8313 24.1543 22.0187 24.1867 22.2021 24.1597C22.3856 24.1327 22.5557 24.0478 22.6875 23.9173L23.7525 22.8673C23.8876 22.7353 23.976 22.5629 24.0044 22.3762C24.0328 22.1895 23.9997 21.9986 23.91 21.8323L23.3175 20.7448C23.3975 20.5748 23.47 20.4023 23.535 20.2273L24.75 19.8748C24.9302 19.8226 25.0885 19.7131 25.2008 19.5629C25.3131 19.4127 25.3734 19.2299 25.3725 19.0423V17.5723ZM24.1725 18.7948L22.59 19.2598L22.5 19.5748C22.4075 19.885 22.2818 20.1842 22.125 20.4673L21.9675 20.7523L22.7175 22.1848L21.9675 22.9348L20.4675 22.1848L20.19 22.3348C19.9037 22.4884 19.602 22.6116 19.29 22.7023L18.975 22.7923L18.5025 24.3598H17.565L17.0925 22.7998L16.7775 22.7098C16.463 22.6195 16.1588 22.4963 15.87 22.3423L15.5925 22.1923L14.1375 22.9423L13.3875 22.1923L14.1375 20.7373L13.9725 20.4523C13.822 20.1488 13.7063 19.8293 13.6275 19.4998L13.5 19.2223L12 18.7498V17.7673L13.5 17.3098L13.5975 17.0023C13.6948 16.6808 13.8282 16.3714 13.995 16.0798L14.175 15.7498L13.425 14.3623L14.175 13.6573L15.5925 14.4073L15.8775 14.2498C16.1773 14.0857 16.4942 13.9549 16.8225 13.8598L17.13 13.7698L17.6025 12.2698H18.6375L19.1025 13.7698L19.41 13.8598C19.7281 13.9568 20.0348 14.0876 20.325 14.2498L20.61 14.4073L22.05 13.6573L22.8 14.4073L22.05 15.8248L22.2075 16.1098C22.3648 16.398 22.4906 16.7022 22.5825 17.0173L22.6725 17.3323L24.2175 17.7898L24.1725 18.7948Z" fill="#979797"/>
<path d="M18.0899 15.2627C17.4993 15.2745 16.9252 15.4605 16.4399 15.7972C15.9545 16.134 15.5793 16.6065 15.3614 17.1556C15.1435 17.7048 15.0926 18.306 15.215 18.8839C15.3375 19.4619 15.6278 19.9908 16.0497 20.4044C16.4715 20.8179 17.0061 21.0977 17.5864 21.2087C18.1666 21.3197 18.7667 21.2569 19.3114 21.0282C19.8561 20.7994 20.3211 20.415 20.6482 19.923C20.9752 19.4311 21.1498 18.8535 21.1499 18.2627C21.1381 17.4604 20.81 16.6951 20.237 16.1333C19.6639 15.5716 18.8923 15.2587 18.0899 15.2627ZM18.0899 20.1077C17.7311 20.1003 17.3825 19.9872 17.0878 19.7825C16.7931 19.5778 16.5653 19.2907 16.4331 18.9571C16.3009 18.6235 16.2701 18.2583 16.3446 17.9072C16.4191 17.5562 16.5956 17.235 16.8519 16.9839C17.1082 16.7327 17.433 16.5628 17.7854 16.4955C18.1379 16.4282 18.5024 16.4664 18.8332 16.6053C19.1641 16.7443 19.4465 16.9779 19.6452 17.2767C19.8438 17.5756 19.9498 17.9264 19.9499 18.2852C19.9479 18.5275 19.8983 18.7671 19.8037 18.9902C19.7092 19.2132 19.5716 19.4155 19.3989 19.5855C19.2262 19.7554 19.0217 19.8896 18.7971 19.9805C18.5725 20.0714 18.3322 20.1172 18.0899 20.1152V20.1077Z" fill="#979797"/>
<path d="M10.8675 23.25H4.5V3.75H19.5V9.6675C19.8273 9.76356 20.1305 9.9283 20.3891 10.1507C20.6478 10.3732 20.856 10.6482 21 10.9575V3.75C21 3.35218 20.842 2.97064 20.5607 2.68934C20.2794 2.40804 19.8978 2.25 19.5 2.25H4.5C4.10218 2.25 3.72064 2.40804 3.43934 2.68934C3.15804 2.97064 3 3.35218 3 3.75V23.25C3 23.6478 3.15804 24.0294 3.43934 24.3107C3.72064 24.592 4.10218 24.75 4.5 24.75H12.1725L11.3475 23.94C11.147 23.741 10.9844 23.5072 10.8675 23.25Z" fill="#979797"/>
</svg>
