<svg width="24" height="24" viewBox="0 0 24 24" fill="none" xmlns="http://www.w3.org/2000/svg">
<path d="M21.456 10.1538C21.579 10.8128 21.646 11.5018 21.646 12.2208C21.646 17.8448 17.882 21.8438 12.197 21.8438C10.9042 21.8442 9.62393 21.5898 8.42943 21.0952C7.23492 20.6007 6.14957 19.8756 5.23539 18.9614C4.32121 18.0472 3.59612 16.9619 3.10155 15.7674C2.60699 14.5729 2.35263 13.2926 2.35303 11.9998C2.35263 10.7069 2.60699 9.42667 3.10155 8.23216C3.59612 7.03765 4.32121 5.9523 5.23539 5.03812C6.14957 4.12395 7.23492 3.39886 8.42943 2.90429C9.62393 2.40972 10.9042 2.15537 12.197 2.15576C14.855 2.15576 17.076 3.13376 18.78 4.72176L16.005 7.49676V7.48976C14.972 6.50576 13.661 6.00076 12.197 6.00076C8.94903 6.00076 6.30903 8.74476 6.30903 11.9938C6.30903 15.2418 8.94903 17.9918 12.197 17.9918C15.144 17.9918 17.15 16.3068 17.562 13.9928H12.197V10.1538H21.457H21.456Z" fill="#5171E1"/>
</svg>
