<svg width="25" height="24" viewBox="0 0 25 24" fill="none" xmlns="http://www.w3.org/2000/svg">
<path d="M22.5 20.0002V12.1741C22.5001 11.6297 22.389 11.0909 22.1735 10.5909C21.958 10.0909 21.6428 9.64007 21.247 9.26615L13.874 2.29815C13.5027 1.94708 13.011 1.75146 12.5 1.75146C11.989 1.75146 11.4973 1.94708 11.126 2.29815L3.753 9.26615C3.35722 9.64007 3.04195 10.0909 2.8265 10.5909C2.61104 11.0909 2.49994 11.6297 2.5 12.1741V20.0002C2.5 20.5306 2.71071 21.0393 3.08579 21.4144C3.46086 21.7894 3.96957 22.0002 4.5 22.0002H20.5C21.0304 22.0002 21.5391 21.7894 21.9142 21.4144C22.2893 21.0393 22.5 20.5306 22.5 20.0002Z" stroke="#5171E1" stroke-width="2" stroke-linecap="round" stroke-linejoin="round"/>
</svg>
