<svg width="270" height="52" viewBox="0 0 270 52" fill="none" xmlns="http://www.w3.org/2000/svg">
<path d="M0.92 0.799997H12.008V40H0.92V0.799997ZM38.1606 9.144C41.9312 9.144 44.9552 10.264 47.2326 12.504C49.5472 14.744 50.7046 18.1227 50.7046 22.64V40H40.0646V24.376C40.0646 20.232 38.4032 18.16 35.0806 18.16C33.2512 18.16 31.7766 18.7573 30.6566 19.952C29.5739 21.1467 29.0326 22.9387 29.0326 25.328V40H18.3926V9.648H28.5286V12.952C29.7232 11.72 31.1419 10.7867 32.7846 10.152C34.4272 9.48 36.2192 9.144 38.1606 9.144ZM209.315 24.88C209.315 24.9547 209.259 25.832 209.147 27.512H187.083C187.531 29.08 188.39 30.2933 189.659 31.152C190.966 31.9733 192.59 32.384 194.531 32.384C195.987 32.384 197.238 32.1787 198.283 31.768C199.366 31.3573 200.448 30.6853 201.531 29.752L207.131 35.576C204.182 38.8613 199.87 40.504 194.195 40.504C190.648 40.504 187.531 39.832 184.843 38.488C182.155 37.144 180.064 35.2773 178.571 32.888C177.115 30.4987 176.387 27.792 176.387 24.768C176.387 21.7813 177.096 19.112 178.515 16.76C179.971 14.3707 181.968 12.504 184.507 11.16C187.046 9.816 189.902 9.144 193.075 9.144C196.099 9.144 198.843 9.77867 201.307 11.048C203.771 12.28 205.712 14.0907 207.131 16.48C208.587 18.832 209.315 21.632 209.315 24.88ZM193.131 16.704C191.488 16.704 190.107 17.1707 188.987 18.104C187.904 19.0373 187.214 20.3067 186.915 21.912H199.347C199.048 20.3067 198.339 19.0373 197.219 18.104C196.136 17.1707 194.774 16.704 193.131 16.704ZM223.357 13.288C224.439 11.9067 225.839 10.88 227.557 10.208C229.311 9.49867 231.309 9.144 233.549 9.144V18.72C232.578 18.608 231.775 18.552 231.141 18.552C228.863 18.552 227.071 19.168 225.765 20.4C224.495 21.632 223.861 23.5173 223.861 26.056V40H213.221V9.648H223.357V13.288ZM269.845 9.648L256.741 41.232C255.21 44.9653 253.344 47.5787 251.141 49.072C248.938 50.6027 246.25 51.368 243.077 51.368C241.472 51.368 239.848 51.1067 238.205 50.584C236.6 50.0987 235.293 49.4453 234.285 48.624L237.981 41.176C238.578 41.736 239.288 42.1653 240.109 42.464C240.968 42.8 241.826 42.968 242.685 42.968C243.693 42.968 244.514 42.7627 245.149 42.352C245.821 41.9413 246.381 41.288 246.829 40.392L233.837 9.648H244.757L252.205 28.184L259.709 9.648H269.845Z" fill="#1E2833"/>
<path d="M74.8088 0.799997C78.3554 0.799997 81.4354 1.39733 84.0488 2.592C86.6621 3.74933 88.6781 5.42933 90.0968 7.632C91.5154 9.79733 92.2248 12.3547 92.2248 15.304C92.2248 18.2533 91.5154 20.8107 90.0968 22.976C88.6781 25.1413 86.6621 26.8213 84.0488 28.016C81.4354 29.1733 78.3554 29.752 74.8088 29.752H67.9768V40H56.8888V0.799997H74.8088ZM74.1368 21.016C76.4141 21.016 78.1314 20.5307 79.2888 19.56C80.4461 18.552 81.0248 17.1333 81.0248 15.304C81.0248 13.4747 80.4461 12.056 79.2888 11.048C78.1314 10.04 76.4141 9.536 74.1368 9.536H67.9768V21.016H74.1368ZM116.946 40.784C112.802 40.784 109.068 39.9067 105.746 38.152C102.46 36.3973 99.8658 33.9707 97.9618 30.872C96.0951 27.7733 95.1618 24.2827 95.1618 20.4C95.1618 16.5173 96.0951 13.0267 97.9618 9.928C99.8658 6.82933 102.46 4.40267 105.746 2.648C109.068 0.893331 112.802 0.0159974 116.946 0.0159974C121.09 0.0159974 124.804 0.893331 128.09 2.648C131.412 4.40267 134.007 6.82933 135.874 9.928C137.778 13.0267 138.73 16.5173 138.73 20.4C138.73 24.2827 137.778 27.7733 135.874 30.872C134.007 33.9707 131.412 36.3973 128.09 38.152C124.804 39.9067 121.09 40.784 116.946 40.784ZM116.946 31.6C118.924 31.6 120.716 31.1333 122.322 30.2C123.927 29.2667 125.196 27.96 126.13 26.28C127.063 24.5627 127.53 22.6027 127.53 20.4C127.53 18.1973 127.063 16.256 126.13 14.576C125.196 12.8587 123.927 11.5333 122.322 10.6C120.716 9.66667 118.924 9.2 116.946 9.2C114.967 9.2 113.175 9.66667 111.57 10.6C109.964 11.5333 108.695 12.8587 107.762 14.576C106.828 16.256 106.362 18.1973 106.362 20.4C106.362 22.6027 106.828 24.5627 107.762 26.28C108.695 27.96 109.964 29.2667 111.57 30.2C113.175 31.1333 114.967 31.6 116.946 31.6ZM157.313 40.784C154.14 40.784 151.06 40.392 148.073 39.608C145.087 38.824 142.66 37.7787 140.793 36.472L144.433 28.296C146.188 29.4533 148.223 30.3867 150.537 31.096C152.852 31.8053 155.129 32.16 157.369 32.16C161.625 32.16 163.753 31.096 163.753 28.968C163.753 27.848 163.137 27.0267 161.905 26.504C160.711 25.944 158.769 25.3653 156.081 24.768C153.132 24.1333 150.668 23.4613 148.689 22.752C146.711 22.0053 145.012 20.8293 143.593 19.224C142.175 17.6187 141.465 15.4533 141.465 12.728C141.465 10.3387 142.119 8.192 143.425 6.288C144.732 4.34666 146.673 2.816 149.249 1.696C151.863 0.575998 155.055 0.0159974 158.825 0.0159974C161.401 0.0159974 163.94 0.314665 166.441 0.911999C168.943 1.472 171.145 2.312 173.049 3.432L169.633 11.664C165.9 9.648 162.279 8.64 158.769 8.64C156.567 8.64 154.961 8.976 153.953 9.648C152.945 10.2827 152.441 11.1227 152.441 12.168C152.441 13.2133 153.039 13.9973 154.233 14.52C155.428 15.0427 157.351 15.584 160.001 16.144C162.988 16.7787 165.452 17.4693 167.393 18.216C169.372 18.9253 171.071 20.0827 172.489 21.688C173.945 23.256 174.673 25.4027 174.673 28.128C174.673 30.48 174.02 32.608 172.713 34.512C171.407 36.416 169.447 37.9467 166.833 39.104C164.22 40.224 161.047 40.784 157.313 40.784Z" fill="#5171E1"/>
</svg>
