<svg width="17" height="15" viewBox="0 0 17 15" fill="none" xmlns="http://www.w3.org/2000/svg">
<path fill-rule="evenodd" clip-rule="evenodd" d="M5.4942 0H11.4942C14.2552 0 16.4942 2.09906 16.4942 4.6875V10.3125C16.4942 12.9009 14.2552 15 11.4942 15H5.4942C2.7332 15 0.494202 12.9009 0.494202 10.3125V4.6875C0.494202 2.09906 2.7332 0 5.4942 0ZM11.4942 13.5938C13.4242 13.5938 14.9942 12.1219 14.9942 10.3125V4.6875C14.9942 2.87812 13.4242 1.40625 11.4942 1.40625H5.4942C3.5642 1.40625 1.9942 2.87812 1.9942 4.6875V10.3125C1.9942 12.1219 3.5642 13.5938 5.4942 13.5938H11.4942Z" fill="#1E2833"/>
<path fill-rule="evenodd" clip-rule="evenodd" d="M4.4942 7.5C4.4942 5.42906 6.2852 3.75 8.4942 3.75C10.7032 3.75 12.4942 5.42906 12.4942 7.5C12.4942 9.57094 10.7032 11.25 8.4942 11.25C6.2852 11.25 4.4942 9.57094 4.4942 7.5ZM5.9942 7.5C5.9942 8.79187 7.1162 9.84375 8.4942 9.84375C9.8722 9.84375 10.9942 8.79187 10.9942 7.5C10.9942 6.20719 9.8722 5.15625 8.4942 5.15625C7.1162 5.15625 5.9942 6.20719 5.9942 7.5Z" fill="#1E2833"/>
<ellipse cx="12.7942" cy="3.46893" rx="0.533" ry="0.499687" fill="#1E2833"/>
</svg>
