<svg width="25" height="25" viewBox="0 0 25 25" fill="none" xmlns="http://www.w3.org/2000/svg">
<path d="M12.4999 2.0835C10.4397 2.0835 8.42575 2.69442 6.71273 3.83902C4.99972 4.98362 3.66459 6.61048 2.87618 8.51388C2.08777 10.4173 1.88148 12.5117 2.28341 14.5324C2.68534 16.553 3.67743 18.4091 5.13423 19.8659C6.59102 21.3227 8.4471 22.3147 10.4677 22.7167C12.4884 23.1186 14.5828 22.9123 16.4862 22.1239C18.3896 21.3355 20.0165 20.0004 21.1611 18.2874C22.3057 16.5743 22.9166 14.5604 22.9166 12.5002C22.9166 11.1322 22.6472 9.77768 22.1237 8.51388C21.6002 7.25007 20.8329 6.10174 19.8656 5.13447C18.8983 4.16719 17.75 3.3999 16.4862 2.87642C15.2224 2.35293 13.8679 2.0835 12.4999 2.0835ZM12.4999 20.8335C10.8517 20.8335 9.24058 20.3448 7.87017 19.4291C6.49976 18.5134 5.43166 17.2119 4.80093 15.6892C4.1702 14.1665 4.00517 12.4909 4.32671 10.8744C4.64826 9.2579 5.44193 7.77304 6.60737 6.60761C7.7728 5.44217 9.25766 4.6485 10.8742 4.32695C12.4907 4.00541 14.1662 4.17044 15.689 4.80117C17.2117 5.4319 18.5132 6.5 19.4288 7.87041C20.3445 9.24082 20.8333 10.852 20.8333 12.5002C20.8333 14.7103 19.9553 16.8299 18.3925 18.3927C16.8297 19.9555 14.7101 20.8335 12.4999 20.8335Z" fill="#979797"/>
<path d="M12.5001 6.25007C11.5331 6.25007 10.6058 6.63418 9.92209 7.31791C9.23836 8.00164 8.85425 8.92897 8.85425 9.8959C8.85425 10.1722 8.96399 10.4371 9.15935 10.6325C9.3547 10.8278 9.61965 10.9376 9.89591 10.9376C10.1722 10.9376 10.4371 10.8278 10.6325 10.6325C10.8278 10.4371 10.9376 10.1722 10.9376 9.8959C10.9376 9.58687 11.0292 9.28478 11.2009 9.02783C11.3726 8.77087 11.6166 8.5706 11.9021 8.45234C12.1876 8.33408 12.5018 8.30314 12.8049 8.36343C13.108 8.42372 13.3864 8.57253 13.6049 8.79105C13.8235 9.00957 13.9723 9.28798 14.0326 9.59107C14.0928 9.89417 14.0619 10.2083 13.9436 10.4938C13.8254 10.7794 13.6251 11.0234 13.3682 11.1951C13.1112 11.3668 12.8091 11.4584 12.5001 11.4584C12.2238 11.4584 11.9589 11.5682 11.7635 11.7635C11.5682 11.9589 11.4584 12.2238 11.4584 12.5001V14.5834C11.4584 14.8597 11.5682 15.1246 11.7635 15.32C11.9589 15.5153 12.2238 15.6251 12.5001 15.6251C12.7763 15.6251 13.0413 15.5153 13.2367 15.32C13.432 15.1246 13.5417 14.8597 13.5417 14.5834V13.3751C14.3835 13.1292 15.1081 12.5874 15.5818 11.8495C16.0556 11.1115 16.2467 10.2272 16.1198 9.35951C15.993 8.4918 15.5567 7.69919 14.8915 7.12777C14.2263 6.55635 13.377 6.24463 12.5001 6.25007Z" fill="#979797"/>
<path d="M12.4999 18.7498C13.0752 18.7498 13.5416 18.2835 13.5416 17.7082C13.5416 17.1329 13.0752 16.6665 12.4999 16.6665C11.9246 16.6665 11.4583 17.1329 11.4583 17.7082C11.4583 18.2835 11.9246 18.7498 12.4999 18.7498Z" fill="#979797"/>
</svg>
