<svg width="36" height="36" viewBox="0 0 36 36" fill="none" xmlns="http://www.w3.org/2000/svg">
<path d="M13.965 10.0649C13.8259 10.2037 13.7156 10.3685 13.6404 10.55C13.5651 10.7314 13.5263 10.926 13.5263 11.1224C13.5263 11.3189 13.5651 11.5134 13.6404 11.6948C13.7156 11.8763 13.8259 12.0411 13.965 12.1799L19.785 17.9999L13.965 23.8199C13.6845 24.1004 13.527 24.4808 13.527 24.8774C13.527 25.274 13.6845 25.6544 13.965 25.9349C14.2455 26.2154 14.6259 26.3729 15.0225 26.3729C15.4191 26.3729 15.7995 26.2154 16.08 25.9349L22.965 19.0499C23.1041 18.9111 23.2144 18.7463 23.2897 18.5648C23.3649 18.3834 23.4037 18.1889 23.4037 17.9924C23.4037 17.796 23.3649 17.6014 23.2897 17.42C23.2144 17.2385 23.1041 17.0737 22.965 16.9349L16.08 10.0499C15.51 9.47991 14.55 9.47991 13.965 10.0649Z" fill="#1E2833"/>
</svg>
