<svg width="5" height="17" viewBox="0 0 5 17" fill="none" xmlns="http://www.w3.org/2000/svg">
<path d="M2.5 4.54688C2.02344 4.54688 1.5664 4.35756 1.22942 4.02058C0.892438 3.6836 0.703125 3.22656 0.703125 2.75C0.703125 2.27344 0.892438 1.8164 1.22942 1.47942C1.5664 1.14244 2.02344 0.953125 2.5 0.953125C2.97656 0.953125 3.4336 1.14244 3.77058 1.47942C4.10756 1.8164 4.29688 2.27344 4.29688 2.75C4.29688 3.22656 4.10756 3.6836 3.77058 4.02058C3.4336 4.35756 2.97656 4.54688 2.5 4.54688ZM2.5 10.2969C2.02344 10.2969 1.5664 10.1076 1.22942 9.77058C0.892438 9.4336 0.703125 8.97656 0.703125 8.5C0.703125 8.02344 0.892438 7.5664 1.22942 7.22942C1.5664 6.89244 2.02344 6.70312 2.5 6.70312C2.97656 6.70312 3.4336 6.89244 3.77058 7.22942C4.10756 7.5664 4.29688 8.02344 4.29688 8.5C4.29688 8.97656 4.10756 9.4336 3.77058 9.77058C3.4336 10.1076 2.97656 10.2969 2.5 10.2969ZM0.703125 14.25C0.703125 14.7266 0.892438 15.1836 1.22942 15.5206C1.5664 15.8576 2.02344 16.0469 2.5 16.0469C2.97656 16.0469 3.4336 15.8576 3.77058 15.5206C4.10756 15.1836 4.29688 14.7266 4.29688 14.25C4.29688 13.7734 4.10756 13.3164 3.77058 12.9794C3.4336 12.6424 2.97656 12.4531 2.5 12.4531C2.02344 12.4531 1.5664 12.6424 1.22942 12.9794C0.892438 13.3164 0.703125 13.7734 0.703125 14.25Z" fill="#979797"/>
</svg>
