<svg width="589" height="435" viewBox="0 0 589 435" fill="none" xmlns="http://www.w3.org/2000/svg">
<g clip-path="url(#clip0_72_1181)">
<path d="M63.2103 340.272H29.4124C28.3869 340.272 27.4896 339.419 27.4896 338.394V338.18C27.4896 337.156 28.3869 336.302 29.4978 336.302H60.8169C79.7878 336.302 98.7587 336.302 117.687 336.302H146.741C147.767 336.302 148.664 337.156 148.664 338.18V338.394C148.664 339.419 147.81 340.272 146.741 340.272H105.509L116.875 361.106C124.951 375.963 133.026 390.777 141.144 405.634L154.518 430.14C154.988 430.994 154.603 432.104 153.706 432.616L153.535 432.701C152.638 433.171 151.484 432.915 151.057 432.104L101.023 340.272H67.696L17.6624 432.104C17.2351 432.915 16.0815 433.214 15.1842 432.701L15.0133 432.616C14.116 432.104 13.7315 430.994 14.2015 430.14L27.5751 405.634C35.6506 390.777 43.726 375.963 51.8442 361.106L63.2103 340.272ZM27.6178 323.542V298.72C27.6178 279.788 27.6178 260.9 27.6178 242.011V219.453C27.6178 215.916 30.4873 213.049 34.0269 213.049H103.758C107.297 213.049 110.167 215.916 110.167 219.453V323.616C110.167 327.152 107.297 330.02 103.758 330.02C103.756 330.02 103.753 330.02 103.751 330.02L34.0202 329.946C30.4832 329.942 27.6178 327.076 27.6178 323.542Z" fill="#D8DEED"/>
</g>
<path d="M356.509 342.272H390.307C391.333 342.272 392.23 341.418 392.23 340.394V340.18C392.23 339.156 391.333 338.302 390.222 338.302H358.903C339.932 338.302 320.961 338.302 302.033 338.302H272.978C271.953 338.302 271.055 339.156 271.055 340.18V340.394C271.055 341.418 271.91 342.272 272.978 342.272H314.21L302.844 363.106C294.769 377.963 286.693 392.777 278.575 407.634L265.202 432.139C264.732 432.993 265.116 434.103 266.013 434.616L266.184 434.701C267.082 435.171 268.235 434.914 268.663 434.103L318.696 342.272H352.023L402.057 434.103C402.484 434.914 403.638 435.213 404.535 434.701L404.706 434.616C405.603 434.103 405.988 432.993 405.518 432.139L392.144 407.634C384.069 392.777 375.993 377.963 367.875 363.106L356.509 342.272ZM392.102 325.542V300.719C392.102 281.788 392.102 262.899 392.102 244.011V221.453C392.102 217.916 389.232 215.049 385.693 215.049H315.962C312.422 215.049 309.553 217.916 309.553 221.453V325.615C309.553 329.152 312.422 332.019 315.962 332.019C315.964 332.019 315.966 332.019 315.968 332.019L385.699 331.946C389.236 331.942 392.102 329.076 392.102 325.542Z" fill="#D8DEED"/>
<path d="M215.107 24H58.8935C57.8477 24 57 24.8494 57 25.8972V145.103C57 146.151 57.8477 147 58.8935 147H215.107C216.152 147 217 146.151 217 145.103V25.8972C217 24.8494 216.152 24 215.107 24Z" fill="#F2F6FB"/>
<mask id="mask0_72_1181" style="mask-type:alpha" maskUnits="userSpaceOnUse" x="160" y="52" width="28" height="84">
<path d="M164.852 52.1414H183.605C185.012 52.1414 185.522 52.2881 186.036 52.5637C186.551 52.8393 186.954 53.2437 187.229 53.7589C187.504 54.2742 187.651 54.7853 187.651 56.1948V131.769C187.651 133.178 187.504 133.69 187.229 134.205C186.954 134.72 186.551 135.124 186.036 135.4C185.522 135.676 185.012 135.822 183.605 135.822H164.852C163.445 135.822 162.935 135.676 162.421 135.4C161.907 135.124 161.503 134.72 161.228 134.205C160.953 133.69 160.806 133.178 160.806 131.769V56.1948C160.806 54.7853 160.953 54.2742 161.228 53.7589C161.503 53.2437 161.907 52.8393 162.421 52.5637C162.935 52.2881 163.445 52.1414 164.852 52.1414Z" fill="white"/>
</mask>
<g mask="url(#mask0_72_1181)">
<path d="M164.852 52.1414H183.605C185.012 52.1414 185.522 52.2881 186.036 52.5637C186.551 52.8393 186.954 53.2437 187.229 53.7589C187.504 54.2742 187.651 54.7853 187.651 56.1948V131.769C187.651 133.178 187.504 133.69 187.229 134.205C186.954 134.72 186.551 135.124 186.036 135.4C185.522 135.676 185.012 135.822 183.605 135.822H164.852C163.445 135.822 162.935 135.676 162.421 135.4C161.907 135.124 161.503 134.72 161.228 134.205C160.953 133.69 160.806 133.178 160.806 131.769V56.1948C160.806 54.7853 160.953 54.2742 161.228 53.7589C161.503 53.2437 161.907 52.8393 162.421 52.5637C162.935 52.2881 163.445 52.1414 164.852 52.1414Z" fill="#E1E5F0"/>
<path d="M161.71 99.5322H186.747C187.061 99.5322 187.175 99.565 187.29 99.6266C187.405 99.6882 187.495 99.7786 187.557 99.8937C187.618 100.009 187.651 100.123 187.651 100.438V135.822H160.806V100.438C160.806 100.123 160.839 100.009 160.901 99.8937C160.962 99.7786 161.052 99.6882 161.167 99.6266C161.282 99.565 161.396 99.5322 161.71 99.5322Z" fill="#D8DEED"/>
</g>
<mask id="mask1_72_1181" style="mask-type:alpha" maskUnits="userSpaceOnUse" x="123" y="52" width="28" height="84">
<path d="M127.781 52.1414H146.534C147.941 52.1414 148.451 52.2881 148.966 52.5637C149.48 52.8393 149.883 53.2437 150.158 53.7589C150.434 54.2742 150.58 54.7853 150.58 56.1948V131.769C150.58 133.178 150.434 133.69 150.158 134.205C149.883 134.72 149.48 135.124 148.966 135.4C148.451 135.676 147.941 135.822 146.534 135.822H127.781C126.374 135.822 125.864 135.676 125.35 135.4C124.836 135.124 124.432 134.72 124.157 134.205C123.882 133.69 123.736 133.178 123.736 131.769V56.1948C123.736 54.7853 123.882 54.2742 124.157 53.7589C124.432 53.2437 124.836 52.8393 125.35 52.5637C125.864 52.2881 126.374 52.1414 127.781 52.1414Z" fill="white"/>
</mask>
<g mask="url(#mask1_72_1181)">
<path d="M127.781 52.1414H146.534C147.941 52.1414 148.451 52.2881 148.966 52.5637C149.48 52.8393 149.883 53.2437 150.158 53.7589C150.434 54.2742 150.58 54.7853 150.58 56.1948V131.769C150.58 133.178 150.434 133.69 150.158 134.205C149.883 134.72 149.48 135.124 148.966 135.4C148.451 135.676 147.941 135.822 146.534 135.822H127.781C126.374 135.822 125.864 135.676 125.35 135.4C124.836 135.124 124.432 134.72 124.157 134.205C123.882 133.69 123.736 133.178 123.736 131.769V56.1948C123.736 54.7853 123.882 54.2742 124.157 53.7589C124.432 53.2437 124.836 52.8393 125.35 52.5637C125.864 52.2881 126.374 52.1414 127.781 52.1414Z" fill="#E1E5F0"/>
<path d="M124.64 70.5H149.676C149.99 70.5 150.104 70.5328 150.219 70.5944C150.334 70.656 150.424 70.7463 150.486 70.8615C150.547 70.9766 150.58 71.0908 150.58 71.4058V135.822H123.736V71.4058C123.736 71.0908 123.768 70.9766 123.83 70.8615C123.891 70.7463 123.981 70.656 124.096 70.5944C124.211 70.5328 124.325 70.5 124.64 70.5Z" fill="#D8DEED"/>
</g>
<mask id="mask2_72_1181" style="mask-type:alpha" maskUnits="userSpaceOnUse" x="86" y="52" width="28" height="84">
<path d="M90.7103 52.1414H109.464C110.87 52.1414 111.38 52.2881 111.895 52.5637C112.409 52.8393 112.813 53.2437 113.088 53.7589C113.363 54.2742 113.509 54.7853 113.509 56.1948V131.769C113.509 133.178 113.363 133.69 113.088 134.205C112.813 134.72 112.409 135.124 111.895 135.4C111.38 135.676 110.87 135.822 109.464 135.822H90.7103C89.3035 135.822 88.7934 135.676 88.2791 135.4C87.7648 135.124 87.3612 134.72 87.0862 134.205C86.8111 133.69 86.6647 133.178 86.6647 131.769V56.1948C86.6647 54.7853 86.8111 54.2742 87.0862 53.7589C87.3612 53.2437 87.7648 52.8393 88.2791 52.5637C88.7934 52.2881 89.3035 52.1414 90.7103 52.1414Z" fill="white"/>
</mask>
<g mask="url(#mask2_72_1181)">
<path d="M90.7103 52.1414H109.464C110.87 52.1414 111.38 52.2881 111.895 52.5637C112.409 52.8393 112.813 53.2437 113.088 53.7589C113.363 54.2742 113.509 54.7853 113.509 56.1948V131.769C113.509 133.178 113.363 133.69 113.088 134.205C112.813 134.72 112.409 135.124 111.895 135.4C111.38 135.676 110.87 135.822 109.464 135.822H90.7103C89.3035 135.822 88.7934 135.676 88.2791 135.4C87.7648 135.124 87.3612 134.72 87.0862 134.205C86.8111 133.69 86.6647 133.178 86.6647 131.769V56.1948C86.6647 54.7853 86.8111 54.2742 87.0862 53.7589C87.3612 53.2437 87.7648 52.8393 88.2791 52.5637C88.7934 52.2881 89.3035 52.1414 90.7103 52.1414Z" fill="#E1E5F0"/>
<path d="M87.5687 85.0161H112.605C112.919 85.0161 113.033 85.0489 113.148 85.1105C113.263 85.1721 113.353 85.2624 113.415 85.3776C113.476 85.4927 113.509 85.6069 113.509 85.9219V135.822H86.6647V85.9219C86.6647 85.6069 86.6974 85.4927 86.7589 85.3776C86.8203 85.2624 86.9105 85.1721 87.0254 85.1105C87.1404 85.0489 87.2544 85.0161 87.5687 85.0161Z" fill="#D8DEED"/>
</g>
<path d="M57 30.3253C57 26.8319 59.828 24 63.3091 24H210.691C214.175 24 217 26.8322 217 30.3253V37.9126H57V30.3253Z" fill="#E1E5F0"/>
<g clip-path="url(#clip1_72_1181)">
<path d="M55.191 433.142C54.0803 433.142 53.2259 432.403 53.2686 431.515V430.924C53.2686 430.036 54.1658 429.297 55.191 429.297H98.9794C100.047 429.297 100.902 430.036 100.902 430.924V431.515C100.902 432.403 100.005 433.142 98.9794 433.142H55.191ZM112.265 429.297H180.191C181.252 429.297 182.113 430.158 182.113 431.219C182.113 432.281 181.252 433.142 180.191 433.142H112.265C111.204 433.142 110.343 432.281 110.343 431.219C110.343 430.158 111.204 429.297 112.265 429.297Z" fill="#5171E1"/>
<path d="M109.781 328.699L106.131 330.634L106.077 332.317C105.975 336.636 105.81 340.433 105.587 343.781C105.424 346.414 103.194 376.253 102.386 387.203C102.218 389.686 100.456 391.848 97.9614 392.609C94.1989 393.789 91.7867 394.472 81.9363 395.148C81.2972 395.208 80.6555 395.192 80.0564 395.175C70.4662 394.753 65.6365 393.568 64.5532 393.155C63.167 392.639 62.4318 392.402 61.6834 391.789C59.0444 389.703 59.0926 386.249 59.0046 384.975C58.4823 376.577 57.0465 353.465 56.2102 334.238C55.4435 333.965 54.7219 333.574 54.0992 333.017C51.5408 330.711 47.9935 328.05 46.0519 323.517C40.5578 310.69 39.9711 296.373 44.292 280.564C47.6748 273.248 49.9489 269.278 51.1144 268.651L140.589 274.763C141.414 274.745 142.239 274.728 143.067 274.71C153.875 274.515 162.633 282.951 162.376 293.254C162.376 293.332 162.376 293.37 162.376 293.448C161.693 325.405 153.704 370.929 153.149 386.325C153.106 386.908 152.935 388.191 152.038 389.551C149.261 393.711 142.768 392.778 127.602 393.128C114.7 393.439 109.489 394.372 106.84 390.951C105.387 389.085 105.43 386.947 105.473 385.975C106.511 366.796 108.016 347.439 109.781 328.699Z" fill="#011C7B"/>
<path opacity="0.176986" d="M109.934 328.683L106.288 330.617L107.264 299.818C107.247 298.129 107.098 287.926 98.3709 281.732C92.0137 277.258 84.4888 277.216 79.4869 277.2C76.6558 277.187 66.5563 277.006 62.5695 281.732C55.7193 289.852 55.1178 305.078 55.2485 307.232C55.4871 311.54 55.7683 318.249 56.0455 326.046C56.1383 328.657 56.249 331.412 56.3727 334.251C55.5919 333.977 54.8567 333.584 54.2237 333.017C51.6653 330.711 48.118 328.05 46.1764 323.517C40.6823 310.69 40.0956 296.373 44.4165 280.564C47.7993 273.248 50.0734 269.278 51.2389 268.651L139.907 274.708C137.44 274.762 134.982 274.816 132.503 274.869C122.891 275.103 114.902 282.062 113.877 291.159C112.483 303.204 111.147 315.798 109.934 328.683Z" fill="#444444"/>
<path d="M99.7793 429.52C99.4953 429.378 99.1644 429.297 98.81 429.297H55.5459L65.6148 403.067L95.9074 404.588C95.9074 404.588 97.3229 411.583 99.7793 429.52ZM111.364 429.441L111.073 402.025L143.327 402.452L151.055 408.152C152.807 409.946 154.687 411.527 156.737 412.937C161.693 416.312 164.299 416.269 171.86 420.029C173.954 421.012 175.876 422.123 177.798 423.362C178.738 424.259 180.362 425.968 180.874 428.019C180.96 428.318 180.96 428.66 181.002 429.001C181.002 429.238 180.994 429.417 180.978 429.551C180.696 429.39 180.37 429.297 180.021 429.297H112.096C111.837 429.297 111.59 429.348 111.364 429.441Z" fill="#474961"/>
<path d="M112.213 227.46C111.498 242.011 109.884 262.023 108.422 265.908C106.206 271.795 63.703 267.604 58.0435 266.316C54.5054 265.516 51.206 255.978 50.5956 252.784C50.0777 250.214 47.2034 247.342 53.4726 224.492C50.7271 223.78 48.4776 223.18 47.2571 222.868C42.3116 221.604 44.4884 215.827 45.365 211.857C47.8754 200.526 51.0232 196.377 52.0991 195.128C53.3344 193.701 54.5298 192.675 55.3267 192.05C60.706 187.857 66.4041 187.232 69.3129 187.188C69.3926 187.143 69.4723 187.143 69.552 187.143L83.6976 186.965C83.6498 187.347 83.5989 187.755 83.5451 188.187C84.136 188.209 84.7167 188.235 85.2818 188.265C85.3013 187.834 85.3196 187.447 85.3367 187.067L99.4657 189.775C99.4657 189.775 107.831 191.881 112.431 196.771C113.112 197.498 114.118 198.673 115.098 200.234C115.949 201.599 118.359 206.059 118.947 217.182C119.151 221.079 120.347 226.911 115.267 227.244C114.556 227.291 113.504 227.367 112.213 227.46Z" fill="#5171E1" fill-opacity="0.32"/>
<path opacity="0.176986" d="M112.269 227.456C112.742 217.706 112.23 210.642 111.798 207.832C111.491 205.822 110.991 203.962 110.991 203.962C110.755 202.641 110.254 200.781 109.035 198.819C105.25 192.532 97.6766 190.535 92.5733 189.13C91.456 188.831 88.6422 188.525 85.2782 188.347C85.299 187.885 85.3186 187.466 85.3367 187.062L99.4568 189.77C99.4568 189.77 107.831 191.881 112.431 196.77C113.112 197.498 114.118 198.673 115.098 200.234C115.949 201.599 118.36 206.059 118.947 217.182C119.151 221.079 120.347 226.911 115.267 227.244C114.566 227.29 113.535 227.365 112.269 227.456Z" fill="#444444"/>
<path d="M132.785 213.312C136.012 210.178 141.843 205.42 150.277 199.038C152.865 199.34 152.677 201.392 149.712 205.193L132.785 213.312ZM76.7544 229.472C76.6133 229.796 76.2358 229.945 75.9112 229.804C75.5867 229.663 75.4379 229.285 75.5791 228.961C76.4061 227.058 76.7386 225.995 77.3793 223.219C77.4589 222.874 77.8029 222.659 78.1478 222.738C78.4926 222.818 78.7077 223.162 78.6281 223.507C77.971 226.355 77.6156 227.491 76.7544 229.472Z" fill="#482D1F"/>
<path d="M95.9071 404.588L65.612 403.066L67.5717 393.902C70.1104 394.379 74.1837 394.918 80.0204 395.175C80.6195 395.192 81.2612 395.207 81.9003 395.148C89.4312 394.631 92.6145 394.11 95.3775 393.366L95.9071 404.588ZM143.327 402.451L111.073 402.024C111.073 402.024 111.027 398.966 111.007 393.203C114.312 393.771 119.398 393.325 127.566 393.128C131.974 393.026 135.65 393.033 138.714 392.991L143.327 402.451ZM109.224 258.974L112.026 227.456C112.634 227.408 113.1 227.372 113.424 227.348C114.078 227.299 114.752 227.274 115.528 227.119C116.527 226.919 117.202 226.67 117.552 226.373L118.794 234.846L130.898 215.062C131.494 214.088 132.339 213.291 133.345 212.754L154.825 201.283C158.116 198.195 160.484 196.407 161.929 195.92C163.374 195.432 164.881 195.913 166.45 197.363L147.725 216.986C145.374 223.792 142.785 230.585 139.958 237.364C137.134 244.14 132.742 254.076 126.783 267.173C134.92 271.538 139.819 274.994 139.819 274.994C139.819 274.994 79.249 273.968 55.2228 272.496C33.8475 271.187 44.1546 231.491 46.6892 222.748C46.8193 222.791 46.9551 222.831 47.0966 222.867C51.5213 223.998 69.4717 228.985 75.5431 229.326L69.7148 249.681C84.0335 250.442 97.7665 254.403 109.224 258.974ZM92.7031 188.186C93.7632 188.479 95.0442 188.741 96.1877 189.147C95.2368 191.472 93.914 192.835 92.2193 193.234C89.6773 193.834 83.5934 193.834 79.5935 192.115C76.9268 190.969 74.9193 189.298 73.571 187.102C75.1198 187.074 76.5745 187.049 77.9351 187.029V171.176C76.8601 169.916 75.9189 168.714 75.3652 167.599C74.4316 165.75 74.5624 161.087 74.9683 158.865C75.1029 157.952 81.6774 151.474 85.4834 157.829L85.1261 146.881C85.109 146.196 85.6139 145.594 86.3411 145.574C87.8343 145.486 89.3201 145.313 90.9075 144.831C91.0778 144.816 91.2443 144.759 91.4145 144.744C92.8503 144.489 100.945 143.395 105.645 149.074C106.072 149.551 106.461 150.075 106.819 150.73C107.595 152.249 108.042 153.925 108.063 155.639L108.13 163.267C108.112 164.041 108.051 164.818 107.944 165.556C107.179 171.027 105.562 175.586 103.677 178.539C102.284 180.762 100.686 182.103 99.2005 182.276C98.7787 182.356 96.4769 182.514 93.725 181.94C93.5454 181.897 93.5931 181.934 92.4711 181.559L92.7031 188.186Z" fill="#DB9E75"/>
<path d="M70.2966 249.865C70.6489 249.832 70.9615 250.091 70.9947 250.443C71.028 250.795 70.7693 251.108 70.4169 251.141C70.3337 251.149 70.1708 251.167 69.9398 251.198C69.5511 251.25 69.117 251.319 68.6491 251.406C67.3136 251.655 65.979 252.002 64.7391 252.462C64.0072 252.733 63.3303 253.036 62.7196 253.372C62.4095 253.542 62.0198 253.429 61.8493 253.119C61.6787 252.809 61.7918 252.419 62.1019 252.249C62.7713 251.881 63.5054 251.552 64.2938 251.26C65.6091 250.772 67.0121 250.408 68.4142 250.146C68.9045 250.055 69.3601 249.983 69.7699 249.928C69.9141 249.909 70.0425 249.893 70.1538 249.88C70.2219 249.873 70.2699 249.868 70.2966 249.865ZM118.292 234.464C118.487 234.168 118.884 234.086 119.18 234.281C119.476 234.475 119.558 234.872 119.363 235.168C119.346 235.195 119.346 235.195 119.262 235.323C119.178 235.45 119.082 235.597 118.973 235.763C118.663 236.237 118.318 236.765 117.946 237.335C116.885 238.963 115.827 240.596 114.844 242.127C114.743 242.285 114.743 242.285 114.642 242.442C113.146 244.777 113.428 244.119 112.717 245.313C112.536 245.617 112.142 245.716 111.838 245.535C111.534 245.354 111.434 244.961 111.616 244.657C112.336 243.447 112.06 244.096 113.563 241.751C113.665 241.593 113.665 241.593 113.766 241.435C114.75 239.901 115.81 238.265 116.873 236.635C117.245 236.064 117.591 235.535 117.901 235.061C118.01 234.895 118.107 234.747 118.19 234.62C118.275 234.492 118.275 234.492 118.292 234.464Z" fill="#482D1F"/>
<path d="M92.6509 181.568L86.3214 179.3L92.6509 186.691L92.6509 181.568Z" fill="#482D1F"/>
<path d="M86.1531 161.756L86.0471 160.968C86.0471 160.968 85.7428 159.45 84.5448 158.011C84.4523 157.933 83.6469 157.06 82.4994 156.689C80.4322 156.098 77.8718 157.223 76.5849 159.179C75.2167 161.186 75.4363 163.697 76.4125 165.542C77.3886 167.386 79.0415 168.143 79.6171 168.349L82.1659 168.916C80.3212 172.388 78.6859 175.493 78.3027 175.493C77.6 175.493 74.8543 172.24 73.0525 169.782C72.1748 168.572 69.1793 165.703 68.283 160.849C68.0933 159.717 67.545 156.678 68.3953 153.455C62.9772 150.096 59.1544 144.314 58.5561 137.475C57.5485 125.957 66.068 115.802 77.585 114.795C89.1019 113.787 99.2551 122.307 100.263 133.826C100.595 137.623 99.8918 141.271 98.3873 144.493C101.382 145.18 104.571 146.71 106.332 149.671C105.481 150.277 104.453 150.78 103.28 151.097C100.091 151.89 97.2686 151.494 95.5567 151.043C92.5904 154.391 89.5778 157.699 86.6115 161.047C86.4649 161.265 86.3118 161.502 86.1531 161.756Z" fill="#482D1F"/>
<path fill-rule="evenodd" clip-rule="evenodd" d="M97.9359 163.53C97.4178 163.49 96.9406 163.918 96.8576 164.439C96.7544 165.22 96.607 166.477 96.9959 167.001C97.5422 167.854 98.9956 165.839 98.7376 164.361C98.5578 163.776 98.2801 163.543 97.9359 163.53ZM107.32 163.883C106.802 163.842 106.325 164.27 106.242 164.792C106.139 165.573 105.991 166.83 106.38 167.353C106.926 168.206 108.38 166.192 108.122 164.713C107.942 164.129 107.664 163.896 107.32 163.883Z" fill="#482D1F"/>
<path d="M103.074 165.401L103.489 169.653C103.49 169.669 103.431 169.74 103.411 169.742C103.178 169.762 102.938 169.768 102.564 169.764C102.491 169.763 102.415 169.762 102.306 169.761C102.168 169.759 102.092 169.758 102.02 169.757C101.772 169.754 101.566 169.752 101.347 169.752L101.346 169.752C101.111 169.752 100.92 169.944 100.92 170.18C100.92 170.416 101.112 170.607 101.348 170.607L101.349 170.607C101.563 170.607 101.764 170.608 102.008 170.611C102.08 170.612 102.155 170.613 102.294 170.615C102.404 170.617 102.482 170.618 102.556 170.619C102.956 170.622 103.219 170.616 103.485 170.593C103.975 170.55 104.382 170.065 104.339 169.575L103.924 165.318C103.901 165.083 103.692 164.911 103.457 164.934C103.223 164.957 103.051 165.166 103.074 165.401Z" fill="#482D1F"/>
<path d="M100.742 173.063C100.433 172.961 99.6799 172.684 99.6001 172.262C99.5926 172.177 99.5389 172.053 99.6203 172.003C99.8145 171.772 100.344 171.94 101.128 172.086C102.52 172.307 103.634 172.295 103.634 172.295C103.634 172.295 103.268 173.014 103.028 173.206C102.562 173.762 101.186 173.239 100.742 173.063Z" fill="#482D1F"/>
<path d="M90.2144 163.404L87.6535 162.857C87.3074 162.784 87.0867 162.443 87.1605 162.097C87.2344 161.751 87.5749 161.53 87.921 161.604L90.6746 162.192C91.5919 160.387 93.3917 159.081 95.5572 158.892C98.8948 158.6 101.837 161.069 102.129 164.407C102.136 164.487 102.142 164.566 102.145 164.645L103.445 164.691C103.787 161.909 106.034 159.648 108.938 159.394C112.275 159.102 115.218 161.571 115.51 164.909C115.802 168.247 113.333 171.189 109.995 171.481C106.66 171.773 103.719 169.307 103.424 165.973L102.072 165.925C101.633 168.595 99.4338 170.733 96.6147 170.979C93.2771 171.271 90.3347 168.802 90.0427 165.464C89.9805 164.752 90.0438 164.058 90.2144 163.404ZM91.5881 163.3C91.3562 163.937 91.2565 164.633 91.3195 165.353C91.5498 167.985 93.8705 169.933 96.503 169.703C99.1354 169.472 101.083 167.151 100.852 164.519C100.622 161.886 98.3014 159.938 95.6689 160.169C93.8615 160.327 92.377 161.471 91.6986 163.024C91.6967 163.037 91.6942 163.051 91.6914 163.064C91.6727 163.152 91.6368 163.231 91.5881 163.3ZM104.682 165.491C104.683 165.611 104.689 165.732 104.7 165.855C104.93 168.487 107.251 170.435 109.884 170.204C112.516 169.974 114.463 167.653 114.233 165.02C114.003 162.388 111.682 160.44 109.05 160.67C106.626 160.883 104.783 162.866 104.686 165.234C104.694 165.28 104.698 165.327 104.696 165.376C104.695 165.415 104.69 165.453 104.682 165.491Z" fill="#482D1F"/>
<path opacity="0.2" d="M112.186 227.456L109.382 258.997C113.357 260.629 116.329 261.909 118.299 262.836C120.268 263.764 123.147 265.217 126.933 267.195C132.897 254.088 137.293 244.144 140.119 237.365C142.945 230.585 145.534 223.792 147.886 216.986L166.61 197.363C165.042 195.913 163.535 195.432 162.09 195.919C160.645 196.406 158.276 198.194 154.985 201.283L133.506 212.754C132.499 213.292 131.654 214.089 131.058 215.062L118.954 234.846L117.712 226.373C117.433 226.671 116.794 226.919 115.795 227.119C115.019 227.274 114.345 227.3 113.691 227.348C113.367 227.372 112.865 227.408 112.186 227.456Z" fill="#8C2A00"/>
</g>
<g clip-path="url(#clip2_72_1181)">
<path d="M298.573 429.115L341.006 397.499C341.86 396.858 343.099 397.029 343.74 397.883C344.381 398.738 344.21 399.977 343.355 400.618L300.464 432.576C299.61 433.217 298.371 433.046 297.73 432.191C297.089 431.337 297.26 430.098 298.115 429.457L298.573 429.115H299.183C300.251 429.115 301.148 429.993 301.148 431.038C301.105 432.125 300.251 432.96 299.183 432.96H275.473C274.405 432.96 273.508 432.083 273.508 431.038C273.508 429.993 274.405 429.115 275.473 429.115H298.573ZM373.858 433.048H330.027C329.001 433.048 328.104 432.309 328.104 431.421V430.83C328.104 429.942 328.959 429.203 330.027 429.203H373.815C374.84 429.203 375.737 429.942 375.737 430.83V431.421C375.823 432.309 374.926 433.048 373.858 433.048Z" fill="#5D5FEF"/>
<path d="M333.861 407.692C334.497 407.956 344.96 407.562 365.25 406.511L372.548 429.203H330.027C330.014 429.203 330.002 429.203 329.989 429.203C332.762 415.392 334.063 408.214 333.893 407.668L333.861 407.692ZM340.844 397.619L298.573 429.115H275.473C275.213 429.115 274.962 429.167 274.733 429.261C274.696 429.078 274.669 428.897 274.661 428.728C274.704 428.429 274.704 428.087 274.789 427.745C275.003 426.976 275.345 426.25 275.729 425.609C276.968 423.643 279.189 422.276 279.189 422.276C281.753 420.61 284.102 419.499 286.879 418.303C288.332 417.662 290.382 416.807 292.775 415.867C293.544 413.389 294.312 410.911 295.081 408.391C296.534 403.563 297.986 398.777 299.396 393.992L325.114 375.322L340.844 397.619Z" fill="#474961"/>
<path d="M333.388 387.128C330.532 388.872 325.572 390.171 317.787 392.8C303.486 397.642 297.768 400.818 293.557 397.575C292.148 396.538 291.482 395.306 291.221 394.719C284.65 379.437 259.306 336.364 246.083 304.45C246.065 304.368 246.014 304.335 245.996 304.254C241.754 293.966 246.589 282.467 256.779 278.977C260.148 277.819 263.526 276.703 266.894 275.545C269.947 274.519 273.123 274.321 276.169 274.845L276.001 274.564L377.754 271.659C379.505 272.524 380.64 276.053 382.636 281.596C384.632 287.138 385.264 296.796 385.093 297.896C385.093 306.503 383.555 314.402 380.992 320.494C379.198 324.699 376.976 328.04 374.413 330.162C373.973 330.533 373.524 330.866 373.068 331.16C373.067 331.752 373.067 332.35 373.067 332.954C373.067 355.302 372.298 387.233 372.042 397.849C371.999 399.254 372.17 403.054 369.607 405.45C368.88 406.152 368.154 406.442 366.787 407.061C365.719 407.557 360.935 409.044 351.365 409.87C350.767 409.911 350.126 409.953 349.485 409.911C339.891 409.55 337.323 408.915 333.693 407.817L343.355 400.618C344.21 399.977 344.381 398.738 343.74 397.883C343.099 397.029 341.86 396.858 341.006 397.499L340.808 397.646L333.388 387.128ZM323.865 352.482C323.589 349.254 323.343 345.667 323.127 341.67L322.383 329.504L310.709 325.197C315.121 334.163 319.526 343.285 323.865 352.482Z" fill="#5171E1"/>
<path opacity="0.176986" d="M373.068 331C373.074 323.212 373.116 316.544 373.195 312.144C373.281 308.385 373.922 287.73 365.634 283.434C364.908 283.063 364.181 282.773 362.729 282.236C361.575 281.823 355.594 279.675 347.905 280.006C342.907 280.212 335.388 280.543 329.193 285.706C320.649 292.853 320.863 304.13 320.948 305.947L322.377 329.331L310.641 324.984C303.933 311.357 297.212 298.093 290.687 285.486C287.462 279.27 281.456 275.323 275.015 274.608L377.754 271.5C379.505 272.365 380.64 275.894 382.636 281.436C384.632 286.978 385.264 296.636 385.093 297.737C385.093 306.343 383.555 314.243 380.992 320.335C379.198 324.54 376.976 327.88 374.413 330.003C373.973 330.373 373.524 330.706 373.068 331Z" fill="#444444"/>
<path d="M334.172 387.462C336.077 386.157 337.5 384.662 337.879 383.18C338.433 381.114 338.054 379.174 337.199 377.262C332.519 366.802 329.278 359.865 327.468 356.438C327.303 356.125 326.915 356.006 326.602 356.171C326.289 356.336 326.17 356.724 326.335 357.037C328.127 360.431 331.36 367.351 336.029 377.785C336.775 379.454 337.102 381.129 336.639 382.855C336.357 383.958 335.115 385.263 333.448 386.405C333.156 386.605 333.081 387.004 333.281 387.296C333.481 387.588 333.88 387.662 334.172 387.462Z" fill="#482D1F"/>
<mask id="mask3_72_1181" style="mask-type:alpha" maskUnits="userSpaceOnUse" x="288" y="184" width="113" height="89">
<path d="M378.964 244.309C379.962 253.322 379.986 260.839 379.237 265.798C379.237 265.927 379.197 266.099 379.157 266.228C378.959 267.564 378.681 268.683 378.323 269.588C378.283 269.674 378.243 269.76 378.204 269.846C376.177 273.12 360.162 271.957 356.386 272.086C350.187 272.301 311.34 273.397 310.426 272.794C309.989 272.493 309.473 269.157 309.035 268.683C307.549 267.153 308.184 257.786 309.593 246.561L288.105 244.738C289.605 233.409 290.611 227.004 291.124 225.523C292.619 221.293 296.918 213.279 297.901 209.52C300.635 198.881 304.01 194.908 305.163 193.754C306.488 192.387 307.769 191.447 308.624 190.849C314.391 186.875 320.5 186.277 323.619 186.192C323.662 186.17 326.856 185.95 330.001 185.739C332.528 184.942 335.777 184.696 340.689 184.696C344.283 184.696 347.352 184.913 349.883 185.214C349.167 184.339 349.025 184.112 350.703 184.184L365.869 184.825C365.954 184.825 366.04 184.825 366.125 184.867C369.244 184.953 375.353 185.551 381.12 189.524C381.975 190.122 383.256 191.062 384.58 192.43C385.734 193.583 389.109 197.557 391.843 208.195C392.825 211.955 397.074 218.871 398.57 223.101C399.567 225.92 400.13 231.975 400.259 241.264C393.924 242.543 386.826 243.558 378.964 244.309V244.309Z" fill="white"/>
</mask>
<g mask="url(#mask3_72_1181)">
<path d="M378.964 244.309C379.962 253.322 379.986 260.839 379.237 265.798C379.237 265.927 379.197 266.099 379.157 266.228C378.959 267.564 378.681 268.683 378.323 269.588C378.283 269.674 378.243 269.76 378.204 269.846C376.177 273.12 360.162 271.957 356.386 272.086C350.187 272.301 311.34 273.397 310.426 272.794C309.989 272.493 309.473 269.157 309.035 268.683C307.549 267.153 308.184 257.786 309.593 246.561L288.105 244.738C289.605 233.409 290.611 227.004 291.124 225.523C292.619 221.293 296.918 213.279 297.901 209.52C300.635 198.881 304.01 194.908 305.163 193.754C306.488 192.387 307.769 191.447 308.624 190.849C314.391 186.875 320.5 186.277 323.619 186.192C323.662 186.17 326.856 185.95 330.001 185.739C332.528 184.942 335.777 184.696 340.689 184.696C344.283 184.696 347.352 184.913 349.883 185.214C349.167 184.339 349.025 184.112 350.703 184.184L365.869 184.825C365.954 184.825 366.04 184.825 366.125 184.867C369.244 184.953 375.353 185.551 381.12 189.524C381.975 190.122 383.256 191.062 384.58 192.43C385.734 193.583 389.109 197.557 391.843 208.195C392.825 211.955 397.074 218.871 398.57 223.101C399.567 225.92 400.13 231.975 400.259 241.264C393.924 242.543 386.826 243.558 378.964 244.309V244.309Z" fill="#5D5FEF"/>
<path d="M332.367 185.267C328.895 186.264 326.718 189.743 325.836 195.703C324.954 201.664 323.887 219.181 322.636 248.256L342.2 254.319L362.654 248.856C361.39 217.823 360.342 199.981 359.512 195.33C358.265 188.352 357.083 186.972 353.007 185.267C348.931 183.561 345.058 183.8 340.534 184.212C337.519 184.487 334.796 184.838 332.367 185.267Z" fill="#A5A6F6"/>
</g>
<path d="M350.404 172.399L350.874 186.192C350.874 186.491 350.746 186.79 350.49 186.918C349.379 187.602 347.798 188.371 345.833 188.798C342.287 189.61 339.254 189.012 337.545 188.499C337.204 188.413 336.947 188.072 336.947 187.73L336.783 180.292C334.565 181.117 334.688 181.035 334.47 181.107C331.778 181.791 329.471 181.706 329.044 181.62C327.506 181.492 325.883 180.21 324.43 178.031C322.465 175.126 320.714 170.597 319.774 165.171C319.603 164.402 319.56 163.633 319.517 162.864L319.347 155.216C319.304 153.507 319.731 151.841 320.543 150.26C320.885 149.577 321.226 149.021 321.653 148.551C321.667 148.533 321.681 148.516 321.695 148.498C321.71 148.473 321.725 148.448 321.739 148.423C325.028 143.851 331.906 143.253 335.068 143.595C335.452 143.638 336.819 143.809 338.784 143.937C339.852 144.022 340.707 144.022 341.219 144.065C347.585 144.321 350.105 143.552 353.309 145.261C353.907 145.56 355.274 146.329 356.471 147.825C359.845 152.055 358.861 157.523 358.648 159.147C357.879 164.018 355.232 167.008 354.377 168.247C353.481 169.569 351.801 171.172 350.404 172.399ZM291.8 265.737C288.506 261.171 288.441 253.15 289.31 244.78C290.26 244.78 297.013 245.264 309.569 246.232C312.145 246.446 316.507 246.966 322.655 247.791L345.271 252.977L371.85 246.477L371.722 245.267C375.399 244.793 378.079 244.436 379.76 244.196C384.279 243.551 390.901 242.58 399.626 241.284C400.736 254.418 398.832 268.98 386.247 273.137H333.084L287.145 274.49C286.437 274.511 285.847 273.954 285.826 273.247C285.817 272.966 285.902 272.69 286.065 272.462C287.992 269.775 289.903 267.533 291.8 265.737Z" fill="#DB9E75"/>
<path opacity="0.2" d="M291.833 265.782C288.506 261.224 288.439 253.178 289.31 244.78C290.26 244.78 295.131 245.112 303.922 245.777C306.973 245.896 313.217 246.567 322.655 247.791C331.615 249.845 339.217 251.589 345.461 253.021L321.232 258.946C320.586 258.725 319.921 258.525 319.237 258.347C307.959 255.425 298.988 260.707 295.827 262.673C294.365 263.582 293.036 264.65 291.833 265.782Z" fill="#8C2A00"/>
<path d="M358.171 161.194C356.282 160.72 354.2 160.149 352.05 159.527C351.898 158.938 351.642 158.366 351.26 157.833C349.893 155.911 347.158 154.832 345.107 155.515C344.114 155.846 343.405 156.558 343.173 156.804C337.979 155.128 333.387 153.51 331.239 152.617C328.733 151.575 327.066 150.581 326.239 149.635C323.254 151.396 320.962 152.57 319.361 153.156C319.546 152.101 319.905 151.069 320.418 150.071C320.759 149.387 321.101 148.832 321.528 148.362C321.542 148.344 321.556 148.326 321.57 148.308C321.585 148.283 321.599 148.258 321.614 148.234C324.903 143.662 331.781 143.064 334.942 143.406C335.327 143.448 336.694 143.619 338.659 143.747C339.727 143.833 340.581 143.833 341.094 143.876C347.459 144.132 349.98 143.363 353.184 145.072C353.782 145.371 355.149 146.14 356.345 147.635C359.72 151.865 358.909 157.334 358.695 158.957C358.569 159.753 358.389 160.498 358.171 161.194ZM320.842 160.471C320.415 160.386 320.286 159.83 320.585 159.531C320.97 159.19 321.653 158.848 322.508 158.848C324.259 158.848 326.139 160.001 324.174 160.514C323.021 160.856 321.653 160.642 320.842 160.471ZM329.642 160.77C329.215 160.685 329.087 160.13 329.429 159.83C329.813 159.489 330.497 159.147 331.394 159.147C333.145 159.147 335.025 160.343 333.06 160.813C331.821 161.155 330.497 160.941 329.642 160.77Z" fill="#482D1F"/>
<path d="M336.691 180.195L341.542 177.675L336.99 184.696L336.691 180.195Z" fill="#482D1F"/>
<path d="M324.174 163.462C324.131 164.188 324.003 165.385 323.576 165.812C322.85 166.453 321.91 164.317 322.465 162.992C322.679 162.437 322.978 162.351 323.32 162.394C323.832 162.479 324.174 162.949 324.174 163.462ZM331.821 163.377C331.864 164.103 331.864 165.299 331.436 165.812C330.796 166.538 329.599 164.488 330.027 163.12C330.198 162.565 330.497 162.437 330.838 162.437C331.351 162.437 331.778 162.864 331.821 163.377Z" fill="#482D1F"/>
<path d="M328.318 172.178C328.617 172.092 329.343 171.879 329.471 171.409C329.471 171.323 329.514 171.195 329.471 171.11C329.3 170.811 328.788 170.982 328.019 171.024C326.652 171.11 325.541 170.982 325.541 170.982C325.541 170.982 325.84 171.836 326.054 172.092C326.524 172.733 327.891 172.306 328.318 172.178Z" fill="#482D1F"/>
<path d="M324.776 168.06C324.696 168.542 325.069 169.015 325.556 169.096C325.663 169.106 325.663 169.106 325.732 169.111C326.453 169.167 326.903 169.187 327.677 169.187C327.913 169.187 328.104 168.996 328.104 168.76C328.104 168.524 327.913 168.333 327.677 168.333C326.928 168.333 326.498 168.313 325.797 168.259L325.659 168.249C325.658 168.247 325.619 168.198 325.621 168.189L326.263 163.607L326.267 163.548V161.027C326.267 160.791 326.076 160.6 325.84 160.6C325.604 160.6 325.413 160.791 325.413 161.027V163.518L324.776 168.06Z" fill="#482D1F"/>
<path d="M352.033 159.627C352.228 160.879 352.003 162.242 351.435 163.338C350.744 164.719 349.772 165.472 348.516 166.052C348.302 166.151 348.209 166.404 348.308 166.619C348.406 166.833 348.66 166.926 348.874 166.827C349.427 166.573 349.865 166.327 350.372 165.933C351.12 165.354 351.745 164.628 352.196 163.725C352.845 162.474 353.101 160.927 352.877 159.495C352.84 159.262 352.622 159.102 352.389 159.139C352.156 159.175 351.996 159.394 352.033 159.627Z" fill="#482D1F"/>
<path d="M313.012 246.198C313.843 230.527 314.213 223.556 314.672 214.817C314.717 213.964 315.997 214.031 315.952 214.885L314.292 246.266C314.247 247.119 312.967 247.052 313.012 246.198ZM372.553 244.868C372.802 245.678 371.594 246.061 371.332 245.256L365.394 227.055C365.134 226.259 366.312 225.848 366.604 226.633C367.436 228.879 371.329 240.889 372.553 244.868Z" fill="#482D1F"/>
</g>
<path d="M207.508 264.629L211.637 248.145H180.64C177.42 248.145 174.757 245.724 174.757 242.792V196.106C174.715 193.132 177.334 190.71 180.597 190.71H274.932C278.152 190.71 280.814 193.132 280.814 196.063V242.792C280.814 245.724 278.152 248.145 274.932 248.145H237.157L235.452 264.629H246.636C248.354 264.629 249.685 265.988 249.685 267.645C249.685 269.344 248.311 270.661 246.636 270.661H198.76C197.043 270.661 195.712 269.302 195.712 267.645C195.626 265.988 197.043 264.629 198.76 264.629H207.508Z" fill="#474961"/>
<path fill-rule="evenodd" clip-rule="evenodd" d="M238.436 236.131L238.564 264.671H235.485L238.436 236.131Z" fill="white"/>
<path d="M381.305 271H38.9915C37.3393 271 36 272.343 36 274C36 275.657 37.3393 277 38.9915 277H381.305C382.957 277 384.296 275.657 384.296 274C384.296 272.343 382.957 271 381.305 271Z" fill="#D8DEED"/>
<path d="M56.5 47C69.4787 47 80 36.4787 80 23.5C80 10.5213 69.4787 0 56.5 0C43.5213 0 33 10.5213 33 23.5C33 36.4787 43.5213 47 56.5 47Z" fill="#474BFF"/>
<path d="M65 17.6578L59.8001 18.4825C59.5392 17.8209 59.3039 17.3619 59.0942 17.1057C58.8845 16.8494 58.5374 16.5908 58.0528 16.3299V20.3696C60.8858 21.1244 62.7774 21.9211 63.728 22.7598C64.986 23.8874 65.615 25.3178 65.615 27.0511C65.615 28.0669 65.389 28.9987 64.9371 29.8468C64.4851 30.6948 63.9074 31.403 63.2038 31.9714C62.5002 32.5399 61.7524 32.9522 60.9603 33.2085C60.1682 33.4648 59.1991 33.6162 58.0528 33.6628V36.3047H56.012V33.6628C54.6422 33.5416 53.5309 33.3203 52.6782 32.9988C51.8256 32.6773 51.0894 32.2324 50.4697 31.6639C49.85 31.0955 49.3724 30.4828 49.0369 29.8258C48.7014 29.1688 48.4498 28.3744 48.2821 27.4425L53.9293 26.7855C54.097 27.7081 54.323 28.3744 54.6072 28.7844C54.8914 29.1944 55.3597 29.5579 56.012 29.8747V24.9404C54.1296 24.4186 52.7947 23.9666 52.0073 23.5845C51.2198 23.2025 50.5373 22.5898 49.9595 21.7464C49.3817 20.9031 49.0928 19.8757 49.0928 18.6642C49.0928 17.0055 49.6729 15.6193 50.8331 14.5057C51.9933 13.3921 53.7196 12.7748 56.012 12.6536V11.2698H58.0528V12.6536C60.1403 12.7841 61.7361 13.278 62.8404 14.1353C63.9446 14.9926 64.6645 16.1668 65 17.6578ZM56.012 16.26C55.4156 16.4557 55.0009 16.698 54.768 16.9868C54.535 17.2757 54.4185 17.6159 54.4185 18.0072C54.4185 18.4173 54.5373 18.7737 54.775 19.0766C55.0126 19.3794 55.4249 19.6334 56.012 19.8384V16.26ZM58.0528 30.0145C58.8449 29.8374 59.425 29.5462 59.7931 29.1409C60.1612 28.7355 60.3453 28.2812 60.3453 27.778C60.3453 27.34 60.1892 26.937 59.877 26.5689C59.5648 26.2008 58.9568 25.8583 58.0528 25.5415V30.0145Z" fill="#F2F6FB"/>
<path d="M368.176 0H208.824C205.055 0 202 3.0615 202 6.83805V126.162C202 129.939 205.055 133 208.824 133H368.176C371.945 133 375 129.939 375 126.162V6.83805C375 3.0615 371.945 0 368.176 0Z" fill="#F2F6FB"/>
<path d="M290.452 37.7206L317.88 46.3519L346.847 62.7805L348.771 59.3525L319.444 42.7199L289.965 33.4431L260.239 51.0047L230.583 61.2722L231.858 64.9935L261.884 54.5977L290.452 37.7206Z" fill="#D8DEED"/>
<path d="M230.065 68.3294C227.38 68.3294 225.203 66.1496 225.203 63.4607C225.203 60.7719 227.38 58.5921 230.065 58.5921C232.75 58.5921 234.927 60.7719 234.927 63.4607C234.927 66.1496 232.75 68.3294 230.065 68.3294ZM259.237 57.201C256.552 57.201 254.375 55.0213 254.375 52.3324C254.375 49.6435 256.552 47.4638 259.237 47.4638C261.923 47.4638 264.1 49.6435 264.1 52.3324C264.1 55.0213 261.923 57.201 259.237 57.201ZM288.41 40.5085C285.725 40.5085 283.548 38.3288 283.548 35.6399C283.548 32.951 285.725 30.7712 288.41 30.7712C291.095 30.7712 293.272 32.951 293.272 35.6399C293.272 38.3288 291.095 40.5085 288.41 40.5085ZM317.582 48.8548C314.897 48.8548 312.72 46.675 312.72 43.9861C312.72 41.2973 314.897 39.1175 317.582 39.1175C320.267 39.1175 322.444 41.2973 322.444 43.9861C322.444 46.675 320.267 48.8548 317.582 48.8548ZM346.754 66.9384C344.069 66.9384 341.892 64.7586 341.892 62.0697C341.892 59.3808 344.069 57.201 346.754 57.201C349.44 57.201 351.617 59.3808 351.617 62.0697C351.617 64.7586 349.44 66.9384 346.754 66.9384Z" fill="#5D5FEF"/>
<path d="M302.082 87.7503V111.514C302.082 112.239 301.494 112.828 300.77 112.828H299.229C298.505 112.828 297.917 112.24 297.917 111.514V87.7503C297.917 87.0253 298.504 86.4371 299.229 86.4371H300.77C301.494 86.4371 302.082 87.025 302.082 87.7503ZM293.751 91.9194V111.512C293.751 112.239 293.164 112.828 292.439 112.828H290.898C290.174 112.828 289.586 112.239 289.586 111.512V91.9194C289.586 91.1927 290.174 90.604 290.898 90.604H292.439C293.163 90.604 293.751 91.193 293.751 91.9194ZM285.421 79.4168V111.514C285.421 112.24 284.833 112.828 284.109 112.828H282.568C281.843 112.828 281.255 112.24 281.255 111.514V79.4168C281.255 78.6914 281.843 78.1032 282.568 78.1032H284.109C284.833 78.1032 285.421 78.6913 285.421 79.4168ZM277.09 87.7503V111.514C277.09 112.239 276.503 112.828 275.778 112.828H274.237C273.513 112.828 272.925 112.24 272.925 111.514V87.7503C272.925 87.0253 273.512 86.4371 274.237 86.4371H275.778C276.502 86.4371 277.09 87.025 277.09 87.7503ZM268.76 75.2526V111.511C268.76 112.24 268.172 112.828 267.447 112.828H265.907C265.182 112.828 264.594 112.238 264.594 111.511V75.2526C264.594 74.5239 265.182 73.9363 265.907 73.9363H267.447C268.172 73.9363 268.76 74.5256 268.76 75.2526ZM260.429 79.4168V111.514C260.429 112.24 259.842 112.828 259.117 112.828H257.576C256.852 112.828 256.264 112.24 256.264 111.514V79.4168C256.264 78.6914 256.851 78.1032 257.576 78.1032H259.117C259.841 78.1032 260.429 78.6913 260.429 79.4168ZM252.099 72.4742V111.512C252.099 112.239 251.511 112.828 250.786 112.828H249.246C248.521 112.828 247.933 112.239 247.933 111.512V72.4742C247.933 71.7474 248.521 71.1583 249.246 71.1583H250.786C251.511 71.1583 252.099 71.7475 252.099 72.4742ZM243.768 69.6925V111.516C243.768 112.241 243.181 112.828 242.456 112.828H240.915C240.191 112.828 239.603 112.24 239.603 111.516V69.6925C239.603 68.9668 240.19 68.3804 240.915 68.3804H242.456C243.18 68.3804 243.768 68.9678 243.768 69.6925ZM235.437 79.4168V111.514C235.437 112.24 234.85 112.828 234.125 112.828H232.584C231.86 112.828 231.272 112.24 231.272 111.514V79.4168C231.272 78.6914 231.86 78.1032 232.584 78.1032H234.125C234.85 78.1032 235.437 78.6913 235.437 79.4168ZM352.065 87.7503V111.514C352.065 112.239 351.478 112.828 350.753 112.828H349.212C348.488 112.828 347.9 112.24 347.9 111.514V87.7503C347.9 87.0253 348.487 86.4371 349.212 86.4371H350.753C351.477 86.4371 352.065 87.025 352.065 87.7503ZM343.735 75.2526V111.511C343.735 112.24 343.147 112.828 342.422 112.828H340.882C340.157 112.828 339.569 112.238 339.569 111.511V75.2526C339.569 74.5239 340.157 73.9363 340.882 73.9363H342.422C343.147 73.9363 343.735 74.5256 343.735 75.2526ZM335.404 79.4168V111.514C335.404 112.24 334.817 112.828 334.092 112.828H332.551C331.827 112.828 331.239 112.24 331.239 111.514V79.4168C331.239 78.6914 331.826 78.1032 332.551 78.1032H334.092C334.816 78.1032 335.404 78.6913 335.404 79.4168ZM327.073 72.4742V111.512C327.073 112.239 326.486 112.828 325.761 112.828H324.22C323.496 112.828 322.908 112.239 322.908 111.512V72.4742C322.908 71.7474 323.496 71.1583 324.22 71.1583H325.761C326.486 71.1583 327.073 71.7475 327.073 72.4742ZM318.743 69.6925V111.516C318.743 112.241 318.155 112.828 317.431 112.828H315.89C315.166 112.828 314.578 112.24 314.578 111.516V69.6925C314.578 68.9668 315.165 68.3804 315.89 68.3804H317.431C318.155 68.3804 318.743 68.9678 318.743 69.6925ZM310.412 79.4168V111.514C310.412 112.24 309.825 112.828 309.1 112.828H307.559C306.835 112.828 306.247 112.24 306.247 111.514V79.4168C306.247 78.6914 306.835 78.1032 307.559 78.1032H309.1C309.824 78.1032 310.412 78.6913 310.412 79.4168Z" fill="#D8DEED"/>
<path d="M202 6.83955C202 3.06217 205.058 0 208.822 0H368.178C371.946 0 375 3.06245 375 6.83955V15.0437H202V6.83955Z" fill="#E1E5F0"/>
<path d="M212.066 10.941C213.856 10.941 215.308 9.48676 215.308 7.6929C215.308 5.89904 213.856 4.44482 212.066 4.44482C210.276 4.44482 208.824 5.89904 208.824 7.6929C208.824 9.48676 210.276 10.941 212.066 10.941Z" fill="#FF5645"/>
<path d="M222.644 10.941C224.434 10.941 225.886 9.48676 225.886 7.6929C225.886 5.89904 224.434 4.44482 222.644 4.44482C220.854 4.44482 219.402 5.89904 219.402 7.6929C219.402 9.48676 220.854 10.941 222.644 10.941Z" fill="#5D5FEF"/>
<path d="M233.563 10.941C235.353 10.941 236.805 9.48676 236.805 7.6929C236.805 5.89904 235.353 4.44482 233.563 4.44482C231.773 4.44482 230.321 5.89904 230.321 7.6929C230.321 9.48676 231.773 10.941 233.563 10.941Z" fill="#3ABF7C"/>
<defs>
<clipPath id="clip0_72_1181">
<rect width="141" height="222" fill="white" transform="translate(14 211)"/>
</clipPath>
<clipPath id="clip1_72_1181">
<rect width="223" height="323" fill="white" transform="translate(0 110)"/>
</clipPath>
<clipPath id="clip2_72_1181">
<rect width="223" height="323" fill="white" transform="translate(209 110)"/>
</clipPath>
</defs>
</svg>
