<svg width="254" height="189" viewBox="0 0 254 189" fill="none" xmlns="http://www.w3.org/2000/svg">
<g clip-path="url(#clip0_1213_8019)">
<path d="M185.243 179.578H180.213L177.819 160.171H185.243V179.578Z" fill="#9E616A"/>
<path d="M187.898 188.296H184.291L183.647 184.889L181.998 188.296H172.43C171.971 188.296 171.524 188.149 171.155 187.878C170.786 187.606 170.513 187.223 170.376 186.785C170.24 186.347 170.247 185.877 170.396 185.443C170.546 185.01 170.83 184.635 171.208 184.374L178.848 179.096V175.652L186.885 176.132L187.898 188.296Z" fill="#2F2E41"/>
<path d="M215.129 173.229L211.092 176.231L197.593 162.087L203.551 157.655L215.129 173.229Z" fill="#9E616A"/>
<path d="M222.46 178.64L219.565 180.793L217.016 178.443L217.725 182.161L210.047 187.872C209.679 188.146 209.233 188.295 208.775 188.297C208.316 188.299 207.869 188.155 207.498 187.885C207.127 187.615 206.852 187.234 206.714 186.796C206.575 186.359 206.58 185.889 206.727 185.454L209.71 176.659L207.655 173.895L214.39 169.483L222.46 178.64Z" fill="#2F2E41"/>
<path d="M191.1 79.4473C191.1 79.4473 200.644 87.6951 196.241 111.207L190.864 134.246L208.398 163.34L202.807 170.142L180.014 138.651L171.754 119.272L169.436 84.7809L191.1 79.4473Z" fill="#2F2E41"/>
<path d="M176.306 124.795L175.732 133.688L177.489 171.583L185.756 170.142L187.336 143.162L176.306 124.795Z" fill="#2F2E41"/>
<path d="M70.2203 184.142L74.719 184.142L76.8589 166.786L70.2197 166.786L70.2203 184.142Z" fill="#FFB6B6"/>
<path d="M69.073 182.672L70.3392 182.672L75.2827 180.661L77.9322 182.672H77.9326C79.4299 182.672 80.8659 183.267 81.9247 184.326C82.9834 185.385 83.5783 186.821 83.5784 188.319V188.502L69.0733 188.503L69.073 182.672Z" fill="#2F2E41"/>
<path d="M87.6531 181.306L92.041 182.297L97.9507 165.84L91.4745 164.377L87.6531 181.306Z" fill="#FFB6B6"/>
<path d="M86.8573 179.621L88.0924 179.9L93.3573 179.027L95.499 181.572L95.4994 181.572C96.9599 181.902 98.2296 182.799 99.0291 184.065C99.8287 185.332 100.093 186.864 99.7629 188.325L99.7225 188.504L85.5735 185.308L86.8573 179.621Z" fill="#2F2E41"/>
<path d="M64.5228 78.0391C62.4137 84.4016 62.6367 91.308 65.0298 98.7205L66.0528 140.454C66.0528 140.454 64.5286 167.823 69.4469 177.453H76.5799L80.1115 137.955L80.555 111.444L95.8472 133.81L86.1071 176.808L94.8861 177.593L110.692 130.931L91.1907 85.6602L64.5228 78.0391Z" fill="#2F2E41"/>
<path d="M146.781 59.9161C152.237 54.9986 160.352 52.526 167.159 55.2834C160.177 59.161 154.791 65.384 151.953 72.8515C150.87 75.7354 149.965 79.0558 147.299 80.5997C145.641 81.5604 143.577 81.6074 141.718 81.1436C139.858 80.6798 138.154 79.7501 136.472 78.8297L135.994 78.8188C138.142 71.794 141.326 64.8337 146.781 59.9161Z" fill="#E6E6E6"/>
<path d="M167.121 55.4328C161.093 56.212 155.462 58.8716 151.031 63.0335C150.061 63.9126 149.236 64.939 148.585 66.0752C147.987 67.2023 147.702 68.4691 147.76 69.7438C147.789 70.9333 147.957 72.1467 147.697 73.3228C147.555 73.9228 147.287 74.4859 146.912 74.9754C146.537 75.4648 146.063 75.8694 145.521 76.1627C144.189 76.9286 142.661 77.1701 141.159 77.3543C139.49 77.5588 137.755 77.7448 136.311 78.6806C136.136 78.794 135.97 78.5158 136.145 78.4026C138.657 76.7744 141.836 77.3669 144.537 76.2802C145.798 75.7732 146.913 74.8831 147.308 73.5374C147.653 72.3607 147.481 71.1093 147.441 69.9051C147.366 68.6624 147.598 67.4205 148.114 66.2879C148.705 65.1223 149.489 64.0657 150.434 63.1634C152.529 61.0981 154.935 59.375 157.565 58.0573C160.558 56.5368 163.789 55.5397 167.118 55.109C167.324 55.0824 167.326 55.4064 167.121 55.4328H167.121Z" fill="white"/>
<path d="M152.379 61.6093C151.782 60.7708 151.502 59.7472 151.59 58.7215C151.677 57.6957 152.127 56.7345 152.857 56.0095C153.006 55.8633 153.24 56.0871 153.091 56.2335C152.41 56.9073 151.991 57.8027 151.911 58.7581C151.832 59.7134 152.096 60.6658 152.657 61.4433C152.779 61.6124 152.5 61.7774 152.379 61.6093V61.6093Z" fill="white"/>
<path d="M147.665 69.1423C149.737 69.5094 151.871 69.082 153.642 67.9453C153.817 67.8326 153.983 68.1107 153.808 68.2233C151.963 69.4028 149.741 69.843 147.586 69.4562C147.381 69.4192 147.461 69.1055 147.665 69.1423V69.1423Z" fill="white"/>
<path d="M160.584 56.9653C160.748 57.3379 161.001 57.664 161.322 57.9145C161.642 58.1649 162.02 58.3317 162.421 58.4C162.627 58.4343 162.547 58.7481 162.342 58.7139C161.899 58.6364 161.482 58.4517 161.128 58.1758C160.773 57.8999 160.491 57.5413 160.306 57.1313C160.286 57.0941 160.28 57.0505 160.29 57.0092C160.301 56.968 160.327 56.9323 160.362 56.9093C160.399 56.8875 160.443 56.8812 160.485 56.8917C160.526 56.9021 160.562 56.9286 160.584 56.9653Z" fill="white"/>
<path d="M174.655 78.9981C174.526 78.9803 174.397 78.9625 174.266 78.9466C172.529 78.7161 170.777 78.627 169.026 78.6804C168.89 78.6823 168.753 78.6864 168.618 78.6922C164.4 78.8657 160.252 79.8209 156.383 81.5092C154.844 82.1824 153.358 82.9717 151.939 83.8704C149.979 85.1116 147.953 86.6133 145.762 87.1195C145.534 87.1749 145.303 87.2161 145.07 87.2429L136.018 79.4032C136.006 79.3751 135.993 79.3489 135.981 79.3207L135.605 79.0242C135.675 78.9727 135.749 78.9209 135.819 78.8694C135.859 78.8394 135.902 78.8111 135.942 78.7811C135.97 78.7616 135.998 78.7423 136.022 78.7231C136.031 78.7166 136.04 78.7102 136.047 78.7057C136.071 78.6866 136.095 78.6713 136.117 78.6543C136.528 78.3632 136.942 78.0745 137.358 77.7882C137.36 77.7862 137.36 77.7862 137.364 77.7858C140.517 75.5739 143.92 73.7438 147.504 72.334C147.611 72.2933 147.721 72.2506 147.832 72.2135C149.446 71.6133 151.106 71.146 152.796 70.8163C153.722 70.6388 154.657 70.5083 155.596 70.4252C158.023 70.2153 160.468 70.3886 162.841 70.9387C167.572 72.0359 171.899 74.6343 174.462 78.6866C174.528 78.7903 174.592 78.8923 174.655 78.9981Z" fill="#E6E6E6"/>
<path d="M174.535 79.095C169.253 76.0867 163.157 74.8197 157.113 75.474C155.809 75.5918 154.533 75.9144 153.329 76.4298C152.174 76.9698 151.183 77.8096 150.462 78.8618C149.769 79.8293 149.173 80.8992 148.257 81.6816C147.783 82.0751 147.23 82.3638 146.636 82.5288C146.042 82.6937 145.42 82.7312 144.811 82.6388C143.286 82.4481 141.921 81.7208 140.61 80.9632C139.155 80.1219 137.657 79.2251 135.941 79.1028C135.733 79.088 135.768 78.7661 135.976 78.7809C138.962 78.9937 141.144 81.3811 143.954 82.1402C145.266 82.4944 146.692 82.4554 147.817 81.6186C148.801 80.887 149.417 79.7842 150.11 78.7984C150.799 77.7617 151.731 76.9094 152.825 76.316C153.998 75.741 155.261 75.3697 156.558 75.2183C159.474 74.8307 162.432 74.904 165.325 75.4357C168.63 76.0241 171.81 77.1737 174.728 78.8347C174.908 78.9376 174.715 79.1973 174.535 79.0951L174.535 79.095Z" fill="white"/>
<path d="M159.046 75.1495C159.074 74.1204 159.467 73.1347 160.154 72.3684C160.842 71.6022 161.779 71.1053 162.799 70.9665C163.006 70.9391 163.058 71.2587 162.851 71.2861C161.901 71.4136 161.028 71.8766 160.389 72.5914C159.751 73.3063 159.389 74.2259 159.368 75.1843C159.364 75.3926 159.042 75.3566 159.046 75.1495Z" fill="white"/>
<path d="M150.748 78.3256C152.181 79.8664 154.143 80.8102 156.241 80.969C156.449 80.9845 156.413 81.3064 156.206 81.2909C154.023 81.1216 151.984 80.1352 150.496 78.5286C150.354 78.3753 150.607 78.1732 150.748 78.3256Z" fill="white"/>
<path d="M168.393 76.3829C168.3 76.7789 168.306 77.1919 168.411 77.5849C168.516 77.978 168.717 78.3387 168.997 78.6347C169.14 78.7861 168.887 78.9881 168.744 78.8377C168.438 78.5092 168.216 78.1105 168.099 77.6766C167.981 77.2426 167.972 76.7865 168.072 76.3481C168.078 76.306 168.099 76.2677 168.132 76.2411C168.166 76.2144 168.208 76.2014 168.25 76.2046C168.292 76.2094 168.331 76.2309 168.358 76.2643C168.385 76.2977 168.398 76.3403 168.393 76.3829Z" fill="white"/>
<path d="M15.662 183.826C15.2371 185.421 14.1206 186.749 12.7725 187.716C12.5527 187.874 12.3271 188.021 12.0985 188.158C12.0282 188.199 11.9578 188.243 11.8846 188.282C11.8054 188.328 11.7263 188.372 11.6472 188.413H5.30844C5.19415 188.182 5.08279 187.947 4.97143 187.716C2.25483 182.006 0.34705 175.844 0.672339 169.569C0.801393 167.134 1.31268 164.736 2.18743 162.461C3.92816 157.926 7.10486 154.001 11.4743 152.025C11.5827 151.976 11.697 151.926 11.8084 151.879C11.7732 152.005 11.738 152.128 11.7029 152.254C11.2341 153.943 10.9028 155.668 10.7123 157.41C10.6948 157.545 10.6801 157.68 10.6684 157.818C10.2521 162.02 10.6218 166.264 11.7586 170.331C11.7615 170.34 11.7644 170.351 11.7673 170.36C12.0165 171.26 12.3056 172.146 12.6348 173.019C12.8927 173.708 13.1711 174.388 13.4758 175.056C14.7477 177.861 16.4533 180.851 15.662 183.826Z" fill="#E6E6E6"/>
<path d="M11.8875 152.011C11.826 152.093 11.7644 152.172 11.7029 152.254C10.4157 153.96 9.32274 155.805 8.44412 157.753C8.39724 157.85 8.35328 157.947 8.31518 158.046C7.11131 160.767 6.33816 163.659 6.0235 166.617C6.02009 166.637 6.01814 166.658 6.01764 166.679C5.94438 167.37 5.90042 168.068 5.88284 168.766C5.81767 170.073 5.9591 171.383 6.3019 172.647C6.61447 173.678 7.1622 174.624 7.90197 175.408C7.97524 175.487 8.0485 175.566 8.12763 175.642C8.18624 175.704 8.25071 175.765 8.31225 175.824C8.90421 176.39 9.55186 176.914 10.1087 177.521C10.3639 177.793 10.5943 178.088 10.7973 178.401C11.1213 178.925 11.3306 179.512 11.4114 180.124C11.4922 180.735 11.4427 181.357 11.2662 181.947C10.8677 183.431 9.95628 184.682 9.02437 185.875C8.55841 186.473 8.0778 187.077 7.66167 187.716C7.50929 187.945 7.36862 188.176 7.23969 188.414H6.87044C6.99352 188.176 7.12833 187.945 7.27486 187.716C8.3445 186.03 9.86545 184.582 10.6538 182.727C11.1871 181.475 11.3483 180.057 10.6743 178.829C10.4767 178.471 10.2377 178.139 9.96216 177.838C9.42587 177.231 8.78408 176.712 8.20091 176.164C8.05438 176.026 7.91078 175.886 7.77305 175.739C7.04282 174.997 6.47933 174.108 6.12023 173.13C5.71355 171.889 5.52129 170.587 5.5517 169.282C5.5517 168.449 5.59566 167.611 5.67772 166.778C5.68651 166.673 5.69823 166.564 5.70995 166.456C6.30926 161.217 8.2996 156.235 11.4743 152.026C11.5329 151.943 11.5945 151.864 11.656 151.785C11.782 151.621 12.0135 151.85 11.8875 152.011Z" fill="white"/>
<path d="M5.82824 166.806C4.81319 166.636 3.8918 166.11 3.2286 165.323C2.56541 164.535 2.20361 163.538 2.2078 162.508C2.20836 162.467 2.22519 162.426 2.25474 162.397C2.2843 162.367 2.32427 162.35 2.36623 162.349C2.40819 162.348 2.44887 162.363 2.4797 162.392C2.51053 162.42 2.5291 162.46 2.53149 162.501C2.52582 163.46 2.86293 164.389 3.48199 165.121C4.10106 165.853 4.96129 166.339 5.90743 166.493C6.11299 166.526 6.03263 166.84 5.82824 166.806V166.806Z" fill="white"/>
<path d="M7.8205 175.467C9.54501 174.261 10.7518 172.449 11.2003 170.393C11.2446 170.189 11.5584 170.269 11.5142 170.472C11.0435 172.611 9.78377 174.494 7.98644 175.745C7.81505 175.864 7.65005 175.585 7.82051 175.467L7.8205 175.467Z" fill="white"/>
<path d="M8.34711 157.719C8.72611 157.867 9.13588 157.918 9.53963 157.868C9.94339 157.819 10.3285 157.67 10.6603 157.434C10.8301 157.313 10.9949 157.592 10.8262 157.712C10.4584 157.97 10.0329 158.135 9.58695 158.191C9.14099 158.247 8.68813 158.192 8.26792 158.033C8.22705 158.021 8.19218 157.994 8.17038 157.958C8.14859 157.921 8.14151 157.878 8.15059 157.836C8.16128 157.795 8.18792 157.759 8.22472 157.737C8.26152 157.715 8.3055 157.709 8.34711 157.719Z" fill="white"/>
<path d="M33.8723 163.346C33.7698 163.426 33.6643 163.505 33.5617 163.587C32.1704 164.652 30.8679 165.828 29.667 167.104C29.5733 167.201 29.4795 167.301 29.3886 167.4L29.3857 167.403C26.5384 170.495 24.287 174.086 22.7451 177.997L22.7363 178.023C22.7334 178.032 22.7305 178.038 22.7275 178.046C22.1164 179.612 21.6236 181.22 21.2535 182.859C20.8959 184.46 20.6029 186.175 20.0432 187.716C19.9582 187.954 19.8644 188.188 19.7648 188.414H6.7356C6.77955 188.183 6.82644 187.948 6.87333 187.716C7.53612 184.32 8.57199 181.007 9.96211 177.838C10.009 177.733 10.0559 177.627 10.1086 177.522C10.8263 175.956 11.6701 174.451 12.6318 173.022C12.6318 173.022 12.6319 173.022 12.632 173.021C12.6322 173.021 12.6324 173.021 12.6327 173.02C12.6329 173.02 12.6333 173.02 12.6336 173.02C12.634 173.019 12.6344 173.019 12.6348 173.019C13.1628 172.24 13.7301 171.487 14.3345 170.765C15.9018 168.9 17.7531 167.294 19.8204 166.005C19.8322 165.996 19.8468 165.99 19.8585 165.982C23.973 163.428 28.8494 162.212 33.5119 163.264H33.5148C33.635 163.291 33.7522 163.317 33.8723 163.346Z" fill="#E6E6E6"/>
<path d="M33.8578 163.501C33.7582 163.528 33.6585 163.557 33.5618 163.586C31.508 164.173 29.5256 164.986 27.6509 166.01C27.5572 166.06 27.4634 166.113 27.3696 166.166C24.7789 167.612 22.4272 169.45 20.3979 171.615C20.3963 171.616 20.3952 171.618 20.3949 171.621C20.3715 171.644 20.3451 171.67 20.3246 171.694C19.8557 172.198 19.4044 172.723 18.9765 173.262C18.1396 174.268 17.4653 175.398 16.9779 176.612C16.6055 177.624 16.4741 178.709 16.594 179.781C16.6028 179.89 16.6175 179.995 16.6321 180.104C16.6438 180.189 16.6556 180.274 16.6702 180.361C16.8636 181.537 17.1977 182.715 17.1039 183.914C17.0469 184.528 16.8604 185.124 16.5569 185.661C16.2533 186.198 15.8395 186.664 15.3427 187.03C15.005 187.291 14.644 187.521 14.2643 187.716C13.7214 187.996 13.1557 188.229 12.5733 188.413H11.4216C11.5769 188.369 11.7293 188.326 11.8847 188.282C12.4358 188.126 12.977 187.937 13.5052 187.716C13.807 187.59 14.1006 187.445 14.3844 187.282C15.5625 186.605 16.5442 185.567 16.7493 184.181C16.9281 182.967 16.5823 181.754 16.3772 180.567C16.342 180.361 16.3098 180.159 16.2922 179.957C16.1523 178.929 16.2372 177.883 16.5413 176.891C16.9629 175.654 17.5933 174.498 18.4051 173.473C18.9073 172.806 19.4433 172.165 20.011 171.553C20.0814 171.474 20.1546 171.395 20.2308 171.316C22.3029 169.135 24.6953 167.284 27.3256 165.826H27.3286C29.2843 164.737 31.3592 163.877 33.512 163.264H33.5149C33.6116 163.234 33.7113 163.205 33.808 163.179C34.0102 163.126 34.0571 163.445 33.8578 163.501Z" fill="white"/>
<path d="M20.1147 171.665C19.4069 170.918 18.9877 169.943 18.9321 168.915C18.8765 167.887 19.188 166.873 19.8111 166.053C19.9377 165.888 20.2006 166.077 20.0738 166.242C19.4922 167.004 19.2021 167.949 19.2559 168.906C19.3096 169.864 19.7037 170.77 20.3669 171.462C20.5108 171.613 20.2578 171.815 20.1147 171.665H20.1147Z" fill="white"/>
<path d="M16.4924 179.779C18.5951 179.855 20.649 179.135 22.2448 177.764C22.4028 177.628 22.6055 177.88 22.4477 178.016C20.7845 179.44 18.6455 180.185 16.4576 180.101C16.249 180.093 16.285 179.771 16.4924 179.779Z" fill="white"/>
<path d="M27.5959 165.926C27.8095 166.273 28.1058 166.56 28.4581 166.764C28.8104 166.967 29.2077 167.08 29.6143 167.092C29.8229 167.097 29.7867 167.419 29.5795 167.414C29.1303 167.399 28.6917 167.273 28.3019 167.05C27.9122 166.826 27.5832 166.51 27.3437 166.129C27.3181 166.095 27.3065 166.053 27.311 166.011C27.3156 165.968 27.3361 165.929 27.3684 165.902C27.4019 165.875 27.4446 165.863 27.4872 165.867C27.5298 165.872 27.5689 165.893 27.5959 165.926Z" fill="white"/>
<path d="M134.381 50.7481C134.08 51.1438 133.696 51.4687 133.256 51.7C132.816 51.9313 132.331 52.0632 131.835 52.0867C131.338 52.1101 130.843 52.0243 130.383 51.8355C129.923 51.6466 129.511 51.3592 129.174 50.9936L118.096 55.8125L119.175 49.6272L129.529 45.9994C130.181 45.4744 131.003 45.2068 131.838 45.2472C132.674 45.2875 133.466 45.6332 134.064 46.2185C134.662 46.8038 135.024 47.5883 135.083 48.4231C135.141 49.2579 134.891 50.0852 134.381 50.7481Z" fill="#FFB8B8"/>
<path d="M126.988 52.6792L101.259 64.1427L101.204 64.1229L71.8787 53.6706C69.6944 52.5287 68.0291 50.5949 67.2238 48.265C66.4185 45.9351 66.5341 43.3854 67.5469 41.138C68.1083 39.8963 68.9263 38.7876 69.947 37.8848C70.9677 36.9821 72.1679 36.3059 73.4687 35.9006C74.7696 35.4953 76.1415 35.3701 77.4941 35.5334C78.8468 35.6966 80.1496 36.1446 81.3167 36.8477L103.14 49.9969L124.302 47.2536L126.988 52.6792Z" fill="#E6E6E6"/>
<path d="M253.454 188.652C253.455 188.697 253.446 188.743 253.428 188.785C253.411 188.828 253.385 188.866 253.353 188.898C253.32 188.931 253.282 188.957 253.239 188.974C253.197 188.992 253.152 189 253.106 189H0.994726C0.902236 189 0.813538 188.964 0.748137 188.898C0.682737 188.833 0.645996 188.744 0.645996 188.652C0.645996 188.559 0.682737 188.47 0.748137 188.405C0.813538 188.339 0.902236 188.303 0.994726 188.303H253.106C253.152 188.303 253.197 188.312 253.239 188.329C253.282 188.346 253.32 188.372 253.353 188.405C253.385 188.437 253.411 188.476 253.428 188.518C253.446 188.56 253.455 188.606 253.454 188.652Z" fill="#CCCCCC"/>
<path d="M92.4627 86.997L66.5258 82.8473C65.8455 82.6294 65.2205 82.2668 64.6936 81.7845C64.1666 81.3022 63.7503 80.7115 63.4731 80.053C63.196 79.3945 63.0645 78.6839 63.0878 77.9698C63.1112 77.2557 63.2887 76.5552 63.6083 75.9162L64.7845 73.5629L64.3276 48.8392C64.2725 45.6232 65.0652 42.4495 66.6258 39.6372C68.1865 36.8249 70.46 34.4734 73.2178 32.8191L75.7471 31.3064L77.0253 28.0596L88.812 28.3471L88.8464 32.6054L93.0674 39.3379L93.0673 39.3658L92.8024 76.0098L91.6391 79.7915L93.3981 84.19L92.4627 86.997Z" fill="#E6E6E6"/>
<path d="M83.998 24.0223C89.9126 24.0223 94.7073 19.2264 94.7073 13.3105C94.7073 7.39448 89.9126 2.59863 83.998 2.59863C78.0833 2.59863 73.2886 7.39448 73.2886 13.3105C73.2886 19.2264 78.0833 24.0223 83.998 24.0223Z" fill="#FFB8B8"/>
<path d="M72.8461 15.6453C72.5267 14.2993 72.6733 12.4053 72.8538 11.05C73.3271 7.49704 75.2998 4.11928 78.2968 2.11851C78.8651 1.6868 79.5404 1.41838 80.2499 1.3422C80.9589 1.31259 81.7274 1.69224 81.9451 2.36783C82.1237 1.92193 82.3918 1.51739 82.7328 1.17916C83.0738 0.840926 83.4805 0.576186 83.9278 0.40128C84.8262 0.0569681 85.7926 -0.0732426 86.7501 0.0209696C88.6061 0.17399 90.386 0.826746 91.901 1.90996C93.416 2.99318 94.6096 4.46645 95.355 6.17341C95.6411 6.8531 96.4401 4.34252 96.8025 4.98473C97.1355 5.65227 97.7166 6.1629 98.4213 6.40737C99.1314 6.60557 99.4199 9.53213 99.6993 8.84971C99.9162 9.35404 100.002 9.90505 99.9485 10.4514C99.8951 10.9978 99.7043 11.5218 99.3939 11.9746C99.0836 12.4273 98.6637 12.7942 98.1734 13.041C97.6831 13.2877 97.1383 13.4063 96.5899 13.3858C95.8671 13.3588 95.1759 13.0929 94.4617 12.9784C91.9077 12.5691 89.1985 14.4215 88.6525 16.9503C88.457 16.219 88.1447 15.5241 87.7277 14.8923C87.516 14.5781 87.2324 14.319 86.9004 14.1366C86.5684 13.9541 86.1976 13.8536 85.819 13.8434C85.0923 13.8706 84.4536 14.3457 83.9822 14.8995C83.5107 15.4532 83.1566 16.0992 82.6816 16.6499C81.288 18.2659 79.4031 22.0345 77.4171 21.7596C75.8497 21.5427 73.2822 17.483 72.8461 15.6453Z" fill="#2F2E41"/>
<path d="M148.735 62.8858C148.81 62.3975 148.71 61.8984 148.452 61.477C148.194 61.0556 147.795 60.7392 147.326 60.5838L118.486 50.9761C118.209 50.8836 117.917 50.85 117.626 50.8774L110.398 51.5612L106.25 51.9547L98.5957 52.6782C98.1335 52.7224 97.6991 52.9188 97.3606 53.2366C97.022 53.5543 96.7985 53.9754 96.7249 54.4339L92.8387 78.7153C92.7651 79.189 92.8553 79.6735 93.0942 80.0889C93.3331 80.5044 93.7066 80.8259 94.1528 81.0005L123.294 92.2517C123.431 92.3049 123.573 92.343 123.718 92.3656C123.929 92.3998 124.144 92.4014 124.356 92.3704L143.186 89.5789C143.63 89.5146 144.042 89.3088 144.36 88.992C144.678 88.6752 144.885 88.2644 144.951 87.8204L148.735 62.8858Z" fill="white"/>
<path d="M94.8133 79.2903L123.955 90.5409C123.997 90.5577 124.043 90.5631 124.088 90.5566L142.916 87.7655C142.972 87.7578 143.024 87.7322 143.064 87.6924C143.104 87.6527 143.13 87.601 143.138 87.5452L146.924 62.6103C146.932 62.5495 146.919 62.4875 146.887 62.435C146.855 62.3825 146.806 62.3428 146.748 62.3226L146.554 62.257L117.906 52.7171C117.893 52.7125 117.879 52.7092 117.866 52.7074C117.843 52.7033 117.821 52.7022 117.798 52.7039L100.167 54.3727L98.7678 54.504C98.7104 54.5101 98.6565 54.5349 98.6145 54.5745C98.5725 54.614 98.5445 54.6663 98.5349 54.7232L94.6493 79.0037C94.6398 79.063 94.6509 79.1238 94.6807 79.1759C94.7106 79.228 94.7573 79.2684 94.8133 79.2903Z" fill="#5171E1"/>
<path d="M100.167 54.3727L117.798 52.7039C117.821 52.7022 117.844 52.7033 117.866 52.7074C117.879 52.7092 117.893 52.7125 117.906 52.7171L146.554 62.257L138.997 63.0571L136.169 63.3551L128.122 64.2055C128.098 64.2067 128.075 64.2064 128.051 64.2047C128.037 64.2004 128.023 64.1961 128.005 64.1915L100.167 54.3727Z" fill="#2F2E41"/>
<path d="M94.1522 81.0022L123.293 92.2528C123.431 92.3056 123.573 92.343 123.719 92.3641C123.93 92.399 124.145 92.4017 124.357 92.3721L143.184 89.5809C143.629 89.5162 144.04 89.3101 144.359 88.9932C144.677 88.6762 144.885 88.2652 144.951 87.8211L148.734 62.886C148.79 62.5184 148.748 62.1425 148.612 61.7965C148.593 61.7505 148.573 61.7045 148.551 61.6612C148.401 61.3453 148.173 61.0731 147.888 60.8705C147.716 60.7472 147.527 60.6507 147.326 60.5842L147.292 60.5721L118.487 50.9761C118.37 50.9385 118.249 50.9093 118.128 50.8887C117.961 50.8651 117.792 50.8618 117.625 50.8789L110.398 51.5604L106.25 51.9561L98.5947 52.679C98.2815 52.7083 97.9791 52.8083 97.7101 52.9714C97.6893 52.9815 97.6695 52.9934 97.6508 53.0069C97.6375 53.0157 97.6248 53.0253 97.6127 53.0357C97.3779 53.1961 97.1781 53.4026 97.0256 53.6426C96.8731 53.8827 96.7711 54.1513 96.7257 54.432L92.8369 78.7152C92.7634 79.1892 92.8537 79.674 93.0928 80.0898C93.3319 80.5056 93.7056 80.8274 94.1522 81.0022ZM97.2416 54.5167C97.2889 54.2256 97.4179 53.9541 97.6138 53.7337C97.6731 53.6628 97.7394 53.5981 97.8118 53.5406C98.0095 53.3807 98.2432 53.2716 98.4927 53.2229C98.542 53.2127 98.5918 53.2057 98.6419 53.2018L111.532 51.9838L117.676 51.399C117.717 51.3942 117.755 51.3949 117.794 51.3927C117.887 51.3908 117.98 51.3977 118.072 51.4133C118.156 51.4243 118.239 51.444 118.319 51.4723L147.158 61.0805C147.181 61.0885 147.201 61.0963 147.224 61.1044C147.486 61.202 147.716 61.3696 147.89 61.5891C148.027 61.7572 148.127 61.9522 148.184 62.1616C148.24 62.371 148.252 62.59 148.218 62.8042L144.432 87.742C144.382 88.0745 144.227 88.3823 143.989 88.6199C143.751 88.8575 143.443 89.0123 143.11 89.0615L124.28 91.8524C124.01 91.891 123.736 91.8597 123.482 91.7614L94.3402 80.5137C94.0062 80.382 93.7268 80.1407 93.5479 79.8293C93.369 79.518 93.3013 79.155 93.3558 78.8001L97.2416 54.5167Z" fill="#3F3D56"/>
<path d="M97.5502 53.1688C97.5656 53.1246 97.5927 53.0854 97.6287 53.0556C97.6407 53.046 97.6533 53.0374 97.6665 53.0297C97.6787 53.025 97.6912 53.0173 97.7035 53.0126C97.762 52.9891 97.8271 52.988 97.8863 53.0095L98.4929 53.2235L128.125 63.679L135.06 62.9461L138.941 62.5366L147.155 61.6668L147.89 61.5898L148.033 61.574C148.094 61.5684 148.156 61.5844 148.207 61.6194C148.258 61.6544 148.295 61.7061 148.312 61.7656C148.316 61.7793 148.318 61.7933 148.319 61.8075C148.325 61.864 148.313 61.9208 148.284 61.9696C148.255 62.0183 148.211 62.0563 148.158 62.0777C148.135 62.0874 148.111 62.094 148.086 62.0973L147.087 62.2021L138.997 63.0573L136.169 63.3553L128.122 64.2057C128.098 64.2069 128.075 64.2066 128.051 64.2049C128.037 64.2006 128.023 64.1962 128.006 64.1917L97.8119 53.5412L97.7094 53.5049C97.6859 53.4972 97.6641 53.4852 97.6451 53.4693C97.5994 53.4358 97.5656 53.3886 97.5485 53.3346C97.5315 53.2805 97.532 53.2225 97.5502 53.1688Z" fill="#3F3D56"/>
<path d="M123.798 92.4408C123.73 92.4299 123.669 92.3925 123.628 92.3367C123.587 92.281 123.57 92.2114 123.58 92.1431L127.835 63.9055C127.845 63.8368 127.882 63.7751 127.938 63.7338C127.994 63.6926 128.064 63.6752 128.133 63.6855L128.135 63.6859C128.203 63.6968 128.264 63.7342 128.305 63.79C128.346 63.8458 128.363 63.9154 128.353 63.9836L124.098 92.2212C124.088 92.2899 124.051 92.3516 123.995 92.3929C123.939 92.4341 123.869 92.4515 123.8 92.4412L123.798 92.4408Z" fill="#3F3D56"/>
<path d="M134.582 90.6491L131.752 90.9477L135.062 62.9446C135.062 62.9446 138.841 62.2602 138.942 62.5346C139.004 62.6985 134.609 90.4695 134.582 90.6491Z" fill="#3F3D56"/>
<path d="M97.7102 53.5039L97.634 66.2743L120.236 74.8885L128.353 63.9833L97.7102 53.5039Z" fill="#3F3D56"/>
<path d="M147.891 61.5896C147.702 61.352 147.447 61.1751 147.159 61.0805L118.321 51.4727C118.24 51.4455 118.157 51.4252 118.072 51.4122C117.98 51.3964 117.887 51.3894 117.794 51.3913L117.84 51.099L118.129 50.8899L124.977 45.9307L147.847 52.9412L147.887 60.8706L147.891 61.5896Z" fill="#3F3D56"/>
<path d="M98.8622 74.0049C98.8946 74.008 98.9267 74.0148 98.9577 74.0249L107.806 76.9318C107.917 76.9681 108.009 77.047 108.061 77.1511C108.114 77.2552 108.123 77.3759 108.087 77.4867C108.05 77.5975 107.971 77.6893 107.867 77.742C107.763 77.7946 107.643 77.8037 107.532 77.7674L98.6835 74.8605C98.5808 74.8268 98.4941 74.7563 98.44 74.6627C98.386 74.569 98.3683 74.4587 98.3904 74.3528C98.4125 74.247 98.4728 74.153 98.5598 74.0888C98.6469 74.0246 98.7545 73.9947 98.8621 74.0049H98.8622Z" fill="white"/>
<path d="M134.563 127.577C136.505 127.577 138.079 126.002 138.079 124.059C138.079 122.117 136.505 120.542 134.563 120.542C132.62 120.542 131.046 122.117 131.046 124.059C131.046 126.002 132.62 127.577 134.563 127.577Z" fill="#F2F2F2"/>
<path d="M44.8882 140.474C46.8304 140.474 48.4049 138.9 48.4049 136.957C48.4049 135.014 46.8304 133.439 44.8882 133.439C42.946 133.439 41.3716 135.014 41.3716 136.957C41.3716 138.9 42.946 140.474 44.8882 140.474Z" fill="#F2F2F2"/>
<path d="M118.152 24.1052C120.094 24.1052 121.668 22.5304 121.668 20.5878C121.668 18.6451 120.094 17.0703 118.152 17.0703C116.209 17.0703 114.635 18.6451 114.635 20.5878C114.635 22.5304 116.209 24.1052 118.152 24.1052Z" fill="#F2F2F2"/>
<path d="M123.921 79.1782C123.466 79.3763 122.972 79.472 122.475 79.4586C121.978 79.4452 121.491 79.323 121.046 79.1006C120.602 78.8782 120.211 78.5611 119.903 78.1715C119.594 77.782 119.375 77.3294 119.26 76.8459L107.241 75.6313L111.206 70.7637L122.011 72.6633C122.836 72.5241 123.684 72.6924 124.393 73.1364C125.102 73.5804 125.624 74.2691 125.859 75.0722C126.095 75.8753 126.028 76.7368 125.67 77.4936C125.313 78.2503 124.691 78.8498 123.921 79.1782Z" fill="#FFB8B8"/>
<path d="M116.529 77.2469L88.4814 74.662L88.4429 74.6178L67.9729 51.1575C66.6258 49.0931 66.1185 46.5917 66.5551 44.1655C66.9917 41.7393 68.339 39.5717 70.3212 38.1067C71.418 37.2982 72.6735 36.7311 74.0052 36.4429C75.3368 36.1547 76.7144 36.1518 78.0472 36.4345C79.3801 36.7172 80.6379 37.2791 81.738 38.0831C82.8381 38.8871 83.7555 39.915 84.4298 41.0992L97.0377 63.2428L116.838 71.2002L116.529 77.2469Z" fill="#E6E6E6"/>
<path d="M186.928 32.1311C186.231 27.0209 185.357 21.5343 181.754 17.8453C180.611 16.6748 179.242 15.748 177.731 15.1208C176.22 14.4936 174.597 14.179 172.961 14.196C171.325 14.2129 169.709 14.561 168.212 15.2194C166.714 15.8777 165.365 16.8327 164.246 18.0266C161.623 20.8255 160.464 24.7557 160.358 28.5906C160.252 32.4255 161.106 36.2178 162.053 39.9354C167.066 40.0355 172.042 39.0559 176.643 37.063C177.794 36.5635 178.926 35.9988 180.141 35.6893C181.357 35.3799 182.224 36.1586 183.354 36.7016L183.975 35.5128C184.483 36.4586 186.056 36.1783 186.627 35.2689C187.198 34.3595 187.073 33.1949 186.928 32.1311Z" fill="#2F2E41"/>
<path d="M167.057 60.6546L146.579 61.0926C146.265 60.5489 145.799 60.1083 145.239 59.8245C144.679 59.5406 144.048 59.4258 143.424 59.4939C142.799 59.562 142.208 59.8101 141.722 60.2081C141.237 60.606 140.877 61.1367 140.687 61.7354C140.497 62.3342 140.485 62.9752 140.653 63.5805C140.821 64.1858 141.161 64.7293 141.632 65.1449C142.103 65.5605 142.684 65.8302 143.306 65.9212C143.927 66.0122 144.561 65.9206 145.132 65.6576C147.847 65.812 169.095 68.8284 170.363 66.8845C171.649 64.9114 178.517 57.9484 178.517 57.9484L173.238 50.4316L167.057 60.6546Z" fill="#9E616A"/>
<path d="M172.047 37.1868C177.36 37.1868 181.668 32.8783 181.668 27.5636C181.668 22.2489 177.36 17.9404 172.047 17.9404C166.733 17.9404 162.426 22.2489 162.426 27.5636C162.426 32.8783 166.733 37.1868 172.047 37.1868Z" fill="#9E616A"/>
<path d="M187.456 46.0795C186.322 43.8225 185.771 41.0343 183.354 40.3026C181.722 39.8085 175.12 40.5489 173.633 41.383C171.158 42.7704 173.401 45.3701 171.941 47.803C170.354 50.4477 166.041 55.7552 164.454 58.4C163.363 60.2181 167.038 65.5549 166.448 67.5916C165.858 69.6284 165.83 71.9144 166.835 73.7815C167.734 75.4527 166.433 76.9311 167.337 78.5996C168.278 80.3347 169.432 86.8224 168.557 88.5914L167.971 90.3501C173.787 90.6919 178.677 83.7419 184.457 83.0098C185.893 82.828 187.384 82.5905 188.567 81.7569C190.309 80.5292 190.998 78.3013 191.429 76.2132C193.501 66.0065 192.103 55.4 187.456 46.0795Z" fill="#3F3D56"/>
<path d="M196.176 69.9111C195.366 67.6993 193.899 58.029 193.899 58.029L184.72 57.7598L189.208 68.8315L176.961 85.9799C176.961 85.9799 176.983 86.0176 177.025 86.0848C176.381 85.9814 175.721 86.0749 175.131 86.353C174.541 86.6311 174.049 87.0808 173.718 87.6433C173.388 88.2058 173.236 88.8549 173.28 89.5056C173.325 90.1564 173.565 90.7784 173.969 91.2905C174.373 91.8025 174.922 92.1806 175.545 92.3753C176.167 92.57 176.834 92.5722 177.457 92.3817C178.081 92.1912 178.633 91.8168 179.04 91.3076C179.448 90.7983 179.692 90.1778 179.741 89.5274C179.786 89.5533 179.839 89.5626 179.89 89.5538C179.941 89.545 179.988 89.5186 180.022 89.4792C181.385 87.7687 196.986 72.1229 196.176 69.9111Z" fill="#9E616A"/>
<path d="M197.109 63.8038C196.267 60.2468 195.418 56.6706 193.998 53.3026C192.577 49.9345 190.543 46.7534 187.683 44.478C186.769 43.7506 185.746 43.1085 184.6 42.8823C183.454 42.6561 182.162 42.9093 181.357 43.7562C180.069 45.1115 180.456 47.2869 180.929 49.0962C182.322 54.4312 183.715 59.7661 185.108 65.101C189.132 64.6744 193.155 64.2478 197.179 63.8212L197.109 63.8038Z" fill="#3F3D56"/>
<path d="M183.835 28.898C183.481 26.5701 183.111 24.2226 182.279 22.0306C181.446 19.8386 180.104 17.7855 178.18 16.5438C175.132 14.5778 171.187 14.957 167.77 16.0878C165.128 16.9624 162.549 18.2917 160.685 20.4287C158.822 22.5658 157.776 25.6152 158.469 28.4094C162.113 27.5482 165.758 26.6869 169.402 25.8256L169.003 26.1076C170.2 26.7044 171.245 27.5661 172.059 28.6273C172.873 29.6884 173.435 30.921 173.701 32.2317C173.962 33.5583 173.924 34.9262 173.592 36.2365C173.259 37.5469 172.639 38.7668 171.777 39.8082C174.263 38.9262 176.748 38.0443 179.234 37.1624C180.768 36.618 182.41 35.9908 183.32 34.5945C184.375 32.9757 184.129 30.83 183.835 28.898Z" fill="#2F2E41"/>
</g>
<defs>
<clipPath id="clip0_1213_8019">
<rect width="252.818" height="189" fill="white" transform="translate(0.63623)"/>
</clipPath>
</defs>
</svg>
