<svg width="439" height="403" viewBox="0 0 439 403" fill="none" xmlns="http://www.w3.org/2000/svg">
<path d="M148.755 297.617H155.957C159.671 298.764 162.013 301.198 162.984 304.917C163.955 308.637 161.612 312.205 155.957 315.622L155.899 315.609L155.904 315.622H66.9368C61.2813 312.205 58.939 308.637 59.9099 304.917C60.8808 301.198 63.2231 298.764 66.9368 297.617H148.755Z" fill="#5171E1"/>
<path d="M371.846 287.978H413.735C415.006 287.978 416.118 286.919 416.118 285.648V285.383C416.118 284.112 415.006 283.053 413.629 283.053H374.812C351.3 283.053 327.787 283.053 304.327 283.053H268.316C267.046 283.053 265.933 284.112 265.933 285.383V285.648C265.933 286.919 266.993 287.978 268.316 287.978H319.42L305.333 313.821C295.324 332.25 285.316 350.626 275.254 369.055L258.678 399.452C258.096 400.511 258.572 401.888 259.685 402.523L259.896 402.629C261.008 403.212 262.438 402.894 262.968 401.888L324.98 287.978H366.286L428.298 401.888C428.828 402.894 430.258 403.265 431.37 402.629L431.582 402.523C432.694 401.888 433.17 400.511 432.588 399.452L416.013 369.055C406.004 350.626 395.995 332.25 385.933 313.821L371.846 287.978ZM415.96 267.226V236.435C415.96 212.952 415.96 189.522 415.96 166.093V138.111C415.96 133.724 412.403 130.167 408.016 130.167H321.591C317.204 130.167 313.647 133.724 313.647 138.111V267.317C313.647 271.704 317.204 275.26 321.591 275.26C321.594 275.26 321.596 275.26 321.599 275.26L408.024 275.169C412.408 275.165 415.96 271.61 415.96 267.226Z" fill="#D8DEED"/>
<g clip-path="url(#clip0_190_2841)">
<path d="M218.446 395.586H304.765C306.081 395.586 307.148 396.653 307.148 397.969C307.148 399.286 306.081 400.353 304.765 400.353H218.446C217.13 400.353 216.063 399.286 216.063 397.969C216.063 396.653 217.13 395.586 218.446 395.586ZM315.357 395.586H369.902C371.218 395.586 372.285 396.653 372.285 397.969C372.285 399.286 371.218 400.353 369.902 400.353H315.357C314.041 400.353 312.974 399.286 312.974 397.969C312.974 396.653 314.041 395.586 315.357 395.586Z" fill="#5D5FEF"/>
<path d="M369.332 395.587H315.428L319.75 366.66H358.165L369.332 395.587ZM306.257 396.111C305.849 395.783 305.33 395.587 304.765 395.587H218.446C218.347 395.587 218.249 395.593 218.153 395.604C218.123 395.36 218.109 395.07 218.115 394.722C218.174 394.352 218.181 393.928 218.295 393.507C218.975 390.976 219.798 389.296 222.208 387.802C224.617 386.308 227.077 384.974 229.64 383.8C239.092 379.357 242.322 379.414 248.537 375.338C251.109 373.635 253.474 371.664 255.683 369.531C257.155 368.109 260.338 365.798 265.231 362.6L303.152 362.716L306.257 396.111Z" fill="#474961"/>
<path d="M368.889 271.109C368.802 297.02 367.927 331.442 367.625 343.283C367.572 344.932 367.784 349.394 364.606 352.208C363.706 353.032 362.806 353.372 361.111 354.099C359.787 354.682 353.856 356.428 341.994 357.398C341.253 357.446 340.458 357.495 339.664 357.446C327.431 357.01 324.412 356.234 319.699 354.876C316.575 354.002 314.298 351.286 313.98 348.085C312.497 333.969 308.419 295.504 308.102 292.109C307.678 287.792 307.307 282.893 306.99 277.314L306.821 274.703L292.166 268.826C298.286 292.664 304.224 317.354 309.531 341.9C309.796 343.103 310.273 345.81 308.896 348.366C306.354 353.227 299.734 352.977 283.9 354.881C265.26 357.137 257.475 359.492 253.239 354.681C251.809 353.127 251.332 351.523 251.173 350.772C247.307 331.275 228.137 274.69 220.67 234.093C220.67 233.993 220.617 233.943 220.617 233.843C218.234 220.761 227.184 208.432 240.476 206.778C244.871 206.227 248.843 205.695 253.239 205.144C254.57 204.986 255.899 204.94 257.213 205L322.828 203.842C361.744 203.498 356.385 198.902 368.554 204.598C376.666 208.396 382.19 219.207 385.124 237.032C386.175 250.585 380.763 261.944 368.889 271.109Z" fill="#7879F1"/>
<path opacity="0.176986" d="M368.956 271.057C368.96 269.704 368.962 268.373 368.962 267.071C368.962 256.981 369.015 248.299 369.121 242.721C369.227 238.307 370.022 214.054 359.748 209.009C358.848 208.572 357.947 208.233 356.147 207.602C354.717 207.117 347.303 204.595 337.771 204.983C331.575 205.225 322.255 205.614 314.576 211.677C303.985 220.068 304.249 233.31 304.355 235.445L306.89 274.731L292.243 268.857C288.162 252.963 284 237.448 279.889 222.607C277.081 212.506 267.694 205.515 257.397 204.997L322.827 203.842C361.743 203.498 356.385 198.902 368.554 204.598C376.666 208.396 382.19 219.207 385.124 237.032C386.173 250.559 380.784 261.901 368.956 271.057Z" fill="#444444"/>
<path d="M313.145 105.075C313.782 104.795 314.434 104.546 315.099 104.329L326.401 100.49C327.056 100.369 327.708 100.262 328.357 100.171C329.248 99.1313 331.062 98.2498 334.208 97.2671C345.379 93.7161 359.638 99.6214 364.717 112.854C369.143 124.386 375.022 137.412 374.474 137.583C374.358 137.619 371.792 139.487 368.276 140.644C373.361 160.166 376.1 173.235 376.495 179.85C377.28 193.026 372.925 201.857 358.165 202.976C343.404 204.095 322.861 205.671 320.447 201.302C318.895 198.493 311.6 181.149 298.562 149.27C293.687 150.876 291.142 151.697 290.925 151.736C290.245 151.856 287.932 144.103 286.425 131.843C284.697 117.775 293.083 106.043 306.981 103.643C309.278 103.236 311.333 103.713 313.145 105.075Z" fill="#5D5FEF"/>
<path opacity="0.176986" d="M313.178 105.1C299.356 110.933 292.493 130.911 297.095 145.684C297.604 146.895 298.105 148.086 298.598 149.259C293.7 150.872 291.142 151.697 290.925 151.736C290.245 151.856 287.932 144.103 286.425 131.843C284.697 117.775 293.083 106.043 306.981 103.643C309.293 103.234 311.358 103.719 313.178 105.1Z" fill="#444444"/>
<path d="M290.361 106.745C290.361 106.745 289.355 110.77 294.704 109.657C300.052 108.545 301.588 108.016 301.588 108.016L300.211 104.362L290.361 106.745Z" fill="#482D1F"/>
<path d="M320.6 103.913L330.449 150.699L332.79 137.998C345.132 140.458 355.177 141.688 362.923 141.687C362.964 141.687 363.006 141.687 363.047 141.687C361.302 148.479 357.166 177.953 350.732 189.357C342.597 203.773 337.85 205.356 325.838 204.178C324.608 204.057 323.448 203.836 322.353 203.514C322.878 203.688 323.419 203.835 323.977 203.953L261.833 204.925L261.828 204.942L261.639 204.928L261.381 204.932C261.266 204.934 261.153 204.917 261.047 204.884L235.467 202.971C231.502 202.675 227.859 200.679 225.475 197.497L222.13 193.033C221.492 192.183 221.079 191.186 220.926 190.134C220.423 186.661 222.83 183.437 226.304 182.934L234.499 181.746C239.602 181.006 244.785 181.016 249.885 181.774L265.727 184.13C277.635 180.323 293.526 175.321 297.494 174.459L292.567 151.2L298.391 148.874C300.219 153.12 301.94 157.109 303.552 160.84C301.725 143.113 301.931 123.537 299.734 106.148L294.227 106.268C290.944 107.592 284.059 109.816 283.318 105.103C283.318 105.103 292.426 101.343 298.834 98.5892L299.311 98.1656C299.734 97.7949 300.105 97.583 300.635 97.4242C300.741 97.3712 300.847 97.3712 300.952 97.3712L301.304 97.3199C300.351 97.3924 299.681 97.3751 299.448 97.3494C295.019 97.1522 289.59 89.1749 286.978 77.549C286.737 76.6132 286.654 75.6636 286.518 74.7187L285.85 65.2617C285.665 63.1515 286.066 61.0432 286.964 59.1572C287.051 58.937 287.142 58.7695 287.234 58.602C287.557 58.0421 287.88 57.4823 288.213 57.0279C289.489 55.2152 291.071 53.8541 292.739 52.8577C296.706 50.8095 301.339 50.2979 303.952 50.3882C304.326 50.4087 305.5 50.4654 307.154 50.5333C308.716 50.7688 310.212 50.8506 311.746 50.7695C312.595 50.7484 313.293 51.4316 313.366 52.2756L314.02 65.8271C314.025 65.9273 314.051 66.0687 314.098 66.2512C319.431 64.0448 323.248 65.3037 325.551 70.0279C329.006 77.1141 325.878 75.581 324.342 77.4696C323.235 78.7891 321.856 79.4413 320.93 79.7882C320.757 79.8253 320.58 79.9267 320.425 80.0674L324.573 80.1074L325.306 83.0201L325.576 86.7176L328.301 100.247C328.301 100.247 324.457 102.391 320.6 103.913ZM311.338 95.8626L311.026 94.3424C310.896 94.3979 310.764 94.4539 310.629 94.5107C306.222 96.3847 306.476 96.2562 306.169 96.3894C305.508 96.5955 304.866 96.76 304.255 96.8908L309.002 96.2062L311.338 95.8626ZM354.648 366.813H319.848L320.597 355.113C324.874 356.325 328.231 357.036 339.73 357.446C340.525 357.495 341.319 357.446 342.06 357.398C347.721 356.935 352.03 356.295 355.133 355.69L358.165 366.659L354.648 366.813ZM301.637 352.695L303.152 362.716H265.032L267.546 357.036C271.812 356.54 277.167 355.704 283.967 354.881C292.01 353.914 297.675 353.502 301.637 352.695Z" fill="#DB9E75"/>
<path d="M314.574 95.4578L312.572 95.738L311.453 95.9027C311.415 95.8922 311.377 95.8812 311.339 95.8699L311.025 94.3396L316.709 91.8892C315.944 93.652 315.232 94.8416 314.574 95.4578Z" fill="#482D1F"/>
<path d="M290.333 76.4049C290.522 77.3453 290.867 78.8567 290.505 79.5795C289.916 80.7473 287.848 78.3766 288.008 76.5553C288.101 75.8028 288.443 75.454 288.865 75.4171C289.546 75.3043 290.168 75.7283 290.333 76.4049ZM301.588 74.4103C301.777 75.3506 302.121 76.8621 301.759 77.5848C301.171 78.7526 299.103 76.3819 299.262 74.5606C299.356 73.8082 299.697 73.4593 300.119 73.4224C300.801 73.3096 301.423 73.7337 301.588 74.4103Z" fill="#482D1F"/>
<path d="M292.93 76.2898L292.917 81.6069C292.972 82.2594 293.512 82.8251 294.133 82.7708C294.5 82.7685 294.734 82.748 295.672 82.6479C296.091 82.6031 296.378 82.5743 296.718 82.5446C297.009 82.5191 297.225 82.2623 297.199 81.9709C297.174 81.6796 296.917 81.464 296.626 81.4895C296.278 81.5199 295.985 81.5493 295.56 81.5947C294.66 81.6907 294.441 81.7099 294.081 81.7137C294.06 81.714 293.98 81.6296 293.974 81.562L293.989 76.2925C293.99 76 293.754 75.7623 293.461 75.7616C293.169 75.7609 292.931 75.9974 292.93 76.2898Z" fill="#482D1F"/>
<path d="M297.777 85.5349C298.137 85.3971 299.002 84.9494 299.061 84.4126C299.052 84.3071 299.091 84.1442 299.033 84.0961C298.799 83.8508 298.132 84.1218 297.196 84.3631C295.531 84.7746 294.106 84.8992 294.106 84.8992C294.106 84.8992 294.66 85.7545 294.947 85.9952C295.582 86.5775 297.215 85.7967 297.777 85.5349Z" fill="#482D1F"/>
<path d="M310.571 70.493L312.326 69.8962C313.329 69.5552 313.84 71.0593 312.837 71.4003L311.082 71.9972L309.759 72.4472C309.909 72.9397 310.01 73.4551 310.056 73.9884C310.418 78.1257 307.358 81.7731 303.221 82.1351C299.621 82.45 296.392 80.1742 295.375 76.8526L294.448 76.9985L293.683 77.119C293.839 81.1029 290.838 84.5474 286.824 84.8986C282.686 85.2605 279.039 82.2 278.677 78.0627C278.315 73.9255 281.376 70.2781 285.513 69.9161C289.223 69.5915 292.561 72.0251 293.455 75.5466L294.201 75.4291L294.448 76.9985C293.538 76.3248 293.535 76.3021 293.533 76.2793L292.702 75.6652L293.455 75.5466C293.493 75.6936 293.526 75.8425 293.554 75.9932C293.623 75.722 293.831 75.4875 294.201 75.4291L295.073 75.2919C294.716 71.1576 297.775 67.5144 301.91 67.1526C304.955 66.8862 307.735 68.4743 309.135 70.9813L310.571 70.493ZM292.949 77.2345C292.511 77.3034 292.102 77.0009 292.039 76.5622C291.978 76.1323 292.273 75.7327 292.702 75.6652L294.201 75.4291L295.073 75.2919C295.074 75.2943 295.074 75.2968 295.074 75.2992C295.121 75.8369 295.224 76.3564 295.375 76.8526L294.448 76.9985L292.949 77.2345ZM294.448 76.9985C294.069 77.0582 293.795 76.89 293.649 76.6435L294.448 76.9985ZM303.082 80.5524C306.345 80.2669 308.759 77.3901 308.474 74.1269C308.188 70.8637 305.311 68.4498 302.048 68.7353C298.785 69.0208 296.371 71.8975 296.657 75.1608C296.942 78.424 299.819 80.8379 303.082 80.5524ZM285.651 71.4988C282.388 71.7843 279.974 74.6611 280.26 77.9243C280.545 81.1875 283.422 83.6014 286.685 83.3159C289.948 83.0304 292.362 80.1536 292.077 76.8904C292.067 76.7803 292.055 76.6709 292.039 76.5622C291.595 73.4554 288.792 71.224 285.651 71.4988Z" fill="#482D1F"/>
<path opacity="0.2" d="M323.947 203.953L261.803 204.925L261.798 204.942L261.609 204.928L261.35 204.932C261.235 204.934 261.123 204.917 261.017 204.884L235.436 202.971C231.471 202.675 227.828 200.679 225.444 197.497L222.099 193.033C221.462 192.183 221.048 191.186 220.896 190.134C220.392 186.661 222.8 183.437 226.273 182.934L234.469 181.746C239.572 181.006 244.755 181.016 249.855 181.774L265.696 184.13C277.604 180.323 293.496 175.321 297.463 174.46L292.537 151.2L298.36 148.874C300.295 153.368 302.11 157.574 303.803 161.491C304.098 163.822 304.44 166.142 304.841 168.447C308.751 189.253 313.283 201.687 323.947 203.953Z" fill="#8C2A00"/>
<path d="M329.9 150.977C329.775 150.557 330.015 150.115 330.436 149.99C330.856 149.865 331.298 150.105 331.423 150.526L336.666 168.213C336.79 168.634 336.55 169.076 336.13 169.201C335.709 169.325 335.267 169.086 335.142 168.665L329.9 150.977ZM363.079 142.336C362.641 142.333 362.288 141.974 362.291 141.536C362.294 141.097 362.653 140.744 363.091 140.747C365.302 140.764 367.377 140.442 369.318 139.782C369.734 139.641 370.185 139.863 370.326 140.278C370.467 140.694 370.245 141.145 369.83 141.286C367.716 142.004 365.465 142.354 363.079 142.336Z" fill="#482D1F"/>
<path d="M319.123 79.5967C319.928 79.3623 322.311 78.8392 323.773 77.0412C325.313 75.2053 326.071 72.3216 324.934 69.6568C323.912 67.0883 321.19 65.1469 318.663 65.4212C317.243 65.5985 316.142 66.3859 315.993 66.5052C314.253 67.8802 313.557 69.6422 313.557 69.6422L313.136 70.8722C312.927 70.5976 312.725 70.3405 312.534 70.1038C308.481 66.3119 306.141 63.6811 302.036 59.8939C299.971 60.6061 286.72 65.323 285.724 64.8785C285.724 59.4979 287.692 57.7659 288.024 57.3115C289.301 55.4988 291.168 53.7396 292.835 52.7432C296.802 50.695 301.435 50.1833 304.048 50.2737C304.422 50.2941 305.596 50.3509 307.25 50.4188C307.73 50.43 308.209 50.4412 308.794 50.4432C310.175 50.4287 311.239 50.4419 311.877 50.4393C319.942 50.2653 322.98 49.1489 327.179 50.9611C327.424 51.074 327.769 51.2366 328.176 51.4606C328.455 50.7279 328.781 50.0463 329.105 49.415C337.983 32.2119 348.767 36.1061 348.767 36.1699C348.767 36.2337 356.938 36.2337 359.028 44.5671C359.236 45.3952 360.702 51.2443 358.359 56.0671C355.217 62.3774 345.846 66.2623 335.184 63.6105C335.315 65.4557 335.188 66.9672 335.134 67.7544C334.552 73.8654 331.221 77.7185 330.247 79.3453C328.948 81.5144 327.344 83.6972 325.434 85.8936C323.052 84.4625 321.228 82.7923 319.962 80.883C319.689 80.4628 319.408 80.0327 319.123 79.5967Z" fill="#482D1F"/>
</g>
<path d="M158.872 253.421C162.679 255.313 163.978 257.185 164.181 258.823C164.478 261.578 163.834 263.792 162.299 267.433C159.328 274.715 156.802 282.095 154.772 289.672C154.177 289.544 153.584 289.409 152.992 289.267C154.233 293.998 154.19 297.616 154.19 297.616C98.5496 297.616 71.1935 297.616 72.1215 297.616C73.5134 297.616 83.575 270.371 119.079 267.602C120.1 267.521 121.09 267.47 122.052 267.446C122.269 266.542 122.642 265.726 123.319 264.493C121.831 260.847 120.686 252.301 120.297 248.742C120.297 248.596 120.347 248.449 120.397 248.303C120.597 247.913 121.146 247.718 121.595 247.913L132.834 253.421C134.753 252.719 136.784 252.081 138.925 251.443C140.953 250.823 142.982 250.294 144.889 249.809L148.912 239.355C149.061 238.954 149.555 238.704 149.951 238.904C150.1 238.954 150.199 239.054 150.298 239.205C152.38 242.142 157.496 249.634 158.872 253.421Z" fill="#EDBB01"/>
<path d="M69.9885 294.26C69.5696 291.609 70.6873 289.996 73.3416 289.421C84.2884 288.815 94.0289 289.628 102.563 291.859C111.097 294.09 116.067 296.037 117.474 297.702H73.3416C71.4678 297.702 69.9885 296.183 69.9885 294.26ZM156.93 276.329C158.206 274.85 162.133 268.49 162.133 268.49C162.133 268.49 157.813 281.605 155.212 289.74C155.359 289.05 153.298 294.572 153.052 293.142V293.092C152.708 291.465 151.383 290.282 149.714 290.184C148.143 290.085 146.474 290.036 144.707 290.036C142.449 290.036 140.142 290.184 137.884 290.479L134.596 280.471C137.786 282.098 141.419 282.689 144.953 282.393C146.18 282.295 147.358 282.048 148.536 281.703C151.776 280.766 154.672 278.844 156.93 276.329ZM145.122 264.227C145.818 265.007 146.953 265.277 147.937 264.832C148.832 264.311 149.307 263.304 149.117 262.279C149.037 261.848 149.322 261.434 149.754 261.354C150.185 261.274 150.6 261.559 150.679 261.99C150.995 263.697 150.19 265.383 148.692 266.231L148.637 266.259C147.306 266.881 145.804 266.708 144.666 265.927C144.311 266.78 143.602 267.51 142.648 267.941C140.73 268.67 138.58 267.952 137.613 266.258C137.395 265.877 137.528 265.391 137.909 265.174C138.29 264.956 138.775 265.089 138.992 265.47C139.564 266.472 140.884 266.912 142.039 266.475C142.913 266.079 143.413 265.269 143.323 264.475C143.32 264.47 143.317 264.465 143.315 264.46C143.085 264.06 143.039 263.56 143.085 263.11C143.131 262.761 143.315 262.461 143.545 262.311C144.004 261.961 144.694 262.161 144.97 262.661C145.214 263.142 145.233 263.727 145.122 264.227ZM131.707 264.249C132.265 265.299 131.753 266.798 131.195 266.898C130.776 266.948 130.264 266.398 130.078 266.048C129.846 265.649 129.799 265.149 129.846 264.699C129.892 264.349 130.078 264.049 130.311 263.9C130.776 263.55 131.427 263.75 131.707 264.249ZM155.555 255.776C156.072 256.826 155.602 258.225 155.039 258.425C154.616 258.475 154.099 257.925 153.911 257.575C153.676 257.175 153.629 256.676 153.676 256.226C153.723 255.876 153.911 255.576 154.146 255.427C154.616 255.077 155.274 255.277 155.555 255.776Z" fill="#DE6903"/>
<path d="M121.946 191.175L127.038 170.627H88.8091C84.8373 170.627 81.5534 167.608 81.5534 163.954V105.755C81.501 102.048 84.7314 99.0293 88.7561 99.0293H205.102C209.074 99.0293 212.357 102.048 212.357 105.702V163.954C212.357 167.608 209.074 170.627 205.102 170.627H158.513L156.411 191.175H170.204C172.322 191.175 173.964 192.87 173.964 194.935C173.964 197.053 172.269 198.695 170.204 198.695H111.157C109.039 198.695 107.397 197 107.397 194.935C107.292 192.87 109.039 191.175 111.157 191.175H121.946Z" fill="#474961"/>
<path fill-rule="evenodd" clip-rule="evenodd" d="M160.091 155.65L160.248 191.228H156.451L160.091 155.65Z" fill="white"/>
<g clip-path="url(#clip1_190_2841)">
<path d="M215.917 191.559C221.678 185.931 233.436 181.52 252.866 192.637C255.829 194.277 254.748 199.432 251.463 199.424L217.611 199.195C215.067 199.213 213.997 193.452 215.917 191.559Z" fill="#474961"/>
</g>
<path d="M58.2523 315.631C58.3398 315.625 58.4281 315.622 58.5171 315.622H163.901C165.948 315.622 167.608 317.281 167.608 319.329C167.608 321.376 165.948 323.036 163.901 323.036H58.5171C58.4281 323.036 58.3398 323.033 58.2523 323.026V396.381C58.2523 398.428 56.5926 400.088 54.5453 400.088C52.498 400.088 50.8384 398.428 50.8384 396.381L50.8384 203.089C50.8384 201.305 52.0984 199.816 53.777 199.462C54.2518 199.241 54.7814 199.117 55.3397 199.117H370.432C372.479 199.117 374.139 200.777 374.139 202.824C374.139 204.871 372.479 206.531 370.432 206.531H58.2523V315.631Z" fill="#D8DEED"/>
<defs>
<clipPath id="clip0_190_2841">
<rect width="276.434" height="400.352" fill="white" transform="translate(162.047)"/>
</clipPath>
<clipPath id="clip1_190_2841">
<rect width="54.5453" height="43.954" fill="white" transform="translate(207.59 155.163)"/>
</clipPath>
</defs>
</svg>
