<svg width="449" height="417" viewBox="0 0 449 417" fill="none" xmlns="http://www.w3.org/2000/svg">
<g clip-path="url(#clip0_169_2737)">
<path fill-rule="evenodd" clip-rule="evenodd" d="M111.83 58.9478L113.332 59.3765C113.401 59.3963 113.473 59.4065 113.547 59.4065H130.9C131.274 59.4065 131.597 59.142 131.67 58.7747L133.476 49.7008C133.486 49.6503 133.491 49.599 133.491 49.5475C133.491 49.1139 133.14 48.7625 132.706 48.7625H111.057C110.987 48.7625 110.917 48.7719 110.85 48.7904C110.796 48.8051 110.746 48.8247 110.698 48.8489L109.706 49.3556L111.83 58.9478ZM107.608 42.4667L107.495 41.9561H108.022L108.076 41.9996L108.18 42.4667H107.608ZM112.815 63.5915L112.062 64.056C111.418 64.4524 111.015 65.1664 111.015 65.9576C111.015 67.1852 111.98 68.1694 113.156 68.1694C114.333 68.1694 115.298 67.1852 115.298 65.9576C115.298 65.6057 115.219 65.2685 115.07 64.9636L114.4 63.5915H112.815ZM128.564 63.5915L127.894 64.9636C127.745 65.2685 127.666 65.6057 127.666 65.9576C127.666 67.1852 128.631 68.1694 129.808 68.1694C130.985 68.1694 131.95 67.1852 131.95 65.9576C131.95 65.4562 131.789 64.9845 131.499 64.5993L131.012 63.9553L131.192 63.5915H128.564ZM113.156 68.68C111.659 68.68 110.454 67.4562 110.454 65.9576C110.454 64.4589 111.659 63.2351 113.156 63.2351C114.654 63.2351 115.859 64.4589 115.859 65.9576C115.859 67.4562 114.654 68.68 113.156 68.68ZM129.808 68.68C128.311 68.68 127.106 67.4562 127.106 65.9576C127.106 64.4589 128.311 63.2351 129.808 63.2351C131.306 63.2351 132.511 64.4589 132.511 65.9576C132.511 67.4562 131.306 68.68 129.808 68.68Z" stroke="white" stroke-width="5"/>
<path d="M120.908 40.8443V35.539C120.908 34.9573 121.369 34.4858 121.936 34.4858C122.504 34.4858 122.964 34.9573 122.964 35.539V40.8443L123.815 39.5824C124.138 39.1038 124.778 38.9839 125.245 39.3144C125.713 39.645 125.83 40.3009 125.507 40.7795L122.796 44.8005C122.758 44.8597 122.714 44.9155 122.663 44.9667C122.661 44.9688 122.659 44.9709 122.657 44.973C122.616 45.0147 122.57 45.0534 122.521 45.0884C122.472 45.1227 122.422 45.1522 122.37 45.1769C122.234 45.2416 122.086 45.275 121.936 45.2752C121.932 45.2752 121.928 45.2751 121.924 45.2751C121.781 45.2735 121.637 45.2414 121.502 45.1769C121.412 45.1337 121.326 45.0766 121.25 45.0061C121.236 44.9933 121.222 44.9802 121.209 44.9667C121.207 44.9642 121.204 44.9616 121.202 44.959C121.155 44.9099 121.113 44.8568 121.077 44.8005L118.366 40.7795C118.043 40.3009 118.16 39.645 118.627 39.3144C119.094 38.9839 119.735 39.1038 120.057 39.5824L120.908 40.8443Z" fill="white"/>
<path d="M119.837 82.4664C135.735 82.4664 148.622 69.5787 148.622 53.681C148.622 37.7832 135.735 24.8955 119.837 24.8955C103.939 24.8955 91.0515 37.7832 91.0515 53.681C91.0515 69.5787 103.939 82.4664 119.837 82.4664Z" fill="#7879F1"/>
<path d="M132.543 63.8108C132.991 64.4048 133.258 65.1492 133.258 65.9576C133.258 67.9031 131.712 69.4779 129.808 69.4779C127.904 69.4779 126.358 67.9031 126.358 65.9576C126.358 65.394 126.488 64.8615 126.718 64.3894H116.246C116.477 64.8615 116.607 65.394 116.607 65.9576C116.607 67.9031 115.061 69.4779 113.156 69.4779C111.252 69.4779 109.706 67.9031 109.706 65.9576C109.706 64.6778 110.375 63.5584 111.375 62.9422L107.016 43.2645H104.074C103.506 43.2645 103.046 42.793 103.046 42.2114C103.046 41.6298 103.506 41.1583 104.074 41.1583H108.658L110.104 47.6836C110.229 47.6196 110.363 47.5674 110.504 47.5287C110.684 47.4792 110.87 47.4541 111.058 47.4541H132.707C133.863 47.4541 134.8 48.3914 134.8 49.5476C134.8 49.6848 134.787 49.8217 134.76 49.9563L132.953 59.0302C132.758 60.0096 131.899 60.7149 130.9 60.7149H113.547C113.349 60.7149 113.156 60.6871 112.973 60.6347L113.338 62.2832H131.625C132.193 62.2832 132.653 62.7547 132.653 63.3363C132.653 63.507 132.613 63.6682 132.543 63.8108ZM111.744 50.0709L113.423 58.0981H130.471L132.069 50.0709H111.744ZM113.156 67.3716C113.928 67.3716 114.551 66.7372 114.551 65.9576C114.551 65.178 113.928 64.5436 113.156 64.5436C112.385 64.5436 111.762 65.178 111.762 65.9576C111.762 66.7372 112.385 67.3716 113.156 67.3716ZM129.808 67.3716C130.579 67.3716 131.202 66.7372 131.202 65.9576C131.202 65.178 130.579 64.5436 129.808 64.5436C129.037 64.5436 128.414 65.178 128.414 65.9576C128.414 66.7372 129.037 67.3716 129.808 67.3716ZM120.908 40.8443V35.539C120.908 34.9573 121.369 34.4858 121.937 34.4858C122.504 34.4858 122.965 34.9573 122.965 35.539V40.8443L123.815 39.5824C124.138 39.1038 124.778 38.9839 125.246 39.3144C125.713 39.645 125.83 40.3009 125.507 40.7795L122.796 44.8005C122.758 44.8597 122.714 44.9155 122.664 44.9667C122.662 44.9688 122.66 44.9709 122.657 44.973C122.616 45.0147 122.57 45.0534 122.521 45.0884C122.472 45.1227 122.422 45.1522 122.37 45.1769C122.234 45.2416 122.086 45.275 121.937 45.2752C121.933 45.2752 121.929 45.2751 121.925 45.2751C121.781 45.2735 121.638 45.2414 121.503 45.1769C121.412 45.1337 121.327 45.0766 121.25 45.0061C121.236 44.9933 121.223 44.9802 121.209 44.9667C121.207 44.9642 121.204 44.9616 121.202 44.959C121.155 44.9099 121.113 44.8568 121.077 44.8005L118.366 40.7795C118.043 40.3009 118.16 39.645 118.627 39.3144C119.095 38.9839 119.735 39.1038 120.058 39.5824L120.908 40.8443Z" fill="white"/>
</g>
<path d="M297.717 417H252.508C251.45 417 250.524 416.238 250.524 415.323V414.714C250.524 413.799 251.406 413.037 252.508 413.037H297.717C298.776 413.037 299.702 413.799 299.702 414.714V415.323C299.702 416.238 298.82 417 297.717 417ZM204.874 413.037C205.97 413.037 206.858 413.924 206.858 415.019C206.858 416.113 205.97 417 204.874 417H132.98C131.884 417 130.996 416.113 130.996 415.019C130.996 413.924 131.884 413.037 132.98 413.037H204.874Z" fill="#011C7B"/>
<path d="M204.978 413.04C204.944 413.038 204.909 413.037 204.874 413.037H133.293C133.245 412.796 133.221 412.492 133.228 412.099C133.278 411.791 133.284 411.439 133.378 411.089C133.944 408.985 134.63 407.587 136.637 406.345C138.644 405.103 140.693 403.993 142.827 403.018C150.7 399.323 153.39 399.37 158.566 395.981C160.708 394.565 162.678 392.926 164.518 391.152C165.744 389.97 168.248 388.049 172.029 385.39L202.657 386.15L204.978 413.04ZM297.884 413.044C297.829 413.039 297.773 413.037 297.717 413.037H252.66L256.225 390.574L286.298 384.722L297.884 413.044Z" fill="#474961"/>
<path d="M189.203 114.777C188.226 114.891 187.348 114.939 186.57 114.921C183.813 114.856 179.324 115.462 175.543 114.921C162.652 113.075 161.017 109.985 160.749 108.634C160.382 106.751 161.25 105.523 166.192 96.9272C170.399 89.6413 183.315 75.4844 187.235 72.8591C189.849 71.109 194.185 69.5839 200.242 68.2839C200.23 68.3116 200.217 68.3416 200.204 68.3737C206.513 66.0281 214.223 65.8604 218.367 65.6764C220.535 65.5883 232.436 65.5883 234.604 65.6764C237.926 65.8239 242.543 66.342 247.008 67.9434C247.266 67.4111 247.715 67.1795 248.406 67.3356C252.597 67.908 260.668 70.6248 261.241 70.889C270.016 74.4852 292.728 90.9298 294.228 92.0306C295.728 93.1315 291.541 99.3702 287.731 102.95C284.041 106.417 279.36 107.144 271.253 112.031C270.204 112.664 267.702 113.072 263.746 113.258C263.939 126.507 264.068 133.325 264.172 136.483C264.172 136.483 264.126 136.923 264.172 137.584C264.264 139.521 264.31 147.491 260.159 151.014C259.605 151.454 259.006 151.851 258.498 152.115C257.391 152.731 256.469 152.951 256.469 152.951L256.376 152.995C226.44 160.217 196.549 152.995 196.549 152.995C196.503 152.951 196.457 152.951 196.457 152.951C196.457 152.951 195.534 152.731 194.427 152.115C193.874 151.851 193.32 151.498 192.767 151.014C188.661 147.491 188.707 139.521 188.8 137.584C188.8 136.967 188.8 136.483 188.8 136.483C188.899 133.417 189.022 127.018 189.203 114.777Z" fill="#011C7B"/>
<path d="M208.181 125.171C215.389 123.893 222.252 123.254 228.771 123.254C232.938 123.254 237.102 123.515 241.261 124.038V67.3717C241.261 66.3989 242.051 65.6104 243.025 65.6104H246.995C247.969 65.6104 248.759 66.3989 248.759 67.3717V125.266C258.111 127.297 264.854 135.464 265.073 145.009C266.967 153.593 271.737 176.84 277.472 216.993C280.075 235.399 282.059 251.207 283.515 263.361L283.383 263.405C284.221 270.714 285.059 278.728 285.235 280.886C285.632 286.17 286.382 294.36 287.308 303.916C289.69 328.707 292.336 364.286 293.174 376.087C293.262 377.628 293.836 381.812 291.498 384.762C290.792 385.598 290.131 386.039 288.764 386.831C287.661 387.492 282.942 389.65 273.194 391.543C272.577 391.631 271.915 391.719 271.253 391.763C261.065 392.336 258.463 391.851 254.449 390.971C251.758 390.398 249.641 388.064 249.068 385.026C246.598 371.816 239.717 335.796 239.144 332.582C238.35 328.531 237.6 323.951 236.851 318.711C231.345 286.397 227.049 258.277 223.962 234.348C223.252 246.045 222.547 257.741 221.854 269.437C220.487 279.697 219.781 287.887 219.429 292.687C219.429 292.687 215.371 348.258 210.299 383.529C210.122 384.674 209.769 387.052 207.961 389.077C204.124 393.304 198.699 390.134 182.247 389.385C182.247 389.385 166.06 388.681 162.62 384.674C161.958 383.881 161.561 383 161.561 383C160.9 381.283 160.988 379.698 161.032 379.037C165.266 338.174 162.973 316.421 169.588 268.865C172.735 246.29 178.689 212.729 187.452 168.182L188.775 151.728V145.979C188.775 137.816 193.55 130.594 200.683 127.248V67.3717C200.683 66.3989 201.473 65.6104 202.448 65.6104H206.417C207.392 65.6104 208.181 66.3989 208.181 67.3717V125.171Z" fill="#474BFF"/>
<path d="M238.913 109.572C237.527 112.34 234.836 114.385 231.512 114.823C226.219 115.528 221.323 111.829 220.617 106.501C219.912 101.173 223.617 96.3292 228.953 95.6246C230.234 95.4542 231.491 95.5415 232.671 95.8471L231.82 93.9762L230.585 91.6298V91.7767C230.85 91.5568 231.159 91.4248 231.468 91.2049L233.408 90.2371C234.379 89.8852 235.569 89.4893 236.937 89.0054L237.334 88.8734C237.378 88.8734 237.466 88.8294 237.51 88.7854L238.128 88.5655H238.216L239.186 88.2576C240.245 87.9496 241.436 87.5977 242.626 87.2458C243.773 86.8939 244.92 86.542 246.023 86.1901L246.993 85.9261H247.081L247.743 85.7502L247.919 85.6622L248.316 85.5742C249.683 85.2223 250.918 84.8704 251.933 84.6504L254.182 84.3425C254.535 84.2985 254.888 84.2545 255.241 84.1226C255.285 84.9584 255.373 85.7942 255.461 86.6739L258.372 104.71C258.461 105.237 258.461 105.721 258.372 106.205C258.328 106.425 258.284 106.601 258.196 106.909C257.975 107.657 257.49 108.273 256.873 108.801C256.344 109.241 255.902 109.504 253.785 110.208C252.815 110.516 251.492 110.956 249.992 111.44C248.493 111.88 247.169 112.232 246.199 112.584C244.038 113.156 243.42 113.244 242.803 113.156C242.053 113.068 241.303 112.716 240.686 112.276C240.509 112.188 240.333 112.012 240.201 111.792C239.892 111.44 239.539 111 239.363 110.56L238.913 109.572ZM230.938 110.64C233.982 110.244 236.099 107.426 235.702 104.431C235.305 101.437 232.482 99.2794 229.483 99.6757C226.484 100.072 224.322 102.89 224.719 105.885C225.16 108.967 227.939 111.036 230.938 110.64Z" fill="#F8F4FF"/>
<path d="M231.776 90.8744C232.217 90.6983 232.791 90.4781 233.452 90.258C234.423 89.9057 235.614 89.5094 236.981 89.025L237.378 88.8929C237.422 88.8929 237.51 88.8489 237.554 88.8049L238.172 88.5847H238.26L239.23 88.2764C240.289 87.9682 241.48 87.6159 242.671 87.2637C243.817 86.9114 244.964 86.5591 246.067 86.2069L247.037 85.9427H247.125L247.787 85.7665L247.963 85.6784L248.36 85.5904C249.728 85.2381 250.963 84.8858 251.977 84.6657C252.683 84.4895 253.212 84.3574 253.741 84.2694C254.623 84.0932 255.153 84.0492 255.153 84.1813C255.153 84.2694 254.932 84.4455 254.403 84.6657C252.771 85.4583 248.581 86.9995 243.464 88.6287L243.068 88.7168L242.671 88.8489C237.51 90.346 233.188 91.3588 231.335 91.579C230.762 91.667 230.497 91.623 230.453 91.579C230.453 91.4909 230.894 91.2267 231.776 90.8744Z" fill="#474961"/>
<path d="M233.874 65.4006C234.828 65.5123 235.829 65.6391 236.877 65.781C233.532 68.8626 230.986 70.5565 229.239 70.8624C226.618 71.3214 227.832 71.3214 223.362 71.3214C220.383 71.3214 217.03 69.5271 213.305 65.9384C215.567 65.5879 217.625 65.317 219.477 65.1257L219.392 61.2421C217.101 62.0923 217.229 62.007 217.003 62.0822C214.224 62.7867 211.842 62.6987 211.401 62.6106C209.813 62.4785 208.137 61.1575 206.638 58.9117C204.609 55.9174 202.801 51.2499 201.83 45.6576C201.654 44.865 201.61 44.0724 201.566 43.2798L201.389 35.3977C201.345 33.6363 201.742 31.875 202.624 30.2898C202.977 29.5852 203.33 29.0128 203.771 28.5284C203.785 28.511 203.798 28.4937 203.812 28.4764C203.828 28.45 203.844 28.4233 203.859 28.3963C207.255 23.6847 214.356 23.0682 217.62 23.4205C218.017 23.4645 219.429 23.6407 221.458 23.7728C222.56 23.8608 223.442 23.8608 223.972 23.9049C230.543 24.1691 233.146 23.3765 236.454 25.1378C237.071 25.4461 238.483 26.2387 239.718 27.7799C243.202 32.1392 242.364 37.7755 242.143 39.4488C241.349 44.4687 238.438 47.551 237.556 48.828C236.504 50.3775 234.73 52.2716 233.47 53.5481L233.874 65.4006ZM277.472 171.053L291.203 195.691C292.615 198.498 289.924 201.627 287.101 200.431C281.652 198.117 277.177 195.056 273.591 191.922C273.157 188.817 272.253 183.498 270.88 175.963L270.866 175.97C269.972 171.069 268.881 165.236 267.593 158.473V156.205L288.499 127.197C281.273 120.847 278.413 119.031 271.274 111.996C279.259 107.216 283.894 106.473 287.553 103.034C290.156 100.588 292.935 96.902 293.956 94.4605C305.638 103.447 313.159 110.897 314.786 115.057C316.11 118.449 316.374 121.796 316.374 121.796C316.771 127.33 315.051 131.704 314.389 133.356C309.734 145.017 288.353 162.628 277.472 171.053ZM225.71 99.4906C226.666 99.3908 227.677 99.8237 228.246 100.659L228.945 101.736C229.526 102.65 229.476 103.75 228.935 104.568C229.654 104.686 230.322 105.098 230.744 105.765L231.425 106.854C231.795 107.46 231.892 108.14 231.76 108.765C232.345 108.948 232.866 109.326 233.198 109.862L233.879 110.951C234.651 112.215 234.237 113.808 233.015 114.534L225.936 118.754C213.398 128.465 201.939 140.01 188.825 148.702C173.167 158.786 162.096 159.799 155.525 155.748C149.791 152.225 143.792 150.684 149.835 133.07C151.746 127.574 157.369 118.936 162.567 111.111C164.45 112.409 168.14 113.847 175.415 114.889C179.196 115.431 183.685 114.824 186.441 114.889C188.11 114.928 190.236 114.664 192.817 114.094L192.943 114.161L193.384 118.666C188.198 121.664 185.605 123.162 185.605 123.162C193.255 118.788 197.874 116.102 199.461 115.104L203.573 112.604C211.504 105.549 224.501 93.6544 224.501 93.6544C226.501 95.2029 226.57 97.3129 225.71 99.4906Z" fill="#DB9E75"/>
<path d="M219.296 61.2169L225.604 58.4717L219.508 65.6106L219.296 61.2169Z" fill="#482D1F"/>
<path d="M235.204 41.6139C235.215 40.399 234.89 39.1606 234.116 38.0839C232.705 36.1024 230.058 35.0015 227.941 35.7061C226.75 36.1024 225.956 37.0271 225.868 37.1152C224.677 38.6123 224.413 40.1975 224.413 40.1975L224.38 40.5153C221.197 37.221 217.236 33.1487 214.257 30.0173C212.445 30.5135 209.456 31.0097 206.059 30.288C205.461 30.1555 204.732 29.8852 203.873 29.4771C203.845 29.4642 203.819 29.45 203.793 29.4346C203.356 29.1718 203.214 28.6048 203.478 28.168C207.01 23.3416 214.438 22.7101 217.835 23.071C218.288 23.1161 219.737 23.2965 221.866 23.4318C223.043 23.522 223.949 23.522 224.493 23.5671C231.377 23.8378 234.095 23.0259 237.537 24.8301C238.171 25.1459 239.665 25.9578 240.934 27.5365C244.874 32.3178 243.923 38.1365 243.47 39.4897C243.153 40.4369 242.876 41.0358 242.391 41.3538C242.132 41.5242 239.001 41.6113 235.204 41.6139ZM202.933 40.814C202.492 40.7259 202.36 40.1535 202.668 39.8453C203.065 39.493 203.771 39.1407 204.653 39.1407C206.461 39.1407 208.402 40.3296 206.373 40.858C205.182 41.1663 203.771 40.9901 202.933 40.814ZM212.019 41.1222C211.578 41.0342 211.445 40.4617 211.798 40.1535C212.195 39.8012 212.901 39.4489 213.827 39.4489C215.635 39.4489 217.576 40.6819 215.547 41.1663C214.268 41.5185 212.857 41.2984 212.019 41.1222Z" fill="#482D1F"/>
<path d="M206.373 43.8962C206.329 44.6448 206.197 45.8778 205.756 46.3181C205.006 46.9786 204.036 44.7769 204.609 43.4119C204.829 42.8394 205.138 42.7514 205.491 42.7954C206.02 42.8835 206.373 43.3678 206.373 43.8962ZM214.268 43.8082C214.312 44.5568 214.312 45.7897 213.871 46.3181C213.21 47.0667 211.975 44.9531 212.416 43.544C212.592 42.9715 212.901 42.8394 213.254 42.8394C213.783 42.8394 214.224 43.2798 214.268 43.8082Z" fill="#482D1F"/>
<path d="M210.652 52.8351C210.96 52.747 211.71 52.5268 211.842 52.0425C211.842 51.9544 211.887 51.8223 211.842 51.7342C211.666 51.426 211.137 51.6021 210.343 51.6462C208.931 51.7342 207.785 51.6021 207.785 51.6021C207.785 51.6021 208.093 52.4828 208.314 52.747C208.755 53.4075 210.166 52.9672 210.652 52.8351Z" fill="#482D1F"/>
<path fill-rule="evenodd" clip-rule="evenodd" d="M208.093 40.9463C208.337 40.9463 208.535 41.1434 208.535 41.3866V43.9846C208.535 44.0051 208.533 44.0255 208.53 44.0458L207.869 48.7574C207.868 48.7598 207.868 48.7623 207.868 48.7647C207.868 48.7683 207.871 48.7777 207.883 48.7922C207.892 48.8041 207.904 48.8148 207.917 48.8226C207.924 48.8272 207.931 48.8301 207.936 48.8319C207.949 48.8329 207.963 48.8339 207.976 48.835C208.519 48.8768 209.033 48.9164 209.99 48.9164C210.234 48.9164 210.431 49.1135 210.431 49.3567C210.431 49.5999 210.234 49.7971 209.99 49.7971C208.999 49.7971 208.46 49.7555 207.907 49.713C207.885 49.7112 207.862 49.7095 207.839 49.7077C207.826 49.7067 207.813 49.7052 207.8 49.703C207.338 49.626 206.91 49.17 206.996 48.6304L207.652 43.9539V41.3866C207.652 41.1434 207.85 40.9463 208.093 40.9463ZM207.867 48.7631C207.867 48.7631 207.867 48.7633 207.867 48.7637L207.867 48.7631Z" fill="#482D1F"/>
<path d="M235.092 40.4854C235.054 40.2452 235.219 40.0199 235.459 39.9824C235.7 39.9448 235.926 40.1092 235.963 40.3495C236.194 41.8256 235.93 43.4199 235.26 44.7095C234.795 45.6395 234.149 46.3885 233.377 46.9853C232.854 47.3905 232.401 47.644 231.831 47.9067C231.61 48.0086 231.348 47.9122 231.246 47.6914C231.144 47.4706 231.24 47.209 231.461 47.1071C232.758 46.5097 233.761 45.7334 234.474 44.3099C235.061 43.1804 235.294 41.7757 235.092 40.4854ZM193.722 118.311C193.735 118.332 193.748 118.355 193.759 118.378C193.918 118.706 193.781 119.101 193.452 119.26L180.661 125.441C180.332 125.6 179.936 125.462 179.777 125.134C179.618 124.806 179.756 124.411 180.084 124.252L192.46 118.271C192.444 118.213 192.435 118.151 192.436 118.088C192.454 115.905 192.469 113.811 192.502 108.842C192.535 103.871 192.55 101.777 192.568 99.5933C192.571 99.2286 192.87 98.9353 193.235 98.9384C193.601 98.9415 193.894 99.2397 193.891 99.6044C193.873 101.787 193.858 103.88 193.825 108.85C193.792 113.821 193.777 115.915 193.759 118.099C193.758 118.173 193.745 118.245 193.722 118.311Z" fill="#482D1F"/>
<path opacity="0.2" d="M270.371 173.19L276.869 169.971L291.203 195.692C292.614 198.498 289.924 201.627 287.101 200.431C281.652 198.117 277.177 195.056 273.591 191.923C273.105 188.449 272.032 182.205 270.371 173.19Z" fill="#8C2A00"/>
<path opacity="0.176986" d="M210.323 136.015C210.255 140.826 209.566 144.184 208.257 146.09C206.823 148.176 203.611 150.049 198.621 151.708C197.526 152.072 196.793 153.103 196.811 154.256C196.854 157.017 196.751 159.08 196.502 160.446C196.197 162.118 196.197 166.32 196.502 173.053L257.226 171.752L257.72 160.446L257.027 153.175C256.918 152.032 256.082 151.09 254.958 150.844C250.841 149.946 247.974 148.298 246.357 145.901C244.892 143.731 244.241 140.496 244.401 136.196C244.474 134.252 242.954 132.617 241.007 132.544C240.963 132.543 240.919 132.542 240.875 132.542H213.851C211.922 132.542 210.35 134.089 210.323 136.015Z" fill="#444444"/>
<g clip-path="url(#clip1_169_2737)">
<path d="M327.075 417C327.075 404.107 316.648 393.655 303.784 393.655H83.1771C70.3138 393.655 59.886 404.107 59.886 417H31.7607V199.845C31.7607 187.438 41.7951 177.381 54.173 177.381H330.591C342.969 177.381 353.003 187.438 353.003 199.845V417H327.075Z" fill="#F2F6FB"/>
<path d="M54.173 177.381H330.591C342.969 177.381 353.003 187.438 353.003 199.845V202.598H31.7607V199.845C31.7607 187.438 41.7951 177.381 54.173 177.381ZM146.459 255.786H235.669L223.464 359.738H160.545L146.459 255.786ZM185.85 296.19C183.727 294.258 181.217 293.117 178.651 293.139C172.551 293.192 168.441 299.799 169.472 307.895C170.502 315.991 176.283 322.511 182.383 322.457C183.723 322.446 184.967 322.118 186.081 321.527C186.713 322.087 187.405 322.587 188.155 323.019C195.611 327.314 206.007 323.275 211.375 313.998C216.744 304.72 215.051 293.717 207.595 289.422C200.774 285.492 191.492 288.539 185.85 296.19Z" fill="#E1E5F0"/>
</g>
<path d="M124.539 162.465H153.988C156.901 162.465 159.263 164.822 159.263 167.729V176.504H84.5411H61.6851V119.032H119.265C122.178 119.032 124.539 121.389 124.539 124.297V162.465Z" fill="#474961"/>
<path opacity="0.176986" d="M124.539 162.465H153.988C156.901 162.465 159.263 164.822 159.263 167.729V176.504H124.539V162.465Z" fill="#444444"/>
<rect x="48.2351" y="241.175" width="297.19" height="112.03"/>
<defs>
<clipPath id="clip0_169_2737">
<rect width="57.5709" height="57.5709" fill="white" transform="translate(91.0515 24.8955)"/>
</clipPath>
<clipPath id="clip1_169_2737">
<rect width="325.198" height="239.619" fill="white" transform="translate(29.5635 177.381)"/>
</clipPath>
</defs>
</svg>
