<svg width="581" height="571" viewBox="0 0 581 571" fill="none" xmlns="http://www.w3.org/2000/svg">
<path d="M342.366 511.849C312.449 507.845 290.985 491.716 272.059 477.486C261.923 469.868 252.338 462.667 242.095 457.499C218.949 445.829 198.311 441.395 178.345 437.109C146.073 430.19 112.7 423.026 76.7896 386.837C40.6343 350.392 27.0742 315.698 35.3448 280.771C43.4473 246.517 72.3103 216.905 96.5412 194.947C112.349 180.607 123.402 162.862 135.081 144.076C145.248 127.739 155.75 110.851 169.998 95.5307C206.551 56.2562 242.141 42.1606 288.997 48.4307C307.067 50.8433 325.642 56.048 345.302 61.559C362.684 66.4208 380.647 71.4541 400.78 75.4097C402.722 75.7893 404.786 76.1322 406.896 76.4139C417.138 77.7855 427.931 77.8222 439.336 77.8712C451.52 77.9202 464.102 77.9692 476.898 79.6837C492.216 81.7289 505.394 85.9049 517.15 92.4323C553.504 112.602 556.837 135.638 560.062 157.902C561.377 166.977 562.738 176.345 566.361 186.081C570.993 198.499 579.34 209.949 588.176 222.086C601.691 240.627 615.664 259.805 617.055 283.918C619.73 330.332 581.694 356.111 552.862 371.468C543.613 376.403 534.501 380.285 525.696 384.045C507.381 391.858 491.574 398.606 481.193 412.212C478.09 416.278 476.439 423.246 474.849 429.982C472.938 438.064 470.951 446.429 466.074 453.948C448.432 481.184 409.846 509.878 363.417 512.621C356.263 513.013 349.185 512.755 342.366 511.849Z" fill="url(#paint0_linear_72_976)"/>
<path d="M342.1 568.469C309.016 563.58 285.281 543.891 264.353 526.519C253.145 517.22 242.545 508.43 231.219 502.121C205.624 487.874 182.802 482.462 160.724 477.229C125.037 468.782 88.1332 460.037 48.4229 415.86C8.4421 371.368 -6.55277 329.015 2.59293 286.378C11.5527 244.563 43.4697 208.414 70.2644 181.608C87.7444 164.102 99.9668 142.439 112.882 119.506C124.124 99.5627 135.738 78.9467 151.494 60.2442C191.914 12.2996 231.269 -4.9078 283.084 2.74659C303.066 5.69174 323.606 12.0455 345.346 18.773C364.567 24.7081 384.43 30.8525 406.694 35.6814C408.841 36.1448 411.124 36.5634 413.457 36.9073C424.783 38.5817 436.718 38.6265 449.329 38.6863C462.803 38.7461 476.716 38.806 490.865 40.899C507.804 43.3956 522.377 48.4936 535.377 56.4619C575.577 81.0845 579.263 109.205 582.83 136.385C584.283 147.462 585.788 158.899 589.795 170.784C594.917 185.944 604.147 199.922 613.918 214.737C628.862 237.372 644.314 260.783 645.852 290.22C648.811 346.88 606.751 378.35 574.867 397.097C564.64 403.122 554.564 407.861 544.827 412.451C524.574 421.989 507.094 430.226 495.616 446.836C492.184 451.799 490.358 460.306 488.6 468.528C486.487 478.395 484.289 488.606 478.897 497.785C459.388 531.034 416.719 566.062 365.378 569.411C357.467 569.889 349.64 569.575 342.1 568.469Z" stroke="url(#paint1_linear_72_976)" stroke-miterlimit="10" stroke-dasharray="25 25"/>
<defs>
<linearGradient id="paint0_linear_72_976" x1="167.8" y1="89.8161" x2="406.461" y2="507.001" gradientUnits="userSpaceOnUse">
<stop stop-color="#5171E1"/>
<stop offset="1" stop-color="#BDCCFF" stop-opacity="0.32"/>
</linearGradient>
<linearGradient id="paint1_linear_72_976" x1="146.013" y1="50.369" x2="451.779" y2="534.629" gradientUnits="userSpaceOnUse">
<stop stop-color="#5171E1"/>
<stop offset="1" stop-color="#00A99D"/>
</linearGradient>
</defs>
</svg>
